<svg width="19" height="98" viewBox="0 0 19 98" fill="none" xmlns="http://www.w3.org/2000/svg">
<rect x="0.75" y="0.75" width="17.5" height="23.5" rx="8.75" stroke="#D9D9D9" stroke-width="1.5"/>
<rect x="9" y="5" width="1" height="5" rx="0.5" fill="#D9D9D9"/>
<path d="M10 30.3333C8.52724 30.3333 7.33333 31.5272 7.33333 33C7.33333 34.4728 8.52724 35.6667 10 35.6667C11.4728 35.6667 12.6667 34.4728 12.6667 33C12.6667 31.5272 11.4728 30.3333 10 30.3333ZM10 98L12.8868 93L7.11325 93L10 98ZM9.5 34.0156C9.5 34.2918 9.72386 34.5156 10 34.5156C10.2761 34.5156 10.5 34.2918 10.5 34.0156L9.5 34.0156ZM10.5 36.0469C10.5 35.7707 10.2761 35.5469 10 35.5469C9.72386 35.5469 9.5 35.7707 9.5 36.0469L10.5 36.0469ZM9.5 38.0781C9.5 38.3543 9.72386 38.5781 10 38.5781C10.2761 38.5781 10.5 38.3543 10.5 38.0781L9.5 38.0781ZM10.5 40.1094C10.5 39.8332 10.2761 39.6094 10 39.6094C9.72386 39.6094 9.5 39.8332 9.5 40.1094L10.5 40.1094ZM9.5 42.1406C9.5 42.4168 9.72386 42.6406 10 42.6406C10.2761 42.6406 10.5 42.4168 10.5 42.1406L9.5 42.1406ZM10.5 44.1719C10.5 43.8957 10.2761 43.6719 10 43.6719C9.72386 43.6719 9.5 43.8957 9.5 44.1719L10.5 44.1719ZM9.5 46.2031C9.5 46.4793 9.72386 46.7031 10 46.7031C10.2761 46.7031 10.5 46.4793 10.5 46.2031L9.5 46.2031ZM10.5 48.2344C10.5 47.9582 10.2761 47.7344 10 47.7344C9.72386 47.7344 9.5 47.9582 9.5 48.2344L10.5 48.2344ZM9.5 50.2656C9.5 50.5418 9.72386 50.7656 10 50.7656C10.2761 50.7656 10.5 50.5418 10.5 50.2656L9.5 50.2656ZM10.5 52.2969C10.5 52.0207 10.2761 51.7969 10 51.7969C9.72386 51.7969 9.5 52.0207 9.5 52.2969L10.5 52.2969ZM9.5 54.3281C9.5 54.6043 9.72386 54.8281 10 54.8281C10.2761 54.8281 10.5 54.6043 10.5 54.3281L9.5 54.3281ZM10.5 56.3594C10.5 56.0832 10.2761 55.8594 10 55.8594C9.72386 55.8594 9.5 56.0832 9.5 56.3594L10.5 56.3594ZM9.5 58.3906C9.5 58.6668 9.72386 58.8906 10 58.8906C10.2761 58.8906 10.5 58.6668 10.5 58.3906L9.5 58.3906ZM10.5 60.4219C10.5 60.1457 10.2761 59.9219 10 59.9219C9.72386 59.9219 9.5 60.1457 9.5 60.4219L10.5 60.4219ZM9.5 62.4531C9.5 62.7293 9.72386 62.9531 10 62.9531C10.2761 62.9531 10.5 62.7293 10.5 62.4531L9.5 62.4531ZM10.5 64.4844C10.5 64.2082 10.2761 63.9844 10 63.9844C9.72386 63.9844 9.5 64.2082 9.5 64.4844L10.5 64.4844ZM9.5 66.5156C9.5 66.7918 9.72386 67.0156 10 67.0156C10.2761 67.0156 10.5 66.7918 10.5 66.5156L9.5 66.5156ZM10.5 68.5469C10.5 68.2707 10.2761 68.0469 10 68.0469C9.72386 68.0469 9.5 68.2707 9.5 68.5469L10.5 68.5469ZM9.5 70.5781C9.5 70.8543 9.72386 71.0781 10 71.0781C10.2761 71.0781 10.5 70.8543 10.5 70.5781L9.5 70.5781ZM10.5 72.6094C10.5 72.3332 10.2761 72.1094 10 72.1094C9.72386 72.1094 9.5 72.3332 9.5 72.6094L10.5 72.6094ZM9.5 74.6406C9.5 74.9168 9.72386 75.1406 10 75.1406C10.2761 75.1406 10.5 74.9168 10.5 74.6406L9.5 74.6406ZM10.5 76.6719C10.5 76.3957 10.2761 76.1719 10 76.1719C9.72386 76.1719 9.5 76.3957 9.5 76.6719L10.5 76.6719ZM9.5 78.7031C9.5 78.9793 9.72386 79.2031 10 79.2031C10.2761 79.2031 10.5 78.9793 10.5 78.7031L9.5 78.7031ZM10.5 80.7344C10.5 80.4582 10.2761 80.2344 10 80.2344C9.72386 80.2344 9.5 80.4582 9.5 80.7344L10.5 80.7344ZM9.5 82.7656C9.5 83.0418 9.72386 83.2656 10 83.2656C10.2761 83.2656 10.5 83.0418 10.5 82.7656L9.5 82.7656ZM10.5 84.7969C10.5 84.5207 10.2761 84.2969 10 84.2969C9.72386 84.2969 9.5 84.5207 9.5 84.7969L10.5 84.7969ZM9.5 86.8281C9.5 87.1043 9.72386 87.3281 10 87.3281C10.2761 87.3281 10.5 87.1043 10.5 86.8281L9.5 86.8281ZM10.5 88.8594C10.5 88.5832 10.2761 88.3594 10 88.3594C9.72386 88.3594 9.5 88.5832 9.5 88.8594L10.5 88.8594ZM9.5 90.8906C9.5 91.1668 9.72386 91.3906 10 91.3906C10.2761 91.3906 10.5 91.1668 10.5 90.8906L9.5 90.8906ZM10.5 92.9219C10.5 92.6457 10.2761 92.4219 10 92.4219C9.72386 92.4219 9.5 92.6457 9.5 92.9219L10.5 92.9219ZM9.5 94.9531C9.5 95.2293 9.72386 95.4531 10 95.4531C10.2761 95.4531 10.5 95.2293 10.5 94.9531L9.5 94.9531ZM10.5 96.9844C10.5 96.7082 10.2761 96.4844 10 96.4844C9.72386 96.4844 9.5 96.7082 9.5 96.9844L10.5 96.9844ZM9.5 33L9.5 34.0156L10.5 34.0156L10.5 33L9.5 33ZM9.5 36.0469L9.5 38.0781L10.5 38.0781L10.5 36.0469L9.5 36.0469ZM9.5 40.1094L9.5 42.1406L10.5 42.1406L10.5 40.1094L9.5 40.1094ZM9.5 44.1719L9.5 46.2031L10.5 46.2031L10.5 44.1719L9.5 44.1719ZM9.5 48.2344L9.5 50.2656L10.5 50.2656L10.5 48.2344L9.5 48.2344ZM9.5 52.2969L9.5 54.3281L10.5 54.3281L10.5 52.2969L9.5 52.2969ZM9.5 56.3594L9.5 58.3906L10.5 58.3906L10.5 56.3594L9.5 56.3594ZM9.5 60.4219L9.5 62.4531L10.5 62.4531L10.5 60.4219L9.5 60.4219ZM9.5 64.4844L9.5 66.5156L10.5 66.5156L10.5 64.4844L9.5 64.4844ZM9.5 68.5469L9.5 70.5781L10.5 70.5781L10.5 68.5469L9.5 68.5469ZM9.5 72.6094L9.5 74.6406L10.5 74.6406L10.5 72.6094L9.5 72.6094ZM9.5 76.6719L9.5 78.7031L10.5 78.7031L10.5 76.6719L9.5 76.6719ZM9.5 80.7344L9.5 82.7656L10.5 82.7656L10.5 80.7344L9.5 80.7344ZM9.5 84.7969L9.5 86.8281L10.5 86.8281L10.5 84.7969L9.5 84.7969ZM9.5 88.8594L9.5 90.8906L10.5 90.8906L10.5 88.8594L9.5 88.8594ZM9.5 92.9219L9.5 94.9531L10.5 94.9531L10.5 92.9219L9.5 92.9219Z" fill="#D9D9D9"/>
</svg>
