<svg width="104" height="60" viewBox="0 0 104 60" fill="none" xmlns="http://www.w3.org/2000/svg">
<path d="M5.44919 54.5889L4.13669 50.7568L2.68356 54.5889H5.44919ZM0.210907 58.1396L3.43942 49.3916H4.83981L7.96286 58.1396H6.68552L5.77731 55.5029H2.39059L1.42966 58.1396H0.210907ZM13.1601 52.8018H10.7578L10.7109 54.3076C10.6875 55.0693 10.6289 55.7061 10.5351 56.2178C10.4414 56.7256 10.3125 57.1338 10.1484 57.4424C9.98825 57.751 9.79294 57.9697 9.56247 58.0986C9.332 58.2275 9.06833 58.292 8.77145 58.292C8.66208 58.292 8.56638 58.2744 8.48434 58.2393C8.40622 58.208 8.34567 58.1748 8.3027 58.1396V57.1904C8.45505 57.249 8.58981 57.2783 8.707 57.2783C8.78903 57.2783 8.86716 57.2646 8.94138 57.2373C9.0195 57.21 9.09177 57.1572 9.15817 57.0791C9.22849 57.001 9.29294 56.8916 9.35153 56.751C9.41013 56.6064 9.46091 56.4189 9.50388 56.1885C9.55075 55.958 9.58786 55.6787 9.6152 55.3506C9.64645 55.0225 9.66794 54.6318 9.67966 54.1787L9.73239 51.8643H14.2383V58.1396H13.1601V52.8018ZM21.1699 56.1357C21.1269 56.4092 21.0332 56.6768 20.8886 56.9385C20.7441 57.2002 20.5547 57.4346 20.3203 57.6416C20.0859 57.8486 19.8086 58.0146 19.4883 58.1396C19.1718 58.2686 18.8203 58.333 18.4336 58.333C18.0117 58.333 17.6211 58.2646 17.2617 58.1279C16.9062 57.9873 16.5976 57.7783 16.3359 57.501C16.0781 57.2197 15.875 56.8682 15.7265 56.4463C15.5781 56.0244 15.5039 55.5283 15.5039 54.958C15.5039 54.5752 15.5449 54.2295 15.6269 53.9209C15.7129 53.6084 15.8261 53.3311 15.9668 53.0889C16.1113 52.8428 16.2773 52.6318 16.4648 52.4561C16.6523 52.2764 16.8496 52.1299 17.0566 52.0166C17.2675 51.8994 17.4824 51.8135 17.7011 51.7588C17.9199 51.7002 18.1308 51.6709 18.334 51.6709C18.7636 51.6709 19.1562 51.7354 19.5117 51.8643C19.8672 51.9932 20.1718 52.1904 20.4258 52.4561C20.6836 52.7178 20.8828 53.0479 21.0234 53.4463C21.1679 53.8408 21.2402 54.3057 21.2402 54.8408V55.3799H16.6523C16.6562 55.6846 16.6992 55.9619 16.7812 56.2119C16.8633 56.458 16.9804 56.6689 17.1328 56.8447C17.2851 57.0205 17.4687 57.1572 17.6836 57.2549C17.9023 57.3486 18.1484 57.3955 18.4218 57.3955C18.6992 57.3955 18.9336 57.3564 19.125 57.2783C19.3164 57.2002 19.4765 57.1006 19.6054 56.9795C19.7343 56.8584 19.8379 56.7236 19.916 56.5752C19.998 56.4268 20.0664 56.2803 20.1211 56.1357H21.1699ZM20.1562 54.5186C20.1484 54.2139 20.1015 53.9424 20.0156 53.7041C19.9336 53.4658 19.8164 53.2666 19.664 53.1064C19.5156 52.9424 19.3359 52.8193 19.125 52.7373C18.914 52.6514 18.6797 52.6084 18.4218 52.6084C18.1758 52.6084 17.9492 52.6572 17.7422 52.7549C17.5351 52.8486 17.3535 52.9814 17.1972 53.1533C17.041 53.3213 16.916 53.5225 16.8222 53.7568C16.7285 53.9873 16.6718 54.2412 16.6523 54.5186H20.1562ZM22.5058 51.8643H23.584V54.8994L26.7539 51.8643H28.166L25.2187 54.6357L28.2129 58.1396H26.8242L24.375 55.292L23.584 55.9541V58.1396H22.5058V51.8643ZM34.0136 55.9307C33.998 56.083 33.9668 56.249 33.9199 56.4287C33.8769 56.6084 33.8125 56.7881 33.7265 56.9678C33.6406 57.1436 33.5293 57.3135 33.3925 57.4775C33.2597 57.6416 33.0957 57.7881 32.9004 57.917C32.709 58.042 32.4824 58.1416 32.2207 58.2158C31.959 58.2939 31.6601 58.333 31.3242 58.333C31.1406 58.333 30.9472 58.3096 30.7441 58.2627C30.541 58.2197 30.3418 58.1455 30.1465 58.04C29.955 57.9346 29.7715 57.7998 29.5957 57.6357C29.4238 57.4678 29.2715 57.2607 29.1386 57.0146C29.0097 56.7686 28.9062 56.4834 28.8281 56.1592C28.75 55.8311 28.7109 55.4561 28.7109 55.0342C28.7109 54.5146 28.7851 54.0479 28.9336 53.6338C29.082 53.2158 29.2793 52.8623 29.5254 52.5732C29.7754 52.2842 30.0644 52.0615 30.3925 51.9053C30.7246 51.749 31.0722 51.6709 31.4355 51.6709C31.7636 51.6709 32.0527 51.7061 32.3027 51.7764C32.5566 51.8467 32.7773 51.9404 32.9648 52.0576C33.1523 52.1748 33.3105 52.3115 33.4394 52.4678C33.5683 52.6201 33.6718 52.7822 33.75 52.9541C33.832 53.1221 33.8925 53.2939 33.9316 53.4697C33.9746 53.6455 34.0019 53.8135 34.0136 53.9736H33.0058C32.9511 53.5479 32.8027 53.2139 32.5605 52.9717C32.3222 52.7295 31.9863 52.6084 31.5527 52.6084C31.2558 52.6084 30.9961 52.6689 30.7734 52.79C30.5547 52.9111 30.3711 53.0811 30.2226 53.2998C30.0781 53.5146 29.9687 53.7764 29.8945 54.085C29.8242 54.3896 29.789 54.7256 29.789 55.0928C29.789 55.5068 29.8281 55.8643 29.9062 56.165C29.9843 56.4619 30.0957 56.708 30.2402 56.9033C30.3847 57.0947 30.5605 57.2373 30.7675 57.3311C30.9785 57.4209 31.2168 57.4658 31.4824 57.4658C31.6699 57.4658 31.8476 57.4326 32.0156 57.3662C32.1836 57.2959 32.334 57.1963 32.4668 57.0674C32.5996 56.9346 32.7129 56.7725 32.8066 56.5811C32.9004 56.3896 32.9668 56.1729 33.0058 55.9307H34.0136ZM40.4238 56.1357C40.3808 56.4092 40.2871 56.6768 40.1425 56.9385C39.998 57.2002 39.8086 57.4346 39.5742 57.6416C39.3398 57.8486 39.0625 58.0146 38.7422 58.1396C38.4258 58.2686 38.0742 58.333 37.6875 58.333C37.2656 58.333 36.875 58.2646 36.5156 58.1279C36.1601 57.9873 35.8515 57.7783 35.5898 57.501C35.332 57.2197 35.1289 56.8682 34.9804 56.4463C34.832 56.0244 34.7578 55.5283 34.7578 54.958C34.7578 54.5752 34.7988 54.2295 34.8808 53.9209C34.9668 53.6084 35.08 53.3311 35.2207 53.0889C35.3652 52.8428 35.5312 52.6318 35.7187 52.4561C35.9062 52.2764 36.1035 52.1299 36.3105 52.0166C36.5215 51.8994 36.7363 51.8135 36.955 51.7588C37.1738 51.7002 37.3847 51.6709 37.5879 51.6709C38.0175 51.6709 38.4101 51.7354 38.7656 51.8643C39.1211 51.9932 39.4258 52.1904 39.6797 52.4561C39.9375 52.7178 40.1367 53.0479 40.2773 53.4463C40.4218 53.8408 40.4941 54.3057 40.4941 54.8408V55.3799H35.9062C35.9101 55.6846 35.9531 55.9619 36.0351 56.2119C36.1172 56.458 36.2343 56.6689 36.3867 56.8447C36.539 57.0205 36.7226 57.1572 36.9375 57.2549C37.1562 57.3486 37.4023 57.3955 37.6758 57.3955C37.9531 57.3955 38.1875 57.3564 38.3789 57.2783C38.5703 57.2002 38.7304 57.1006 38.8593 56.9795C38.9883 56.8584 39.0918 56.7236 39.1699 56.5752C39.2519 56.4268 39.3203 56.2803 39.375 56.1357H40.4238ZM39.4101 54.5186C39.4023 54.2139 39.3554 53.9424 39.2695 53.7041C39.1875 53.4658 39.0703 53.2666 38.9179 53.1064C38.7695 52.9424 38.5898 52.8193 38.3789 52.7373C38.1679 52.6514 37.9336 52.6084 37.6758 52.6084C37.4297 52.6084 37.2031 52.6572 36.9961 52.7549C36.789 52.8486 36.6074 52.9814 36.4511 53.1533C36.2949 53.3213 36.1699 53.5225 36.0761 53.7568C35.9824 53.9873 35.9258 54.2412 35.9062 54.5186H39.4101ZM47.1035 56.1357C47.0605 56.4092 46.9668 56.6768 46.8222 56.9385C46.6777 57.2002 46.4883 57.4346 46.2539 57.6416C46.0195 57.8486 45.7422 58.0146 45.4218 58.1396C45.1054 58.2686 44.7539 58.333 44.3672 58.333C43.9453 58.333 43.5547 58.2646 43.1953 58.1279C42.8398 57.9873 42.5312 57.7783 42.2695 57.501C42.0117 57.2197 41.8086 56.8682 41.6601 56.4463C41.5117 56.0244 41.4375 55.5283 41.4375 54.958C41.4375 54.5752 41.4785 54.2295 41.5605 53.9209C41.6465 53.6084 41.7597 53.3311 41.9004 53.0889C42.0449 52.8428 42.2109 52.6318 42.3984 52.4561C42.5859 52.2764 42.7832 52.1299 42.9902 52.0166C43.2011 51.8994 43.416 51.8135 43.6347 51.7588C43.8535 51.7002 44.0644 51.6709 44.2675 51.6709C44.6972 51.6709 45.0898 51.7354 45.4453 51.8643C45.8008 51.9932 46.1054 52.1904 46.3593 52.4561C46.6172 52.7178 46.8164 53.0479 46.957 53.4463C47.1015 53.8408 47.1738 54.3057 47.1738 54.8408V55.3799H42.5859C42.5898 55.6846 42.6328 55.9619 42.7148 56.2119C42.7968 56.458 42.914 56.6689 43.0664 56.8447C43.2187 57.0205 43.4023 57.1572 43.6172 57.2549C43.8359 57.3486 44.082 57.3955 44.3554 57.3955C44.6328 57.3955 44.8672 57.3564 45.0586 57.2783C45.25 57.2002 45.4101 57.1006 45.539 56.9795C45.6679 56.8584 45.7715 56.7236 45.8496 56.5752C45.9316 56.4268 46 56.2803 46.0547 56.1357H47.1035ZM46.0898 54.5186C46.082 54.2139 46.0351 53.9424 45.9492 53.7041C45.8672 53.4658 45.75 53.2666 45.5976 53.1064C45.4492 52.9424 45.2695 52.8193 45.0586 52.7373C44.8476 52.6514 44.6133 52.6084 44.3554 52.6084C44.1093 52.6084 43.8828 52.6572 43.6758 52.7549C43.4687 52.8486 43.2871 52.9814 43.1308 53.1533C42.9746 53.3213 42.8496 53.5225 42.7558 53.7568C42.6621 53.9873 42.6054 54.2412 42.5859 54.5186H46.0898ZM48.4394 51.8643H51.1113C51.8769 51.8643 52.4492 52.0068 52.8281 52.292C53.2109 52.5771 53.4023 52.9912 53.4023 53.5342C53.4023 53.8232 53.332 54.0674 53.1914 54.2666C53.0508 54.4658 52.8652 54.6416 52.6347 54.7939C52.9668 54.9189 53.2304 55.0986 53.4258 55.333C53.6211 55.5674 53.7187 55.8701 53.7187 56.2412C53.7187 56.5342 53.6699 56.7979 53.5722 57.0322C53.4746 57.2666 53.3261 57.4658 53.1269 57.6299C52.9277 57.7939 52.6738 57.9209 52.3652 58.0107C52.0605 58.0967 51.6992 58.1396 51.2812 58.1396H48.4394V51.8643ZM49.5175 57.2783H51.1582C51.4433 57.2783 51.6797 57.2568 51.8672 57.2139C52.0586 57.167 52.2109 57.1006 52.3242 57.0146C52.4375 56.9287 52.5175 56.8252 52.5644 56.7041C52.6113 56.583 52.6347 56.4463 52.6347 56.2939C52.6347 56.1416 52.6113 56.0049 52.5644 55.8838C52.5175 55.7588 52.4375 55.6553 52.3242 55.5732C52.2109 55.4873 52.0586 55.4229 51.8672 55.3799C51.6797 55.333 51.4433 55.3096 51.1582 55.3096H49.5175V57.2783ZM49.5175 54.5186H51.1465C51.5097 54.5186 51.7968 54.4463 52.0078 54.3018C52.2187 54.1572 52.3242 53.9326 52.3242 53.6279C52.3242 53.4561 52.2949 53.3135 52.2363 53.2002C52.1777 53.083 52.0996 52.9893 52.0019 52.9189C51.9043 52.8486 51.7929 52.7998 51.6679 52.7725C51.5468 52.7412 51.4218 52.7256 51.2929 52.7256H49.5175V54.5186ZM59.9472 55.9307C59.9316 56.083 59.9004 56.249 59.8535 56.4287C59.8105 56.6084 59.7461 56.7881 59.6601 56.9678C59.5742 57.1436 59.4629 57.3135 59.3261 57.4775C59.1933 57.6416 59.0293 57.7881 58.834 57.917C58.6425 58.042 58.416 58.1416 58.1543 58.2158C57.8925 58.2939 57.5937 58.333 57.2578 58.333C57.0742 58.333 56.8808 58.3096 56.6777 58.2627C56.4746 58.2197 56.2754 58.1455 56.08 58.04C55.8886 57.9346 55.705 57.7998 55.5293 57.6357C55.3574 57.4678 55.205 57.2607 55.0722 57.0146C54.9433 56.7686 54.8398 56.4834 54.7617 56.1592C54.6836 55.8311 54.6445 55.4561 54.6445 55.0342C54.6445 54.5146 54.7187 54.0479 54.8672 53.6338C55.0156 53.2158 55.2129 52.8623 55.459 52.5732C55.709 52.2842 55.998 52.0615 56.3261 51.9053C56.6582 51.749 57.0058 51.6709 57.3691 51.6709C57.6972 51.6709 57.9863 51.7061 58.2363 51.7764C58.4902 51.8467 58.7109 51.9404 58.8984 52.0576C59.0859 52.1748 59.2441 52.3115 59.373 52.4678C59.5019 52.6201 59.6054 52.7822 59.6836 52.9541C59.7656 53.1221 59.8261 53.2939 59.8652 53.4697C59.9082 53.6455 59.9355 53.8135 59.9472 53.9736H58.9394C58.8847 53.5479 58.7363 53.2139 58.4941 52.9717C58.2558 52.7295 57.9199 52.6084 57.4863 52.6084C57.1894 52.6084 56.9297 52.6689 56.707 52.79C56.4883 52.9111 56.3047 53.0811 56.1562 53.2998C56.0117 53.5146 55.9023 53.7764 55.8281 54.085C55.7578 54.3896 55.7226 54.7256 55.7226 55.0928C55.7226 55.5068 55.7617 55.8643 55.8398 56.165C55.9179 56.4619 56.0293 56.708 56.1738 56.9033C56.3183 57.0947 56.4941 57.2373 56.7011 57.3311C56.9121 57.4209 57.1504 57.4658 57.416 57.4658C57.6035 57.4658 57.7812 57.4326 57.9492 57.3662C58.1172 57.2959 58.2675 57.1963 58.4004 57.0674C58.5332 56.9346 58.6465 56.7725 58.7402 56.5811C58.834 56.3896 58.9004 56.1729 58.9394 55.9307H59.9472ZM61.0136 51.8643H62.0918V54.8994L65.2617 51.8643H66.6738L63.7265 54.6357L66.7207 58.1396H65.332L62.8828 55.292L62.0918 55.9541V58.1396H61.0136V51.8643ZM67.5879 51.8643H68.666V56.6748H68.6894L71.7715 51.8643H73.0078V58.1396H71.9238V53.3291H71.9004L68.8242 58.1396H67.5879V51.8643ZM76.289 49.4268C76.3398 49.6768 76.4453 49.876 76.6054 50.0244C76.7656 50.1689 77.0019 50.2412 77.3144 50.2412C77.6308 50.2412 77.8691 50.1709 78.0293 50.0303C78.1894 49.8857 78.2929 49.6846 78.3398 49.4268H79.3418C79.3379 49.6611 79.2871 49.874 79.1894 50.0654C79.0918 50.2529 78.9531 50.4131 78.7734 50.5459C78.5976 50.6787 78.3847 50.7822 78.1347 50.8564C77.8886 50.9268 77.6152 50.9619 77.3144 50.9619C77.0136 50.9619 76.7402 50.9268 76.4941 50.8564C76.248 50.7861 76.0371 50.6846 75.8613 50.5518C75.6855 50.4189 75.5468 50.2588 75.4453 50.0713C75.3476 49.8799 75.2968 49.665 75.2929 49.4268H76.289ZM74.5957 51.8643H75.6738V56.6748H75.6972L78.7793 51.8643H80.0156V58.1396H78.9316V53.3291H78.9082L75.832 58.1396H74.5957V51.8643ZM89.8769 55.9307C89.8613 56.083 89.83 56.249 89.7832 56.4287C89.7402 56.6084 89.6758 56.7881 89.5898 56.9678C89.5039 57.1436 89.3925 57.3135 89.2558 57.4775C89.123 57.6416 88.959 57.7881 88.7636 57.917C88.5722 58.042 88.3457 58.1416 88.084 58.2158C87.8222 58.2939 87.5234 58.333 87.1875 58.333C87.0039 58.333 86.8105 58.3096 86.6074 58.2627C86.4043 58.2197 86.205 58.1455 86.0097 58.04C85.8183 57.9346 85.6347 57.7998 85.459 57.6357C85.2871 57.4678 85.1347 57.2607 85.0019 57.0146C84.873 56.7686 84.7695 56.4834 84.6914 56.1592C84.6133 55.8311 84.5742 55.4561 84.5742 55.0342C84.5742 54.5146 84.6484 54.0479 84.7968 53.6338C84.9453 53.2158 85.1425 52.8623 85.3886 52.5732C85.6386 52.2842 85.9277 52.0615 86.2558 51.9053C86.5879 51.749 86.9355 51.6709 87.2988 51.6709C87.6269 51.6709 87.916 51.7061 88.166 51.7764C88.4199 51.8467 88.6406 51.9404 88.8281 52.0576C89.0156 52.1748 89.1738 52.3115 89.3027 52.4678C89.4316 52.6201 89.5351 52.7822 89.6133 52.9541C89.6953 53.1221 89.7558 53.2939 89.7949 53.4697C89.8379 53.6455 89.8652 53.8135 89.8769 53.9736H88.8691C88.8144 53.5479 88.666 53.2139 88.4238 52.9717C88.1855 52.7295 87.8496 52.6084 87.416 52.6084C87.1191 52.6084 86.8593 52.6689 86.6367 52.79C86.4179 52.9111 86.2343 53.0811 86.0859 53.2998C85.9414 53.5146 85.832 53.7764 85.7578 54.085C85.6875 54.3896 85.6523 54.7256 85.6523 55.0928C85.6523 55.5068 85.6914 55.8643 85.7695 56.165C85.8476 56.4619 85.959 56.708 86.1035 56.9033C86.248 57.0947 86.4238 57.2373 86.6308 57.3311C86.8418 57.4209 87.08 57.4658 87.3457 57.4658C87.5332 57.4658 87.7109 57.4326 87.8789 57.3662C88.0468 57.2959 88.1972 57.1963 88.33 57.0674C88.4629 56.9346 88.5761 56.7725 88.6699 56.5811C88.7636 56.3896 88.83 56.1729 88.8691 55.9307H89.8769ZM90.9316 53.7451C90.9433 53.3623 91.0156 53.04 91.1484 52.7783C91.2812 52.5127 91.4609 52.2979 91.6875 52.1338C91.914 51.9697 92.1816 51.8525 92.4902 51.7822C92.8027 51.708 93.1425 51.6709 93.5097 51.6709C93.8144 51.6709 94.1093 51.7021 94.3945 51.7646C94.6836 51.8271 94.9394 51.9287 95.1621 52.0693C95.3847 52.2061 95.5625 52.3857 95.6953 52.6084C95.832 52.8271 95.9004 53.0947 95.9004 53.4111V57.0615C95.9004 57.1631 95.9277 57.251 95.9824 57.3252C96.0371 57.3955 96.125 57.4307 96.2461 57.4307C96.3008 57.4307 96.3574 57.4268 96.416 57.4189C96.4746 57.4072 96.5351 57.3955 96.5976 57.3838V58.1279C96.5078 58.1514 96.4179 58.1729 96.3281 58.1924C96.2422 58.2119 96.1386 58.2217 96.0175 58.2217C95.83 58.2217 95.6679 58.2061 95.5312 58.1748C95.3984 58.1436 95.2851 58.0928 95.1914 58.0225C95.1015 57.9482 95.0312 57.8545 94.9804 57.7412C94.9297 57.624 94.8965 57.4814 94.8808 57.3135C94.748 57.458 94.6074 57.5928 94.459 57.7178C94.3105 57.8389 94.1445 57.9463 93.9609 58.04C93.7773 58.1299 93.5722 58.2002 93.3457 58.251C93.1191 58.3057 92.8633 58.333 92.5781 58.333C92.3359 58.333 92.0996 58.2939 91.8691 58.2158C91.6425 58.1377 91.4375 58.0225 91.2539 57.8701C91.0742 57.7178 90.9297 57.5303 90.8203 57.3076C90.7109 57.0811 90.6562 56.8193 90.6562 56.5225C90.6562 56.1982 90.7109 55.9189 90.8203 55.6846C90.9297 55.4463 91.0722 55.249 91.248 55.0928C91.4238 54.9326 91.625 54.8096 91.8515 54.7236C92.0781 54.6377 92.3086 54.5811 92.5429 54.5537L94.3066 54.3369C94.4746 54.3174 94.6054 54.2529 94.6992 54.1436C94.7968 54.0303 94.8457 53.8506 94.8457 53.6045C94.8457 53.2256 94.7207 52.9541 94.4707 52.79C94.2246 52.6221 93.8691 52.5381 93.4043 52.5381C92.9277 52.5381 92.5722 52.6396 92.3379 52.8428C92.1035 53.042 91.9707 53.3428 91.9394 53.7451H90.9316ZM94.8222 54.9463C94.7363 55.0088 94.6289 55.0615 94.5 55.1045C94.375 55.1436 94.2363 55.1768 94.084 55.2041C93.9316 55.2314 93.7695 55.2568 93.5976 55.2803C93.4258 55.2998 93.2539 55.3213 93.082 55.3447C92.8867 55.3721 92.707 55.4111 92.5429 55.4619C92.3789 55.5127 92.2363 55.5791 92.1152 55.6611C91.9941 55.7432 91.9004 55.8428 91.834 55.96C91.7675 56.0732 91.7343 56.208 91.7343 56.3643C91.7343 56.5439 91.7617 56.7021 91.8164 56.8389C91.875 56.9756 91.9531 57.0908 92.0508 57.1846C92.1523 57.2783 92.2734 57.3486 92.414 57.3955C92.5547 57.4424 92.709 57.4658 92.8769 57.4658C92.9824 57.4658 93.1035 57.4541 93.2402 57.4307C93.3769 57.4033 93.5175 57.3643 93.6621 57.3135C93.8066 57.2627 93.9472 57.1982 94.084 57.1201C94.2246 57.0381 94.3496 56.9404 94.459 56.8271C94.5683 56.7139 94.6562 56.585 94.7226 56.4404C94.789 56.2959 94.8222 56.1338 94.8222 55.9541V54.9463ZM102.855 58.1396H98.0039V59.6748H96.9961V57.2021H97.8222C97.9941 56.7803 98.1308 56.3506 98.2324 55.9131C98.334 55.4717 98.4121 55.0283 98.4668 54.583C98.5215 54.1338 98.5566 53.6826 98.5722 53.2295C98.5879 52.7764 98.5957 52.3213 98.5957 51.8643H102.978V57.2021H103.863V59.6748H102.855V58.1396ZM101.9 57.2021V52.8018H99.6269C99.5996 53.1572 99.5703 53.5225 99.539 53.8975C99.5117 54.2725 99.4726 54.6494 99.4218 55.0283C99.375 55.4033 99.3105 55.7744 99.2285 56.1416C99.1504 56.5088 99.0468 56.8623 98.9179 57.2021H101.9Z" fill="#636363"/>
<path d="M68.5 22.8899C68.5 35.2109 59.1783 45.1399 47.75 45.1399C36.3216 45.1399 27 35.2109 27 22.8899C27 10.5689 36.3216 0.639893 47.75 0.639893C59.1783 0.639893 68.5 10.5689 68.5 22.8899Z" stroke="#A58C75"/>
<path d="M40.5 18.6396V41.8896" stroke="#575359"/>
<path d="M52.5 25.6396L52.5 42.1396" stroke="#575359"/>
<path d="M52.75 30.6396L55 28.3896" stroke="#575359"/>
<path d="M47.7664 15.4962C49.483 14.7274 51.3852 14.4715 53.2438 14.7594C55.1025 15.0472 56.8382 15.8665 58.2418 17.1185C59.6454 18.3705 60.6569 20.0017 61.1544 21.8155C61.6519 23.6293 61.6142 25.5483 61.0458 27.3411C60.4773 29.134 59.4025 30.7242 57.9508 31.92C56.4991 33.1159 54.7325 33.8663 52.864 34.0809C50.9955 34.2954 49.1048 33.965 47.4198 33.1294C45.7348 32.2937 44.3275 30.9886 43.3675 29.3712" stroke="#575359"/>
<path d="M48 17.8899C48 21.3345 47.1503 24.429 45.8028 26.6458C44.4499 28.8716 42.6487 30.1399 40.75 30.1399C38.8513 30.1399 37.0501 28.8716 35.6972 26.6458C34.3497 24.429 33.5 21.3345 33.5 17.8899C33.5 14.4453 34.3497 11.3508 35.6972 9.13399C37.0501 6.90819 38.8513 5.63989 40.75 5.63989C42.6487 5.63989 44.4499 6.90819 45.8028 9.13399C47.1503 11.3508 48 14.4453 48 17.8899Z" stroke="#575359"/>
</svg>
