<svg width="80" height="75" viewBox="0 0 80 75" fill="none" xmlns="http://www.w3.org/2000/svg">
<path d="M0.162354 49.5264H1.31079V56.4932H1.33423L5.71704 49.5264H7.04712V58.1396H5.89282V51.1318H5.86938L1.49243 58.1396H0.162354V49.5264ZM13.6682 55.9307C13.6526 56.083 13.6213 56.249 13.5745 56.4287C13.5315 56.6084 13.467 56.7881 13.3811 56.9678C13.2952 57.1436 13.1838 57.3135 13.0471 57.4775C12.9143 57.6416 12.7502 57.7881 12.5549 57.917C12.3635 58.042 12.137 58.1416 11.8752 58.2158C11.6135 58.2939 11.3147 58.333 10.9788 58.333C10.7952 58.333 10.6018 58.3096 10.3987 58.2627C10.1956 58.2197 9.99634 58.1455 9.80103 58.04C9.60962 57.9346 9.42603 57.7998 9.25024 57.6357C9.07837 57.4678 8.92603 57.2607 8.79321 57.0146C8.66431 56.7686 8.56079 56.4834 8.48267 56.1592C8.40454 55.8311 8.36548 55.4561 8.36548 55.0342C8.36548 54.5146 8.4397 54.0479 8.58813 53.6338C8.73657 53.2158 8.93384 52.8623 9.17993 52.5732C9.42993 52.2842 9.71899 52.0615 10.0471 51.9053C10.3792 51.749 10.7268 51.6709 11.0901 51.6709C11.4182 51.6709 11.7073 51.7061 11.9573 51.7764C12.2112 51.8467 12.4319 51.9404 12.6194 52.0576C12.8069 52.1748 12.9651 52.3115 13.094 52.4678C13.2229 52.6201 13.3264 52.7822 13.4045 52.9541C13.4866 53.1221 13.5471 53.2939 13.5862 53.4697C13.6292 53.6455 13.6565 53.8135 13.6682 53.9736H12.6604C12.6057 53.5479 12.4573 53.2139 12.2151 52.9717C11.9768 52.7295 11.6409 52.6084 11.2073 52.6084C10.9104 52.6084 10.6506 52.6689 10.428 52.79C10.2092 52.9111 10.0256 53.0811 9.8772 53.2998C9.73267 53.5146 9.62329 53.7764 9.54907 54.085C9.47876 54.3896 9.4436 54.7256 9.4436 55.0928C9.4436 55.5068 9.48267 55.8643 9.56079 56.165C9.63892 56.4619 9.75024 56.708 9.89478 56.9033C10.0393 57.0947 10.2151 57.2373 10.4221 57.3311C10.6331 57.4209 10.8713 57.4658 11.137 57.4658C11.3245 57.4658 11.5022 57.4326 11.6702 57.3662C11.8381 57.2959 11.9885 57.1963 12.1213 57.0674C12.2542 56.9346 12.3674 56.7725 12.4612 56.5811C12.5549 56.3896 12.6213 56.1729 12.6604 55.9307H13.6682ZM14.7229 53.7451C14.7346 53.3623 14.8069 53.04 14.9397 52.7783C15.0725 52.5127 15.2522 52.2979 15.4788 52.1338C15.7053 51.9697 15.9729 51.8525 16.2815 51.7822C16.594 51.708 16.9338 51.6709 17.301 51.6709C17.6057 51.6709 17.9006 51.7021 18.1858 51.7646C18.4749 51.8271 18.7307 51.9287 18.9534 52.0693C19.176 52.2061 19.3538 52.3857 19.4866 52.6084C19.6233 52.8271 19.6917 53.0947 19.6917 53.4111V57.0615C19.6917 57.1631 19.719 57.251 19.7737 57.3252C19.8284 57.3955 19.9163 57.4307 20.0374 57.4307C20.092 57.4307 20.1487 57.4268 20.2073 57.4189C20.2659 57.4072 20.3264 57.3955 20.3889 57.3838V58.1279C20.2991 58.1514 20.2092 58.1729 20.1194 58.1924C20.0334 58.2119 19.9299 58.2217 19.8088 58.2217C19.6213 58.2217 19.4592 58.2061 19.3225 58.1748C19.1897 58.1436 19.0764 58.0928 18.9827 58.0225C18.8928 57.9482 18.8225 57.8545 18.7717 57.7412C18.7209 57.624 18.6877 57.4814 18.6721 57.3135C18.5393 57.458 18.3987 57.5928 18.2502 57.7178C18.1018 57.8389 17.9358 57.9463 17.7522 58.04C17.5686 58.1299 17.3635 58.2002 17.137 58.251C16.9104 58.3057 16.6545 58.333 16.3694 58.333C16.1272 58.333 15.8909 58.2939 15.6604 58.2158C15.4338 58.1377 15.2288 58.0225 15.0452 57.8701C14.8655 57.7178 14.7209 57.5303 14.6116 57.3076C14.5022 57.0811 14.4475 56.8193 14.4475 56.5225C14.4475 56.1982 14.5022 55.9189 14.6116 55.6846C14.7209 55.4463 14.8635 55.249 15.0393 55.0928C15.2151 54.9326 15.4163 54.8096 15.6428 54.7236C15.8694 54.6377 16.0999 54.5811 16.3342 54.5537L18.0979 54.3369C18.2659 54.3174 18.3967 54.2529 18.4905 54.1436C18.5881 54.0303 18.637 53.8506 18.637 53.6045C18.637 53.2256 18.512 52.9541 18.262 52.79C18.0159 52.6221 17.6604 52.5381 17.1956 52.5381C16.719 52.5381 16.3635 52.6396 16.1292 52.8428C15.8948 53.042 15.762 53.3428 15.7307 53.7451H14.7229ZM18.6135 54.9463C18.5276 55.0088 18.4202 55.0615 18.2913 55.1045C18.1663 55.1436 18.0276 55.1768 17.8752 55.2041C17.7229 55.2314 17.5608 55.2568 17.3889 55.2803C17.217 55.2998 17.0452 55.3213 16.8733 55.3447C16.678 55.3721 16.4983 55.4111 16.3342 55.4619C16.1702 55.5127 16.0276 55.5791 15.9065 55.6611C15.7854 55.7432 15.6917 55.8428 15.6252 55.96C15.5588 56.0732 15.5256 56.208 15.5256 56.3643C15.5256 56.5439 15.553 56.7021 15.6077 56.8389C15.6663 56.9756 15.7444 57.0908 15.842 57.1846C15.9436 57.2783 16.0647 57.3486 16.2053 57.3955C16.3459 57.4424 16.5002 57.4658 16.6682 57.4658C16.7737 57.4658 16.8948 57.4541 17.0315 57.4307C17.1682 57.4033 17.3088 57.3643 17.4534 57.3135C17.5979 57.2627 17.7385 57.1982 17.8752 57.1201C18.0159 57.0381 18.1409 56.9404 18.2502 56.8271C18.3596 56.7139 18.4475 56.585 18.5139 56.4404C18.5803 56.2959 18.6135 56.1338 18.6135 55.9541V54.9463ZM21.4026 53.7451C21.4143 53.3623 21.4866 53.04 21.6194 52.7783C21.7522 52.5127 21.9319 52.2979 22.1584 52.1338C22.385 51.9697 22.6526 51.8525 22.9612 51.7822C23.2737 51.708 23.6135 51.6709 23.9807 51.6709C24.2854 51.6709 24.5803 51.7021 24.8655 51.7646C25.1545 51.8271 25.4104 51.9287 25.6331 52.0693C25.8557 52.2061 26.0334 52.3857 26.1663 52.6084C26.303 52.8271 26.3713 53.0947 26.3713 53.4111V57.0615C26.3713 57.1631 26.3987 57.251 26.4534 57.3252C26.5081 57.3955 26.5959 57.4307 26.717 57.4307C26.7717 57.4307 26.8284 57.4268 26.887 57.4189C26.9456 57.4072 27.0061 57.3955 27.0686 57.3838V58.1279C26.9788 58.1514 26.8889 58.1729 26.7991 58.1924C26.7131 58.2119 26.6096 58.2217 26.4885 58.2217C26.301 58.2217 26.1389 58.2061 26.0022 58.1748C25.8694 58.1436 25.7561 58.0928 25.6624 58.0225C25.5725 57.9482 25.5022 57.8545 25.4514 57.7412C25.4006 57.624 25.3674 57.4814 25.3518 57.3135C25.219 57.458 25.0784 57.5928 24.9299 57.7178C24.7815 57.8389 24.6155 57.9463 24.4319 58.04C24.2483 58.1299 24.0432 58.2002 23.8167 58.251C23.5901 58.3057 23.3342 58.333 23.0491 58.333C22.8069 58.333 22.5706 58.2939 22.3401 58.2158C22.1135 58.1377 21.9084 58.0225 21.7249 57.8701C21.5452 57.7178 21.4006 57.5303 21.2913 57.3076C21.1819 57.0811 21.1272 56.8193 21.1272 56.5225C21.1272 56.1982 21.1819 55.9189 21.2913 55.6846C21.4006 55.4463 21.5432 55.249 21.719 55.0928C21.8948 54.9326 22.0959 54.8096 22.3225 54.7236C22.5491 54.6377 22.7795 54.5811 23.0139 54.5537L24.7776 54.3369C24.9456 54.3174 25.0764 54.2529 25.1702 54.1436C25.2678 54.0303 25.3167 53.8506 25.3167 53.6045C25.3167 53.2256 25.1917 52.9541 24.9417 52.79C24.6956 52.6221 24.3401 52.5381 23.8752 52.5381C23.3987 52.5381 23.0432 52.6396 22.8088 52.8428C22.5745 53.042 22.4417 53.3428 22.4104 53.7451H21.4026ZM25.2932 54.9463C25.2073 55.0088 25.0999 55.0615 24.9709 55.1045C24.8459 55.1436 24.7073 55.1768 24.5549 55.2041C24.4026 55.2314 24.2405 55.2568 24.0686 55.2803C23.8967 55.2998 23.7249 55.3213 23.553 55.3447C23.3577 55.3721 23.178 55.4111 23.0139 55.4619C22.8499 55.5127 22.7073 55.5791 22.5862 55.6611C22.4651 55.7432 22.3713 55.8428 22.3049 55.96C22.2385 56.0732 22.2053 56.208 22.2053 56.3643C22.2053 56.5439 22.2327 56.7021 22.2874 56.8389C22.3459 56.9756 22.4241 57.0908 22.5217 57.1846C22.6233 57.2783 22.7444 57.3486 22.885 57.3955C23.0256 57.4424 23.1799 57.4658 23.3479 57.4658C23.4534 57.4658 23.5745 57.4541 23.7112 57.4307C23.8479 57.4033 23.9885 57.3643 24.1331 57.3135C24.2776 57.2627 24.4182 57.1982 24.5549 57.1201C24.6956 57.0381 24.8206 56.9404 24.9299 56.8271C25.0393 56.7139 25.1272 56.585 25.1936 56.4404C25.26 56.2959 25.2932 56.1338 25.2932 55.9541V54.9463ZM28.094 51.8643H29.1721V54.8994L32.342 51.8643H33.7542L30.8069 54.6357L33.801 58.1396H32.4124L29.9631 55.292L29.1721 55.9541V58.1396H28.094V51.8643ZM34.6682 51.8643H35.7463V56.6748H35.7698L38.8518 51.8643H40.0881V58.1396H39.0042V53.3291H38.9807L35.9045 58.1396H34.6682V51.8643ZM47.0198 56.1357C46.9768 56.4092 46.8831 56.6768 46.7385 56.9385C46.594 57.2002 46.4045 57.4346 46.1702 57.6416C45.9358 57.8486 45.6584 58.0146 45.3381 58.1396C45.0217 58.2686 44.6702 58.333 44.2834 58.333C43.8616 58.333 43.4709 58.2646 43.1116 58.1279C42.7561 57.9873 42.4475 57.7783 42.1858 57.501C41.928 57.2197 41.7249 56.8682 41.5764 56.4463C41.428 56.0244 41.3538 55.5283 41.3538 54.958C41.3538 54.5752 41.3948 54.2295 41.4768 53.9209C41.5627 53.6084 41.676 53.3311 41.8167 53.0889C41.9612 52.8428 42.1272 52.6318 42.3147 52.4561C42.5022 52.2764 42.6995 52.1299 42.9065 52.0166C43.1174 51.8994 43.3323 51.8135 43.551 51.7588C43.7698 51.7002 43.9807 51.6709 44.1838 51.6709C44.6135 51.6709 45.0061 51.7354 45.3616 51.8643C45.717 51.9932 46.0217 52.1904 46.2756 52.4561C46.5334 52.7178 46.7327 53.0479 46.8733 53.4463C47.0178 53.8408 47.0901 54.3057 47.0901 54.8408V55.3799H42.5022C42.5061 55.6846 42.5491 55.9619 42.6311 56.2119C42.7131 56.458 42.8303 56.6689 42.9827 56.8447C43.135 57.0205 43.3186 57.1572 43.5334 57.2549C43.7522 57.3486 43.9983 57.3955 44.2717 57.3955C44.5491 57.3955 44.7834 57.3564 44.9749 57.2783C45.1663 57.2002 45.3264 57.1006 45.4553 56.9795C45.5842 56.8584 45.6877 56.7236 45.7659 56.5752C45.8479 56.4268 45.9163 56.2803 45.9709 56.1357H47.0198ZM46.0061 54.5186C45.9983 54.2139 45.9514 53.9424 45.8655 53.7041C45.7834 53.4658 45.6663 53.2666 45.5139 53.1064C45.3655 52.9424 45.1858 52.8193 44.9749 52.7373C44.7639 52.6514 44.5295 52.6084 44.2717 52.6084C44.0256 52.6084 43.7991 52.6572 43.592 52.7549C43.385 52.8486 43.2034 52.9814 43.0471 53.1533C42.8909 53.3213 42.7659 53.5225 42.6721 53.7568C42.5784 53.9873 42.5217 54.2412 42.5022 54.5186H46.0061ZM48.3557 51.8643H51.0276C51.7932 51.8643 52.3655 52.0068 52.7444 52.292C53.1272 52.5771 53.3186 52.9912 53.3186 53.5342C53.3186 53.8232 53.2483 54.0674 53.1077 54.2666C52.967 54.4658 52.7815 54.6416 52.551 54.7939C52.8831 54.9189 53.1467 55.0986 53.342 55.333C53.5374 55.5674 53.635 55.8701 53.635 56.2412C53.635 56.5342 53.5862 56.7979 53.4885 57.0322C53.3909 57.2666 53.2424 57.4658 53.0432 57.6299C52.844 57.7939 52.5901 57.9209 52.2815 58.0107C51.9768 58.0967 51.6155 58.1396 51.1975 58.1396H48.3557V51.8643ZM49.4338 57.2783H51.0745C51.3596 57.2783 51.5959 57.2568 51.7834 57.2139C51.9749 57.167 52.1272 57.1006 52.2405 57.0146C52.3538 56.9287 52.4338 56.8252 52.4807 56.7041C52.5276 56.583 52.551 56.4463 52.551 56.2939C52.551 56.1416 52.5276 56.0049 52.4807 55.8838C52.4338 55.7588 52.3538 55.6553 52.2405 55.5732C52.1272 55.4873 51.9749 55.4229 51.7834 55.3799C51.5959 55.333 51.3596 55.3096 51.0745 55.3096H49.4338V57.2783ZM49.4338 54.5186H51.0627C51.426 54.5186 51.7131 54.4463 51.9241 54.3018C52.135 54.1572 52.2405 53.9326 52.2405 53.6279C52.2405 53.4561 52.2112 53.3135 52.1526 53.2002C52.094 53.083 52.0159 52.9893 51.9182 52.9189C51.8206 52.8486 51.7092 52.7998 51.5842 52.7725C51.4631 52.7412 51.3381 52.7256 51.2092 52.7256H49.4338V54.5186ZM59.8635 55.9307C59.8479 56.083 59.8167 56.249 59.7698 56.4287C59.7268 56.6084 59.6624 56.7881 59.5764 56.9678C59.4905 57.1436 59.3792 57.3135 59.2424 57.4775C59.1096 57.6416 58.9456 57.7881 58.7502 57.917C58.5588 58.042 58.3323 58.1416 58.0706 58.2158C57.8088 58.2939 57.51 58.333 57.1741 58.333C56.9905 58.333 56.7971 58.3096 56.594 58.2627C56.3909 58.2197 56.1917 58.1455 55.9963 58.04C55.8049 57.9346 55.6213 57.7998 55.4456 57.6357C55.2737 57.4678 55.1213 57.2607 54.9885 57.0146C54.8596 56.7686 54.7561 56.4834 54.678 56.1592C54.5999 55.8311 54.5608 55.4561 54.5608 55.0342C54.5608 54.5146 54.635 54.0479 54.7834 53.6338C54.9319 53.2158 55.1292 52.8623 55.3752 52.5732C55.6252 52.2842 55.9143 52.0615 56.2424 51.9053C56.5745 51.749 56.9221 51.6709 57.2854 51.6709C57.6135 51.6709 57.9026 51.7061 58.1526 51.7764C58.4065 51.8467 58.6272 51.9404 58.8147 52.0576C59.0022 52.1748 59.1604 52.3115 59.2893 52.4678C59.4182 52.6201 59.5217 52.7822 59.5999 52.9541C59.6819 53.1221 59.7424 53.2939 59.7815 53.4697C59.8245 53.6455 59.8518 53.8135 59.8635 53.9736H58.8557C58.801 53.5479 58.6526 53.2139 58.4104 52.9717C58.1721 52.7295 57.8362 52.6084 57.4026 52.6084C57.1057 52.6084 56.8459 52.6689 56.6233 52.79C56.4045 52.9111 56.2209 53.0811 56.0725 53.2998C55.928 53.5146 55.8186 53.7764 55.7444 54.085C55.6741 54.3896 55.6389 54.7256 55.6389 55.0928C55.6389 55.5068 55.678 55.8643 55.7561 56.165C55.8342 56.4619 55.9456 56.708 56.0901 56.9033C56.2346 57.0947 56.4104 57.2373 56.6174 57.3311C56.8284 57.4209 57.0667 57.4658 57.3323 57.4658C57.5198 57.4658 57.6975 57.4326 57.8655 57.3662C58.0334 57.2959 58.1838 57.1963 58.3167 57.0674C58.4495 56.9346 58.5627 56.7725 58.6565 56.5811C58.7502 56.3896 58.8167 56.1729 58.8557 55.9307H59.8635ZM60.9299 51.8643H62.0081V54.8994L65.178 51.8643H66.5901L63.6428 54.6357L66.637 58.1396H65.2483L62.7991 55.292L62.0081 55.9541V58.1396H60.9299V51.8643ZM67.5042 51.8643H68.5823V56.6748H68.6057L71.6877 51.8643H72.9241V58.1396H71.8401V53.3291H71.8167L68.7405 58.1396H67.5042V51.8643ZM76.2053 49.4268C76.2561 49.6768 76.3616 49.876 76.5217 50.0244C76.6819 50.1689 76.9182 50.2412 77.2307 50.2412C77.5471 50.2412 77.7854 50.1709 77.9456 50.0303C78.1057 49.8857 78.2092 49.6846 78.2561 49.4268H79.2581C79.2542 49.6611 79.2034 49.874 79.1057 50.0654C79.0081 50.2529 78.8694 50.4131 78.6897 50.5459C78.5139 50.6787 78.301 50.7822 78.051 50.8564C77.8049 50.9268 77.5315 50.9619 77.2307 50.9619C76.9299 50.9619 76.6565 50.9268 76.4104 50.8564C76.1643 50.7861 75.9534 50.6846 75.7776 50.5518C75.6018 50.4189 75.4631 50.2588 75.3616 50.0713C75.2639 49.8799 75.2131 49.665 75.2092 49.4268H76.2053ZM74.512 51.8643H75.5901V56.6748H75.6135L78.6956 51.8643H79.9319V58.1396H78.8479V53.3291H78.8245L75.7483 58.1396H74.512V51.8643ZM29.3655 69.9307C29.3499 70.083 29.3186 70.249 29.2717 70.4287C29.2288 70.6084 29.1643 70.7881 29.0784 70.9678C28.9924 71.1436 28.8811 71.3135 28.7444 71.4775C28.6116 71.6416 28.4475 71.7881 28.2522 71.917C28.0608 72.042 27.8342 72.1416 27.5725 72.2158C27.3108 72.2939 27.012 72.333 26.676 72.333C26.4924 72.333 26.2991 72.3096 26.0959 72.2627C25.8928 72.2197 25.6936 72.1455 25.4983 72.04C25.3069 71.9346 25.1233 71.7998 24.9475 71.6357C24.7756 71.4678 24.6233 71.2607 24.4905 71.0146C24.3616 70.7686 24.2581 70.4834 24.1799 70.1592C24.1018 69.8311 24.0627 69.4561 24.0627 69.0342C24.0627 68.5146 24.137 68.0479 24.2854 67.6338C24.4338 67.2158 24.6311 66.8623 24.8772 66.5732C25.1272 66.2842 25.4163 66.0615 25.7444 65.9053C26.0764 65.749 26.4241 65.6709 26.7874 65.6709C27.1155 65.6709 27.4045 65.7061 27.6545 65.7764C27.9084 65.8467 28.1292 65.9404 28.3167 66.0576C28.5042 66.1748 28.6624 66.3115 28.7913 66.4678C28.9202 66.6201 29.0237 66.7822 29.1018 66.9541C29.1838 67.1221 29.2444 67.2939 29.2834 67.4697C29.3264 67.6455 29.3538 67.8135 29.3655 67.9736H28.3577C28.303 67.5479 28.1545 67.2139 27.9124 66.9717C27.6741 66.7295 27.3381 66.6084 26.9045 66.6084C26.6077 66.6084 26.3479 66.6689 26.1252 66.79C25.9065 66.9111 25.7229 67.0811 25.5745 67.2998C25.4299 67.5146 25.3206 67.7764 25.2463 68.085C25.176 68.3896 25.1409 68.7256 25.1409 69.0928C25.1409 69.5068 25.1799 69.8643 25.2581 70.165C25.3362 70.4619 25.4475 70.708 25.592 70.9033C25.7366 71.0947 25.9124 71.2373 26.1194 71.3311C26.3303 71.4209 26.5686 71.4658 26.8342 71.4658C27.0217 71.4658 27.1995 71.4326 27.3674 71.3662C27.5354 71.2959 27.6858 71.1963 27.8186 71.0674C27.9514 70.9346 28.0647 70.7725 28.1584 70.5811C28.2522 70.3896 28.3186 70.1729 28.3577 69.9307H29.3655ZM34.8147 68.9932C34.8147 68.6455 34.7756 68.3271 34.6975 68.0381C34.6194 67.7451 34.5022 67.4932 34.3459 67.2822C34.1897 67.0713 33.9963 66.9072 33.7659 66.79C33.5393 66.6689 33.2756 66.6084 32.9749 66.6084C32.6741 66.6084 32.4104 66.6689 32.1838 66.79C31.9573 66.9072 31.7659 67.0713 31.6096 67.2822C31.4534 67.4932 31.3362 67.7451 31.2581 68.0381C31.1799 68.3271 31.1409 68.6455 31.1409 68.9932C31.1409 69.3447 31.1799 69.6689 31.2581 69.9658C31.3362 70.2588 31.4534 70.5107 31.6096 70.7217C31.7659 70.9326 31.9573 71.0986 32.1838 71.2197C32.4104 71.3369 32.6741 71.3955 32.9749 71.3955C33.2756 71.3955 33.5393 71.3369 33.7659 71.2197C33.9963 71.0986 34.1897 70.9326 34.3459 70.7217C34.5022 70.5107 34.6194 70.2588 34.6975 69.9658C34.7756 69.6689 34.8147 69.3447 34.8147 68.9932ZM35.8928 68.9932C35.8928 69.5088 35.8264 69.9736 35.6936 70.3877C35.5608 70.7979 35.3694 71.1475 35.1194 71.4365C34.8694 71.7256 34.5627 71.9482 34.1995 72.1045C33.8401 72.2568 33.4319 72.333 32.9749 72.333C32.5178 72.333 32.1096 72.2568 31.7502 72.1045C31.3909 71.9482 31.0862 71.7256 30.8362 71.4365C30.5862 71.1475 30.3948 70.7979 30.262 70.3877C30.1292 69.9736 30.0627 69.5088 30.0627 68.9932C30.0627 68.4854 30.1292 68.0264 30.262 67.6162C30.3948 67.2061 30.5862 66.8564 30.8362 66.5674C31.0862 66.2783 31.3909 66.0576 31.7502 65.9053C32.1096 65.749 32.5178 65.6709 32.9749 65.6709C33.4319 65.6709 33.8401 65.749 34.1995 65.9053C34.5627 66.0576 34.8694 66.2783 35.1194 66.5674C35.3694 66.8564 35.5608 67.2061 35.6936 67.6162C35.8264 68.0264 35.8928 68.4854 35.8928 68.9932ZM41.9866 63.4502C41.9788 63.5088 41.967 63.5811 41.9514 63.667C41.9397 63.749 41.9143 63.8369 41.8752 63.9307C41.8362 64.0244 41.7815 64.1201 41.7112 64.2178C41.6448 64.3115 41.5549 64.3994 41.4417 64.4814C41.3792 64.5244 41.3225 64.5615 41.2717 64.5928C41.2209 64.624 41.1565 64.6514 41.0784 64.6748C41.0002 64.6982 40.9006 64.7178 40.7795 64.7334C40.6584 64.749 40.4963 64.7588 40.2932 64.7627L39.8479 64.7744C39.5432 64.7822 39.2678 64.8447 39.0217 64.9619C38.7795 65.0752 38.5647 65.2354 38.3772 65.4424C38.1936 65.6455 38.0413 65.8916 37.9202 66.1807C37.7991 66.4697 37.7092 66.792 37.6506 67.1475C37.7327 66.9912 37.8342 66.8389 37.9553 66.6904C38.0764 66.5381 38.2268 66.4033 38.4065 66.2861C38.5862 66.165 38.7971 66.0693 39.0393 65.999C39.2815 65.9248 39.5627 65.8877 39.8831 65.8877C40.2463 65.8877 40.5901 65.9521 40.9143 66.0811C41.2424 66.21 41.5276 66.4033 41.7698 66.6611C42.0159 66.9189 42.2112 67.2393 42.3557 67.6221C42.5002 68.0049 42.5725 68.4502 42.5725 68.958C42.5725 69.1182 42.5608 69.3135 42.5374 69.5439C42.5139 69.7705 42.467 70.0088 42.3967 70.2588C42.3264 70.5088 42.2249 70.7588 42.092 71.0088C41.9631 71.2549 41.7893 71.4756 41.5706 71.6709C41.3557 71.8662 41.092 72.0244 40.7795 72.1455C40.4709 72.2705 40.0999 72.333 39.6663 72.333C39.4866 72.333 39.2952 72.3174 39.092 72.2861C38.8928 72.2588 38.6917 72.2061 38.4885 72.1279C38.2893 72.0498 38.094 71.9404 37.9026 71.7998C37.7151 71.6592 37.5432 71.4795 37.387 71.2607C37.3088 71.1514 37.2307 71.0264 37.1526 70.8857C37.0784 70.7412 37.01 70.5674 36.9475 70.3643C36.885 70.1611 36.8342 69.9209 36.7952 69.6436C36.76 69.3662 36.7424 69.0381 36.7424 68.6592C36.7424 68.4092 36.7542 68.126 36.7776 67.8096C36.801 67.4932 36.842 67.1709 36.9006 66.8428C36.9592 66.5146 37.0374 66.1982 37.135 65.8936C37.2327 65.585 37.3577 65.3154 37.51 65.085C37.6741 64.835 37.8459 64.6318 38.0256 64.4756C38.2053 64.3193 38.3967 64.1963 38.5999 64.1064C38.803 64.0166 39.0217 63.9521 39.2561 63.9131C39.4905 63.874 39.7444 63.8486 40.0178 63.8369L40.3987 63.8252C40.5237 63.8213 40.6292 63.8154 40.7151 63.8076C40.8049 63.7959 40.8792 63.7783 40.9377 63.7549C40.9963 63.7314 41.0432 63.6963 41.0784 63.6494C41.1135 63.6025 41.1428 63.5361 41.1663 63.4502H41.9866ZM37.8206 69.1162C37.8206 69.2334 37.8264 69.3721 37.8381 69.5322C37.8538 69.6924 37.8831 69.8604 37.926 70.0361C37.969 70.208 38.0315 70.3799 38.1135 70.5518C38.1956 70.7236 38.303 70.8779 38.4358 71.0146C38.5725 71.1475 38.7405 71.2568 38.9397 71.3428C39.1389 71.4248 39.3772 71.4658 39.6545 71.4658C39.9631 71.4658 40.2229 71.417 40.4338 71.3193C40.6448 71.2178 40.8186 71.0889 40.9553 70.9326C41.092 70.7725 41.1956 70.5967 41.2659 70.4053C41.3401 70.2139 41.3928 70.0283 41.4241 69.8486C41.4592 69.665 41.4788 69.499 41.4827 69.3506C41.4905 69.1982 41.4944 69.083 41.4944 69.0049C41.4944 68.7197 41.4612 68.4404 41.3948 68.167C41.3323 67.8936 41.2288 67.6514 41.0842 67.4404C40.9436 67.2295 40.7581 67.0596 40.5276 66.9307C40.301 66.8018 40.0217 66.7373 39.6897 66.7373C39.3655 66.7373 39.0862 66.8018 38.8518 66.9307C38.6174 67.0557 38.4241 67.2275 38.2717 67.4463C38.1194 67.6611 38.0061 67.9131 37.9319 68.2021C37.8577 68.4873 37.8206 68.792 37.8206 69.1162ZM48.1741 68.9932C48.1741 68.6455 48.135 68.3271 48.0569 68.0381C47.9788 67.7451 47.8616 67.4932 47.7053 67.2822C47.5491 67.0713 47.3557 66.9072 47.1252 66.79C46.8987 66.6689 46.635 66.6084 46.3342 66.6084C46.0334 66.6084 45.7698 66.6689 45.5432 66.79C45.3167 66.9072 45.1252 67.0713 44.969 67.2822C44.8127 67.4932 44.6956 67.7451 44.6174 68.0381C44.5393 68.3271 44.5002 68.6455 44.5002 68.9932C44.5002 69.3447 44.5393 69.6689 44.6174 69.9658C44.6956 70.2588 44.8127 70.5107 44.969 70.7217C45.1252 70.9326 45.3167 71.0986 45.5432 71.2197C45.7698 71.3369 46.0334 71.3955 46.3342 71.3955C46.635 71.3955 46.8987 71.3369 47.1252 71.2197C47.3557 71.0986 47.5491 70.9326 47.7053 70.7217C47.8616 70.5107 47.9788 70.2588 48.0569 69.9658C48.135 69.6689 48.1741 69.3447 48.1741 68.9932ZM49.2522 68.9932C49.2522 69.5088 49.1858 69.9736 49.053 70.3877C48.9202 70.7979 48.7288 71.1475 48.4788 71.4365C48.2288 71.7256 47.9221 71.9482 47.5588 72.1045C47.1995 72.2568 46.7913 72.333 46.3342 72.333C45.8772 72.333 45.469 72.2568 45.1096 72.1045C44.7502 71.9482 44.4456 71.7256 44.1956 71.4365C43.9456 71.1475 43.7542 70.7979 43.6213 70.3877C43.4885 69.9736 43.4221 69.5088 43.4221 68.9932C43.4221 68.4854 43.4885 68.0264 43.6213 67.6162C43.7542 67.2061 43.9456 66.8564 44.1956 66.5674C44.4456 66.2783 44.7502 66.0576 45.1096 65.9053C45.469 65.749 45.8772 65.6709 46.3342 65.6709C46.7913 65.6709 47.1995 65.749 47.5588 65.9053C47.9221 66.0576 48.2288 66.2783 48.4788 66.5674C48.7288 66.8564 48.9202 67.2061 49.053 67.6162C49.1858 68.0264 49.2522 68.4854 49.2522 68.9932ZM50.4124 65.8643H51.4905V66.7256H51.5139C51.5842 66.5811 51.6721 66.4443 51.7776 66.3154C51.887 66.1865 52.0159 66.0752 52.1643 65.9814C52.3167 65.8838 52.4905 65.8076 52.6858 65.7529C52.885 65.6982 53.1116 65.6709 53.3655 65.6709C53.7014 65.6709 54.0237 65.7354 54.3323 65.8643C54.6409 65.9932 54.9143 66.1865 55.1526 66.4443C55.3909 66.7021 55.5803 67.0264 55.7209 67.417C55.8616 67.8037 55.9319 68.2549 55.9319 68.7705C55.9319 69.415 55.8655 69.9639 55.7327 70.417C55.6038 70.8662 55.4182 71.2334 55.176 71.5186C54.9377 71.8037 54.6487 72.0107 54.3088 72.1396C53.969 72.2686 53.5901 72.333 53.1721 72.333C52.9651 72.333 52.7717 72.3057 52.592 72.251C52.4124 72.1963 52.2502 72.126 52.1057 72.04C51.9651 71.9502 51.844 71.8525 51.7424 71.7471C51.6409 71.6377 51.5647 71.5322 51.5139 71.4307H51.4905V74.6123H50.4124V65.8643ZM51.467 69.0342C51.467 69.374 51.5002 69.6885 51.5667 69.9775C51.6331 70.2627 51.7346 70.5107 51.8713 70.7217C52.012 70.9326 52.1858 71.0986 52.3928 71.2197C52.6038 71.3369 52.8518 71.3955 53.137 71.3955C53.4338 71.3955 53.6897 71.3369 53.9045 71.2197C54.1233 71.0986 54.303 70.9326 54.4436 70.7217C54.5842 70.5107 54.6877 70.2627 54.7542 69.9775C54.8206 69.6885 54.8538 69.374 54.8538 69.0342C54.8538 68.6787 54.8206 68.3525 54.7542 68.0557C54.6877 67.7588 54.5842 67.5029 54.4436 67.2881C54.303 67.0732 54.1233 66.9072 53.9045 66.79C53.6897 66.6689 53.4338 66.6084 53.137 66.6084C52.8518 66.6084 52.6038 66.6689 52.3928 66.79C52.1858 66.9072 52.012 67.0732 51.8713 67.2881C51.7346 67.5029 51.6331 67.7588 51.5667 68.0557C51.5002 68.3525 51.467 68.6787 51.467 69.0342Z" fill="#636363"/>
<path d="M62.5002 22.8896C62.5002 35.2107 53.1786 45.1396 41.7502 45.1396C30.3219 45.1396 21.0002 35.2107 21.0002 22.8896C21.0002 10.5686 30.3219 0.639648 41.7502 0.639648C53.1786 0.639648 62.5002 10.5686 62.5002 22.8896Z" stroke="#A58C75"/>
<path d="M32.3915 22.7825H29.0002V33.1396H32.3915M32.3915 22.7825V33.1396M32.3915 22.7825H33.8046M32.3915 33.1396H36.9839M51.7502 22.7825H55.0002V33.1396H51.7502M51.7502 22.7825V33.1396M51.7502 22.7825H50.0546M51.7502 33.1396H46.9459M36.9839 33.1396V27.2825M36.9839 33.1396H40.7285M40.7285 33.1396V27.2825M40.7285 33.1396H43.6252M43.6252 33.1396V27.2825M43.6252 33.1396H46.9459M46.9459 33.1396V27.2825M42.0709 22.7825L48.7122 27.2825H35.3589L42.0709 22.7825ZM42.0709 22.7825H33.8046M42.0709 22.7825H50.0546M33.8046 22.7825V19.8539H35.3589M50.0546 22.7825V19.8539H48.7122M35.3589 19.8539V14.1039M35.3589 19.8539H39.0329M48.7122 19.8539V14.1039M48.7122 19.8539H45.5329M35.3589 14.1039V13.4333C35.3589 10.628 37.633 8.35393 40.4383 8.35393H42.0356M35.3589 14.1039H39.0329M48.7122 14.1039V13.4333C48.7122 10.628 46.4381 8.35393 43.6328 8.35393H42.0356M48.7122 14.1039H45.5329M39.0329 14.1039V19.8539M39.0329 14.1039H42.2829M39.0329 19.8539H42.2829M45.5329 14.1039V19.8539M45.5329 14.1039H42.2829M45.5329 19.8539H42.2829M42.2829 14.1039V19.8539M42.0356 8.35393V6.13965" stroke="#575359" stroke-width="0.75"/>
</svg>
