<svg width="106" height="65" viewBox="0 0 106 65" fill="none" xmlns="http://www.w3.org/2000/svg">
<path d="M67.9999 22.8901C67.9999 35.2111 58.6783 45.1401 47.2499 45.1401C35.8216 45.1401 26.4999 35.2111 26.4999 22.8901C26.4999 10.5691 35.8216 0.640137 47.2499 0.640137C58.6783 0.640137 67.9999 10.5691 67.9999 22.8901Z" stroke="#A58C75"/>
<path d="M61.9999 19.6401H33.4999L35.9999 14.1401L47.4999 8.14014L58.9999 14.1401L61.9999 19.6401Z" stroke="#575359"/>
<rect x="33.9999" y="31.6401" width="27" height="4" stroke="#575359"/>
<rect x="38.9999" y="21.6401" width="2" height="8" stroke="#575359"/>
<rect x="46.9999" y="21.6401" width="2" height="8" stroke="#575359"/>
<rect x="54.9999" y="21.6401" width="2" height="8" stroke="#575359"/>
<path d="M0.890564 53.0269H2.54291L4.98041 60.2749H5.00385L7.44135 53.0269H9.09369V61.6401H8.01556V54.3921H7.99213L5.56635 61.6401H4.41791L1.99213 54.3921H1.96869V61.6401H0.890564V53.0269ZM10.7753 57.2456C10.787 56.8628 10.8593 56.5405 10.9921 56.2788C11.1249 56.0132 11.3046 55.7983 11.5312 55.6343C11.7578 55.4702 12.0253 55.353 12.3339 55.2827C12.6464 55.2085 12.9863 55.1714 13.3535 55.1714C13.6581 55.1714 13.9531 55.2026 14.2382 55.2651C14.5273 55.3276 14.7831 55.4292 15.0058 55.5698C15.2285 55.7065 15.4062 55.8862 15.539 56.1089C15.6757 56.3276 15.7441 56.5952 15.7441 56.9116V60.562C15.7441 60.6636 15.7714 60.7515 15.8261 60.8257C15.8808 60.896 15.9687 60.9312 16.0898 60.9312C16.1445 60.9312 16.2011 60.9272 16.2597 60.9194C16.3183 60.9077 16.3788 60.896 16.4413 60.8843V61.6284C16.3515 61.6519 16.2617 61.6733 16.1718 61.6929C16.0859 61.7124 15.9824 61.7222 15.8613 61.7222C15.6738 61.7222 15.5117 61.7065 15.3749 61.6753C15.2421 61.644 15.1288 61.5933 15.0351 61.5229C14.9453 61.4487 14.8749 61.355 14.8242 61.2417C14.7734 61.1245 14.7402 60.9819 14.7245 60.814C14.5917 60.9585 14.4511 61.0933 14.3027 61.2183C14.1542 61.3394 13.9882 61.4468 13.8046 61.5405C13.621 61.6304 13.416 61.7007 13.1894 61.7515C12.9628 61.8062 12.707 61.8335 12.4218 61.8335C12.1796 61.8335 11.9433 61.7944 11.7128 61.7163C11.4863 61.6382 11.2812 61.5229 11.0976 61.3706C10.9179 61.2183 10.7734 61.0308 10.664 60.8081C10.5546 60.5815 10.4999 60.3198 10.4999 60.0229C10.4999 59.6987 10.5546 59.4194 10.664 59.1851C10.7734 58.9468 10.916 58.7495 11.0917 58.5933C11.2675 58.4331 11.4687 58.3101 11.6953 58.2241C11.9218 58.1382 12.1523 58.0815 12.3867 58.0542L14.1503 57.8374C14.3183 57.8179 14.4492 57.7534 14.5429 57.644C14.6406 57.5308 14.6894 57.3511 14.6894 57.105C14.6894 56.7261 14.5644 56.4546 14.3144 56.2905C14.0683 56.1226 13.7128 56.0386 13.248 56.0386C12.7714 56.0386 12.416 56.1401 12.1816 56.3433C11.9472 56.5425 11.8144 56.8433 11.7831 57.2456H10.7753ZM14.666 58.4468C14.58 58.5093 14.4726 58.562 14.3437 58.605C14.2187 58.644 14.08 58.6772 13.9277 58.7046C13.7753 58.7319 13.6132 58.7573 13.4413 58.7808C13.2695 58.8003 13.0976 58.8218 12.9257 58.8452C12.7304 58.8726 12.5507 58.9116 12.3867 58.9624C12.2226 59.0132 12.08 59.0796 11.9589 59.1616C11.8378 59.2437 11.7441 59.3433 11.6777 59.4604C11.6113 59.5737 11.5781 59.7085 11.5781 59.8647C11.5781 60.0444 11.6054 60.2026 11.6601 60.3394C11.7187 60.4761 11.7968 60.5913 11.8945 60.6851C11.996 60.7788 12.1171 60.8491 12.2578 60.896C12.3984 60.9429 12.5527 60.9663 12.7206 60.9663C12.8261 60.9663 12.9472 60.9546 13.0839 60.9312C13.2206 60.9038 13.3613 60.8647 13.5058 60.814C13.6503 60.7632 13.791 60.6987 13.9277 60.6206C14.0683 60.5386 14.1933 60.4409 14.3027 60.3276C14.412 60.2144 14.4999 60.0854 14.5663 59.9409C14.6328 59.7964 14.666 59.6343 14.666 59.4546V58.4468ZM17.4081 55.3647H18.4863V56.2261H18.5097C18.58 56.0815 18.6679 55.9448 18.7734 55.8159C18.8828 55.687 19.0117 55.5757 19.1601 55.4819C19.3124 55.3843 19.4863 55.3081 19.6816 55.2534C19.8808 55.1987 20.1074 55.1714 20.3613 55.1714C20.6972 55.1714 21.0195 55.2358 21.3281 55.3647C21.6367 55.4937 21.9101 55.687 22.1484 55.9448C22.3867 56.2026 22.5761 56.5269 22.7167 56.9175C22.8574 57.3042 22.9277 57.7554 22.9277 58.271C22.9277 58.9155 22.8613 59.4644 22.7285 59.9175C22.5995 60.3667 22.414 60.7339 22.1718 61.019C21.9335 61.3042 21.6445 61.5112 21.3046 61.6401C20.9648 61.769 20.5859 61.8335 20.1679 61.8335C19.9609 61.8335 19.7675 61.8062 19.5878 61.7515C19.4081 61.6968 19.246 61.6265 19.1015 61.5405C18.9609 61.4507 18.8398 61.353 18.7382 61.2476C18.6367 61.1382 18.5605 61.0327 18.5097 60.9312H18.4863V64.1128H17.4081V55.3647ZM18.4628 58.5347C18.4628 58.8745 18.496 59.189 18.5624 59.478C18.6288 59.7632 18.7304 60.0112 18.8671 60.2222C19.0078 60.4331 19.1816 60.5991 19.3886 60.7202C19.5995 60.8374 19.8476 60.896 20.1328 60.896C20.4296 60.896 20.6855 60.8374 20.9003 60.7202C21.1191 60.5991 21.2988 60.4331 21.4394 60.2222C21.58 60.0112 21.6835 59.7632 21.7499 59.478C21.8163 59.189 21.8495 58.8745 21.8495 58.5347C21.8495 58.1792 21.8163 57.853 21.7499 57.5562C21.6835 57.2593 21.58 57.0034 21.4394 56.7886C21.2988 56.5737 21.1191 56.4077 20.9003 56.2905C20.6855 56.1694 20.4296 56.1089 20.1328 56.1089C19.8476 56.1089 19.5995 56.1694 19.3886 56.2905C19.1816 56.4077 19.0078 56.5737 18.8671 56.7886C18.7304 57.0034 18.6288 57.2593 18.5624 57.5562C18.496 57.853 18.4628 58.1792 18.4628 58.5347ZM24.1464 55.3647H25.2245V60.1753H25.248L28.33 55.3647H29.5663V61.6401H28.4824V56.8296H28.4589L25.3828 61.6401H24.1464V55.3647ZM31.1542 55.3647H32.2324V60.1753H32.2558L35.3378 55.3647H36.5742V61.6401H35.4902V56.8296H35.4667L32.3906 61.6401H31.1542V55.3647ZM38.162 55.3647H39.2402V57.896H42.1699V55.3647H43.2538V61.6401H42.1699V58.8335H39.2402V61.6401H38.162V55.3647ZM49.7753 59.4312C49.7597 59.5835 49.7285 59.7495 49.6816 59.9292C49.6386 60.1089 49.5742 60.2886 49.4882 60.4683C49.4023 60.644 49.291 60.814 49.1542 60.978C49.0214 61.1421 48.8574 61.2886 48.662 61.4175C48.4706 61.5425 48.2441 61.6421 47.9824 61.7163C47.7206 61.7944 47.4218 61.8335 47.0859 61.8335C46.9023 61.8335 46.7089 61.8101 46.5058 61.7632C46.3027 61.7202 46.1035 61.646 45.9081 61.5405C45.7167 61.4351 45.5331 61.3003 45.3574 61.1362C45.1855 60.9683 45.0331 60.7612 44.9003 60.5151C44.7714 60.269 44.6679 59.9839 44.5898 59.6597C44.5117 59.3315 44.4726 58.9565 44.4726 58.5347C44.4726 58.0151 44.5468 57.5483 44.6953 57.1343C44.8437 56.7163 45.041 56.3628 45.287 56.0737C45.537 55.7847 45.8261 55.562 46.1542 55.4058C46.4863 55.2495 46.8339 55.1714 47.1972 55.1714C47.5253 55.1714 47.8144 55.2065 48.0644 55.2769C48.3183 55.3472 48.539 55.4409 48.7265 55.5581C48.914 55.6753 49.0722 55.812 49.2011 55.9683C49.33 56.1206 49.4335 56.2827 49.5117 56.4546C49.5937 56.6226 49.6542 56.7944 49.6933 56.9702C49.7363 57.146 49.7636 57.314 49.7753 57.4741H48.7675C48.7128 57.0483 48.5644 56.7144 48.3222 56.4722C48.0839 56.23 47.748 56.1089 47.3144 56.1089C47.0175 56.1089 46.7578 56.1694 46.5351 56.2905C46.3163 56.4116 46.1328 56.5815 45.9843 56.8003C45.8398 57.0151 45.7304 57.2769 45.6562 57.5854C45.5859 57.8901 45.5507 58.2261 45.5507 58.5933C45.5507 59.0073 45.5898 59.3647 45.6679 59.6655C45.746 59.9624 45.8574 60.2085 46.0019 60.4038C46.1464 60.5952 46.3222 60.7378 46.5292 60.8315C46.7402 60.9214 46.9785 60.9663 47.2441 60.9663C47.4316 60.9663 47.6093 60.9331 47.7773 60.8667C47.9453 60.7964 48.0956 60.6968 48.2285 60.5679C48.3613 60.4351 48.4745 60.2729 48.5683 60.0815C48.662 59.8901 48.7285 59.6733 48.7675 59.4312H49.7753ZM50.8417 55.3647H51.9199V58.3999L55.0898 55.3647H56.5019L53.5546 58.1362L56.5488 61.6401H55.1601L52.7109 58.7925L51.9199 59.4546V61.6401H50.8417V55.3647ZM57.416 55.3647H58.4941V60.1753H58.5175L61.5995 55.3647H62.8359V61.6401H61.7519V56.8296H61.7285L58.6523 61.6401H57.416V55.3647ZM66.1171 52.9272C66.1679 53.1772 66.2734 53.3765 66.4335 53.5249C66.5937 53.6694 66.83 53.7417 67.1425 53.7417C67.4589 53.7417 67.6972 53.6714 67.8574 53.5308C68.0175 53.3862 68.121 53.1851 68.1679 52.9272H69.1699C69.166 53.1616 69.1152 53.3745 69.0175 53.5659C68.9199 53.7534 68.7812 53.9136 68.6015 54.0464C68.4257 54.1792 68.2128 54.2827 67.9628 54.3569C67.7167 54.4272 67.4433 54.4624 67.1425 54.4624C66.8417 54.4624 66.5683 54.4272 66.3222 54.3569C66.0761 54.2866 65.8652 54.1851 65.6894 54.0522C65.5136 53.9194 65.3749 53.7593 65.2734 53.5718C65.1757 53.3804 65.1249 53.1655 65.121 52.9272H66.1171ZM64.4238 55.3647H65.5019V60.1753H65.5253L68.6074 55.3647H69.8437V61.6401H68.7597V56.8296H68.7363L65.6601 61.6401H64.4238V55.3647ZM76.4413 56.3022H74.2792V55.3647H79.6816V56.3022H77.5195V61.6401H76.4413V56.3022ZM86.1152 59.6362C86.0722 59.9097 85.9785 60.1772 85.8339 60.439C85.6894 60.7007 85.4999 60.9351 85.2656 61.1421C85.0312 61.3491 84.7538 61.5151 84.4335 61.6401C84.1171 61.769 83.7656 61.8335 83.3788 61.8335C82.957 61.8335 82.5663 61.7651 82.207 61.6284C81.8515 61.4878 81.5429 61.2788 81.2812 61.0015C81.0234 60.7202 80.8203 60.3687 80.6718 59.9468C80.5234 59.5249 80.4492 59.0288 80.4492 58.4585C80.4492 58.0757 80.4902 57.73 80.5722 57.4214C80.6581 57.1089 80.7714 56.8315 80.912 56.5894C81.0566 56.3433 81.2226 56.1323 81.4101 55.9565C81.5976 55.7769 81.7949 55.6304 82.0019 55.5171C82.2128 55.3999 82.4277 55.314 82.6464 55.2593C82.8652 55.2007 83.0761 55.1714 83.2792 55.1714C83.7089 55.1714 84.1015 55.2358 84.457 55.3647C84.8124 55.4937 85.1171 55.6909 85.371 55.9565C85.6288 56.2183 85.8281 56.5483 85.9687 56.9468C86.1132 57.3413 86.1855 57.8062 86.1855 58.3413V58.8804H81.5976C81.6015 59.1851 81.6445 59.4624 81.7265 59.7124C81.8085 59.9585 81.9257 60.1694 82.0781 60.3452C82.2304 60.521 82.414 60.6577 82.6288 60.7554C82.8476 60.8491 83.0937 60.896 83.3671 60.896C83.6445 60.896 83.8788 60.8569 84.0703 60.7788C84.2617 60.7007 84.4218 60.6011 84.5507 60.48C84.6796 60.3589 84.7831 60.2241 84.8613 60.0757C84.9433 59.9272 85.0117 59.7808 85.0663 59.6362H86.1152ZM85.1015 58.019C85.0937 57.7144 85.0468 57.4429 84.9609 57.2046C84.8788 56.9663 84.7617 56.7671 84.6093 56.6069C84.4609 56.4429 84.2812 56.3198 84.0703 56.2378C83.8593 56.1519 83.6249 56.1089 83.3671 56.1089C83.121 56.1089 82.8945 56.1577 82.6874 56.2554C82.4804 56.3491 82.2988 56.4819 82.1425 56.6538C81.9863 56.8218 81.8613 57.0229 81.7675 57.2573C81.6738 57.4878 81.6171 57.7417 81.5976 58.019H85.1015ZM87.4394 57.2456C87.4511 56.8628 87.5234 56.5405 87.6562 56.2788C87.789 56.0132 87.9687 55.7983 88.1953 55.6343C88.4218 55.4702 88.6894 55.353 88.998 55.2827C89.3105 55.2085 89.6503 55.1714 90.0175 55.1714C90.3222 55.1714 90.6171 55.2026 90.9023 55.2651C91.1913 55.3276 91.4472 55.4292 91.6699 55.5698C91.8925 55.7065 92.0703 55.8862 92.2031 56.1089C92.3398 56.3276 92.4081 56.5952 92.4081 56.9116V60.562C92.4081 60.6636 92.4355 60.7515 92.4902 60.8257C92.5449 60.896 92.6328 60.9312 92.7538 60.9312C92.8085 60.9312 92.8652 60.9272 92.9238 60.9194C92.9824 60.9077 93.0429 60.896 93.1054 60.8843V61.6284C93.0156 61.6519 92.9257 61.6733 92.8359 61.6929C92.7499 61.7124 92.6464 61.7222 92.5253 61.7222C92.3378 61.7222 92.1757 61.7065 92.039 61.6753C91.9062 61.644 91.7929 61.5933 91.6992 61.5229C91.6093 61.4487 91.539 61.355 91.4882 61.2417C91.4374 61.1245 91.4042 60.9819 91.3886 60.814C91.2558 60.9585 91.1152 61.0933 90.9667 61.2183C90.8183 61.3394 90.6523 61.4468 90.4687 61.5405C90.2851 61.6304 90.08 61.7007 89.8535 61.7515C89.6269 61.8062 89.371 61.8335 89.0859 61.8335C88.8437 61.8335 88.6074 61.7944 88.3769 61.7163C88.1503 61.6382 87.9453 61.5229 87.7617 61.3706C87.582 61.2183 87.4374 61.0308 87.3281 60.8081C87.2187 60.5815 87.164 60.3198 87.164 60.0229C87.164 59.6987 87.2187 59.4194 87.3281 59.1851C87.4374 58.9468 87.58 58.7495 87.7558 58.5933C87.9316 58.4331 88.1328 58.3101 88.3593 58.2241C88.5859 58.1382 88.8163 58.0815 89.0507 58.0542L90.8144 57.8374C90.9824 57.8179 91.1132 57.7534 91.207 57.644C91.3046 57.5308 91.3535 57.3511 91.3535 57.105C91.3535 56.7261 91.2285 56.4546 90.9785 56.2905C90.7324 56.1226 90.3769 56.0386 89.912 56.0386C89.4355 56.0386 89.08 56.1401 88.8456 56.3433C88.6113 56.5425 88.4785 56.8433 88.4472 57.2456H87.4394ZM91.33 58.4468C91.2441 58.5093 91.1367 58.562 91.0078 58.605C90.8828 58.644 90.7441 58.6772 90.5917 58.7046C90.4394 58.7319 90.2773 58.7573 90.1054 58.7808C89.9335 58.8003 89.7617 58.8218 89.5898 58.8452C89.3945 58.8726 89.2148 58.9116 89.0507 58.9624C88.8867 59.0132 88.7441 59.0796 88.623 59.1616C88.5019 59.2437 88.4081 59.3433 88.3417 59.4604C88.2753 59.5737 88.2421 59.7085 88.2421 59.8647C88.2421 60.0444 88.2695 60.2026 88.3242 60.3394C88.3828 60.4761 88.4609 60.5913 88.5585 60.6851C88.6601 60.7788 88.7812 60.8491 88.9218 60.896C89.0624 60.9429 89.2167 60.9663 89.3847 60.9663C89.4902 60.9663 89.6113 60.9546 89.748 60.9312C89.8847 60.9038 90.0253 60.8647 90.1699 60.814C90.3144 60.7632 90.455 60.6987 90.5917 60.6206C90.7324 60.5386 90.8574 60.4409 90.9667 60.3276C91.0761 60.2144 91.164 60.0854 91.2304 59.9409C91.2968 59.7964 91.33 59.6343 91.33 59.4546V58.4468ZM95.8007 56.3022H93.6386V55.3647H99.041V56.3022H96.8788V61.6401H95.8007V56.3022ZM100.072 55.3647H101.15V56.2261H101.174C101.244 56.0815 101.332 55.9448 101.437 55.8159C101.547 55.687 101.676 55.5757 101.824 55.4819C101.977 55.3843 102.15 55.3081 102.346 55.2534C102.545 55.1987 102.771 55.1714 103.025 55.1714C103.361 55.1714 103.684 55.2358 103.992 55.3647C104.301 55.4937 104.574 55.687 104.812 55.9448C105.051 56.2026 105.24 56.5269 105.381 56.9175C105.521 57.3042 105.592 57.7554 105.592 58.271C105.592 58.9155 105.525 59.4644 105.393 59.9175C105.264 60.3667 105.078 60.7339 104.836 61.019C104.598 61.3042 104.309 61.5112 103.969 61.6401C103.629 61.769 103.25 61.8335 102.832 61.8335C102.625 61.8335 102.432 61.8062 102.252 61.7515C102.072 61.6968 101.91 61.6265 101.766 61.5405C101.625 61.4507 101.504 61.353 101.402 61.2476C101.301 61.1382 101.225 61.0327 101.174 60.9312H101.15V64.1128H100.072V55.3647ZM101.127 58.5347C101.127 58.8745 101.16 59.189 101.227 59.478C101.293 59.7632 101.394 60.0112 101.531 60.2222C101.672 60.4331 101.846 60.5991 102.053 60.7202C102.264 60.8374 102.512 60.896 102.797 60.896C103.094 60.896 103.35 60.8374 103.564 60.7202C103.783 60.5991 103.963 60.4331 104.103 60.2222C104.244 60.0112 104.348 59.7632 104.414 59.478C104.48 59.189 104.514 58.8745 104.514 58.5347C104.514 58.1792 104.48 57.853 104.414 57.5562C104.348 57.2593 104.244 57.0034 104.103 56.7886C103.963 56.5737 103.783 56.4077 103.564 56.2905C103.35 56.1694 103.094 56.1089 102.797 56.1089C102.512 56.1089 102.264 56.1694 102.053 56.2905C101.846 56.4077 101.672 56.5737 101.531 56.7886C101.394 57.0034 101.293 57.2593 101.227 57.5562C101.16 57.853 101.127 58.1792 101.127 58.5347Z" fill="#636363"/>
</svg>
