<svg width="99" height="60" viewBox="0 0 99 60" fill="none" xmlns="http://www.w3.org/2000/svg">
<path d="M0.890503 49.5264H2.03894V53.0771H6.62097V49.5264H7.77527V58.1396H6.62097V54.085H2.03894V58.1396H0.890503V49.5264ZM13.8456 54.9932C13.8456 54.6455 13.8065 54.3271 13.7284 54.0381C13.6503 53.7451 13.5331 53.4932 13.3768 53.2822C13.2206 53.0713 13.0272 52.9072 12.7968 52.79C12.5702 52.6689 12.3065 52.6084 12.0057 52.6084C11.705 52.6084 11.4413 52.6689 11.2147 52.79C10.9882 52.9072 10.7968 53.0713 10.6405 53.2822C10.4843 53.4932 10.3671 53.7451 10.2889 54.0381C10.2108 54.3271 10.1718 54.6455 10.1718 54.9932C10.1718 55.3447 10.2108 55.6689 10.2889 55.9658C10.3671 56.2588 10.4843 56.5107 10.6405 56.7217C10.7968 56.9326 10.9882 57.0986 11.2147 57.2197C11.4413 57.3369 11.705 57.3955 12.0057 57.3955C12.3065 57.3955 12.5702 57.3369 12.7968 57.2197C13.0272 57.0986 13.2206 56.9326 13.3768 56.7217C13.5331 56.5107 13.6503 56.2588 13.7284 55.9658C13.8065 55.6689 13.8456 55.3447 13.8456 54.9932ZM14.9237 54.9932C14.9237 55.5088 14.8573 55.9736 14.7245 56.3877C14.5917 56.7979 14.4003 57.1475 14.1503 57.4365C13.9003 57.7256 13.5936 57.9482 13.2303 58.1045C12.871 58.2568 12.4628 58.333 12.0057 58.333C11.5487 58.333 11.1405 58.2568 10.7811 58.1045C10.4218 57.9482 10.1171 57.7256 9.86707 57.4365C9.61707 57.1475 9.42566 56.7979 9.29285 56.3877C9.16003 55.9736 9.09363 55.5088 9.09363 54.9932C9.09363 54.4854 9.16003 54.0264 9.29285 53.6162C9.42566 53.2061 9.61707 52.8564 9.86707 52.5674C10.1171 52.2783 10.4218 52.0576 10.7811 51.9053C11.1405 51.749 11.5487 51.6709 12.0057 51.6709C12.4628 51.6709 12.871 51.749 13.2303 51.9053C13.5936 52.0576 13.9003 52.2783 14.1503 52.5674C14.4003 52.8564 14.5917 53.2061 14.7245 53.6162C14.8573 54.0264 14.9237 54.4854 14.9237 54.9932ZM16.1425 51.8643H18.8143C19.58 51.8643 20.1522 52.0068 20.5311 52.292C20.9139 52.5771 21.1053 52.9912 21.1053 53.5342C21.1053 53.8232 21.035 54.0674 20.8944 54.2666C20.7538 54.4658 20.5682 54.6416 20.3378 54.7939C20.6698 54.9189 20.9335 55.0986 21.1288 55.333C21.3241 55.5674 21.4218 55.8701 21.4218 56.2412C21.4218 56.5342 21.3729 56.7979 21.2753 57.0322C21.1776 57.2666 21.0292 57.4658 20.83 57.6299C20.6307 57.7939 20.3768 57.9209 20.0682 58.0107C19.7635 58.0967 19.4022 58.1396 18.9843 58.1396H16.1425V51.8643ZM17.2206 57.2783H18.8612C19.1464 57.2783 19.3827 57.2568 19.5702 57.2139C19.7616 57.167 19.9139 57.1006 20.0272 57.0146C20.1405 56.9287 20.2206 56.8252 20.2675 56.7041C20.3143 56.583 20.3378 56.4463 20.3378 56.2939C20.3378 56.1416 20.3143 56.0049 20.2675 55.8838C20.2206 55.7588 20.1405 55.6553 20.0272 55.5732C19.9139 55.4873 19.7616 55.4229 19.5702 55.3799C19.3827 55.333 19.1464 55.3096 18.8612 55.3096H17.2206V57.2783ZM17.2206 54.5186H18.8495C19.2128 54.5186 19.4999 54.4463 19.7108 54.3018C19.9218 54.1572 20.0272 53.9326 20.0272 53.6279C20.0272 53.4561 19.9979 53.3135 19.9393 53.2002C19.8807 53.083 19.8026 52.9893 19.705 52.9189C19.6073 52.8486 19.496 52.7998 19.371 52.7725C19.2499 52.7412 19.1249 52.7256 18.996 52.7256H17.2206V54.5186ZM22.705 53.7451C22.7167 53.3623 22.7889 53.04 22.9218 52.7783C23.0546 52.5127 23.2343 52.2979 23.4608 52.1338C23.6874 51.9697 23.955 51.8525 24.2635 51.7822C24.576 51.708 24.9159 51.6709 25.2831 51.6709C25.5878 51.6709 25.8827 51.7021 26.1678 51.7646C26.4569 51.8271 26.7128 51.9287 26.9354 52.0693C27.1581 52.2061 27.3358 52.3857 27.4686 52.6084C27.6053 52.8271 27.6737 53.0947 27.6737 53.4111V57.0615C27.6737 57.1631 27.701 57.251 27.7557 57.3252C27.8104 57.3955 27.8983 57.4307 28.0194 57.4307C28.0741 57.4307 28.1307 57.4268 28.1893 57.4189C28.2479 57.4072 28.3085 57.3955 28.371 57.3838V58.1279C28.2811 58.1514 28.1913 58.1729 28.1014 58.1924C28.0155 58.2119 27.912 58.2217 27.7909 58.2217C27.6034 58.2217 27.4413 58.2061 27.3046 58.1748C27.1718 58.1436 27.0585 58.0928 26.9647 58.0225C26.8749 57.9482 26.8046 57.8545 26.7538 57.7412C26.703 57.624 26.6698 57.4814 26.6542 57.3135C26.5214 57.458 26.3807 57.5928 26.2323 57.7178C26.0839 57.8389 25.9178 57.9463 25.7343 58.04C25.5507 58.1299 25.3456 58.2002 25.119 58.251C24.8925 58.3057 24.6366 58.333 24.3514 58.333C24.1093 58.333 23.8729 58.2939 23.6425 58.2158C23.4159 58.1377 23.2108 58.0225 23.0272 57.8701C22.8475 57.7178 22.703 57.5303 22.5936 57.3076C22.4843 57.0811 22.4296 56.8193 22.4296 56.5225C22.4296 56.1982 22.4843 55.9189 22.5936 55.6846C22.703 55.4463 22.8456 55.249 23.0214 55.0928C23.1971 54.9326 23.3983 54.8096 23.6249 54.7236C23.8514 54.6377 24.0819 54.5811 24.3163 54.5537L26.08 54.3369C26.2479 54.3174 26.3788 54.2529 26.4725 54.1436C26.5702 54.0303 26.619 53.8506 26.619 53.6045C26.619 53.2256 26.494 52.9541 26.244 52.79C25.9979 52.6221 25.6425 52.5381 25.1776 52.5381C24.701 52.5381 24.3456 52.6396 24.1112 52.8428C23.8768 53.042 23.744 53.3428 23.7128 53.7451H22.705ZM26.5956 54.9463C26.5096 55.0088 26.4022 55.0615 26.2733 55.1045C26.1483 55.1436 26.0096 55.1768 25.8573 55.2041C25.705 55.2314 25.5428 55.2568 25.371 55.2803C25.1991 55.2998 25.0272 55.3213 24.8553 55.3447C24.66 55.3721 24.4803 55.4111 24.3163 55.4619C24.1522 55.5127 24.0096 55.5791 23.8885 55.6611C23.7675 55.7432 23.6737 55.8428 23.6073 55.96C23.5409 56.0732 23.5077 56.208 23.5077 56.3643C23.5077 56.5439 23.535 56.7021 23.5897 56.8389C23.6483 56.9756 23.7264 57.0908 23.8241 57.1846C23.9257 57.2783 24.0468 57.3486 24.1874 57.3955C24.328 57.4424 24.4823 57.4658 24.6503 57.4658C24.7557 57.4658 24.8768 57.4541 25.0135 57.4307C25.1503 57.4033 25.2909 57.3643 25.4354 57.3135C25.58 57.2627 25.7206 57.1982 25.8573 57.1201C25.9979 57.0381 26.1229 56.9404 26.2323 56.8271C26.3417 56.7139 26.4296 56.585 26.496 56.4404C26.5624 56.2959 26.5956 56.1338 26.5956 55.9541V54.9463ZM34.4999 58.1396H33.4159V55.6553H32.0272C31.7772 55.6553 31.5585 55.6611 31.371 55.6729C31.1874 55.6807 31.0311 55.7158 30.9022 55.7783C30.7733 55.8408 30.6718 55.9385 30.5975 56.0713C30.5272 56.2041 30.4823 56.3936 30.4628 56.6396L30.4159 57.3135C30.412 57.333 30.4081 57.3721 30.4042 57.4307C30.4003 57.4893 30.3925 57.5596 30.3807 57.6416C30.369 57.7197 30.3534 57.8037 30.3339 57.8936C30.3143 57.9834 30.2909 58.0654 30.2635 58.1396H29.0741C29.1014 58.1045 29.1268 58.0693 29.1503 58.0342C29.1776 57.9951 29.203 57.9424 29.2264 57.876C29.2538 57.8096 29.2772 57.7236 29.2968 57.6182C29.3202 57.5127 29.3417 57.3779 29.3612 57.2139L29.4315 56.4111C29.455 56.2002 29.4823 56.0283 29.5135 55.8955C29.5487 55.7627 29.5956 55.6533 29.6542 55.5674C29.7167 55.4775 29.7968 55.4053 29.8944 55.3506C29.9921 55.292 30.1151 55.2334 30.2635 55.1748C29.5917 54.9326 29.2557 54.4365 29.2557 53.6865C29.2557 53.499 29.2792 53.3271 29.326 53.1709C29.3729 53.0107 29.4335 52.8682 29.5077 52.7432C29.5858 52.6182 29.6718 52.5088 29.7655 52.415C29.8632 52.3174 29.9608 52.2373 30.0585 52.1748C30.1796 52.0967 30.3124 52.0381 30.4569 51.999C30.6014 51.9561 30.746 51.9248 30.8905 51.9053C31.0389 51.8857 31.1835 51.874 31.3241 51.8701C31.4647 51.8662 31.5936 51.8643 31.7108 51.8643H34.4999V58.1396ZM33.4159 52.8135H31.7753C31.6346 52.8135 31.5135 52.8154 31.412 52.8193C31.3104 52.8193 31.2206 52.8232 31.1425 52.8311C31.0682 52.8389 30.9999 52.8525 30.9374 52.8721C30.8749 52.8916 30.8104 52.9189 30.744 52.9541C30.6073 53.0322 30.5018 53.1475 30.4276 53.2998C30.3573 53.4521 30.3221 53.6143 30.3221 53.7861C30.3221 53.9541 30.3475 54.0967 30.3983 54.2139C30.4491 54.3271 30.5155 54.4209 30.5975 54.4951C30.6835 54.5693 30.7772 54.6279 30.8788 54.6709C30.9843 54.71 31.0897 54.7393 31.1952 54.7588C31.3046 54.7744 31.41 54.7842 31.5116 54.7881C31.6132 54.792 31.701 54.7939 31.7753 54.7939H33.4159V52.8135ZM39.5389 49.5264H44.6014V50.5342H40.6874V58.1396H39.5389V49.5264ZM50.0565 54.9932C50.0565 54.6455 50.0175 54.3271 49.9393 54.0381C49.8612 53.7451 49.744 53.4932 49.5878 53.2822C49.4315 53.0713 49.2382 52.9072 49.0077 52.79C48.7811 52.6689 48.5175 52.6084 48.2167 52.6084C47.9159 52.6084 47.6522 52.6689 47.4257 52.79C47.1991 52.9072 47.0077 53.0713 46.8514 53.2822C46.6952 53.4932 46.578 53.7451 46.4999 54.0381C46.4218 54.3271 46.3827 54.6455 46.3827 54.9932C46.3827 55.3447 46.4218 55.6689 46.4999 55.9658C46.578 56.2588 46.6952 56.5107 46.8514 56.7217C47.0077 56.9326 47.1991 57.0986 47.4257 57.2197C47.6522 57.3369 47.9159 57.3955 48.2167 57.3955C48.5175 57.3955 48.7811 57.3369 49.0077 57.2197C49.2382 57.0986 49.4315 56.9326 49.5878 56.7217C49.744 56.5107 49.8612 56.2588 49.9393 55.9658C50.0175 55.6689 50.0565 55.3447 50.0565 54.9932ZM51.1346 54.9932C51.1346 55.5088 51.0682 55.9736 50.9354 56.3877C50.8026 56.7979 50.6112 57.1475 50.3612 57.4365C50.1112 57.7256 49.8046 57.9482 49.4413 58.1045C49.0819 58.2568 48.6737 58.333 48.2167 58.333C47.7596 58.333 47.3514 58.2568 46.9921 58.1045C46.6327 57.9482 46.328 57.7256 46.078 57.4365C45.828 57.1475 45.6366 56.7979 45.5038 56.3877C45.371 55.9736 45.3046 55.5088 45.3046 54.9932C45.3046 54.4854 45.371 54.0264 45.5038 53.6162C45.6366 53.2061 45.828 52.8564 46.078 52.5674C46.328 52.2783 46.6327 52.0576 46.9921 51.9053C47.3514 51.749 47.7596 51.6709 48.2167 51.6709C48.6737 51.6709 49.0819 51.749 49.4413 51.9053C49.8046 52.0576 50.1112 52.2783 50.3612 52.5674C50.6112 52.8564 50.8026 53.2061 50.9354 53.6162C51.0682 54.0264 51.1346 54.4854 51.1346 54.9932ZM56.578 52.8018H54.1757L54.1288 54.3076C54.1053 55.0693 54.0468 55.7061 53.953 56.2178C53.8593 56.7256 53.7303 57.1338 53.5663 57.4424C53.4061 57.751 53.2108 57.9697 52.9803 58.0986C52.7499 58.2275 52.4862 58.292 52.1893 58.292C52.08 58.292 51.9843 58.2744 51.9022 58.2393C51.8241 58.208 51.7635 58.1748 51.7206 58.1396V57.1904C51.8729 57.249 52.0077 57.2783 52.1249 57.2783C52.2069 57.2783 52.285 57.2646 52.3593 57.2373C52.4374 57.21 52.5096 57.1572 52.576 57.0791C52.6464 57.001 52.7108 56.8916 52.7694 56.751C52.828 56.6064 52.8788 56.4189 52.9218 56.1885C52.9686 55.958 53.0057 55.6787 53.0331 55.3506C53.0643 55.0225 53.0858 54.6318 53.0975 54.1787L53.1503 51.8643H57.6561V58.1396H56.578V52.8018ZM63.4686 52.8018H61.0663L61.0194 54.3076C60.996 55.0693 60.9374 55.7061 60.8436 56.2178C60.7499 56.7256 60.621 57.1338 60.4569 57.4424C60.2968 57.751 60.1014 57.9697 59.871 58.0986C59.6405 58.2275 59.3768 58.292 59.08 58.292C58.9706 58.292 58.8749 58.2744 58.7928 58.2393C58.7147 58.208 58.6542 58.1748 58.6112 58.1396V57.1904C58.7635 57.249 58.8983 57.2783 59.0155 57.2783C59.0975 57.2783 59.1757 57.2646 59.2499 57.2373C59.328 57.21 59.4003 57.1572 59.4667 57.0791C59.537 57.001 59.6014 56.8916 59.66 56.751C59.7186 56.6064 59.7694 56.4189 59.8124 56.1885C59.8593 55.958 59.8964 55.6787 59.9237 55.3506C59.955 55.0225 59.9764 54.6318 59.9882 54.1787L60.0409 51.8643H64.5468V58.1396H63.4686V52.8018ZM66.1229 53.7451C66.1346 53.3623 66.2069 53.04 66.3397 52.7783C66.4725 52.5127 66.6522 52.2979 66.8788 52.1338C67.1053 51.9697 67.3729 51.8525 67.6815 51.7822C67.994 51.708 68.3339 51.6709 68.701 51.6709C69.0057 51.6709 69.3007 51.7021 69.5858 51.7646C69.8749 51.8271 70.1307 51.9287 70.3534 52.0693C70.576 52.2061 70.7538 52.3857 70.8866 52.6084C71.0233 52.8271 71.0917 53.0947 71.0917 53.4111V57.0615C71.0917 57.1631 71.119 57.251 71.1737 57.3252C71.2284 57.3955 71.3163 57.4307 71.4374 57.4307C71.4921 57.4307 71.5487 57.4268 71.6073 57.4189C71.6659 57.4072 71.7264 57.3955 71.7889 57.3838V58.1279C71.6991 58.1514 71.6093 58.1729 71.5194 58.1924C71.4335 58.2119 71.33 58.2217 71.2089 58.2217C71.0214 58.2217 70.8593 58.2061 70.7225 58.1748C70.5897 58.1436 70.4764 58.0928 70.3827 58.0225C70.2928 57.9482 70.2225 57.8545 70.1718 57.7412C70.121 57.624 70.0878 57.4814 70.0721 57.3135C69.9393 57.458 69.7987 57.5928 69.6503 57.7178C69.5018 57.8389 69.3358 57.9463 69.1522 58.04C68.9686 58.1299 68.7635 58.2002 68.537 58.251C68.3104 58.3057 68.0546 58.333 67.7694 58.333C67.5272 58.333 67.2909 58.2939 67.0604 58.2158C66.8339 58.1377 66.6288 58.0225 66.4452 57.8701C66.2655 57.7178 66.121 57.5303 66.0116 57.3076C65.9022 57.0811 65.8475 56.8193 65.8475 56.5225C65.8475 56.1982 65.9022 55.9189 66.0116 55.6846C66.121 55.4463 66.2635 55.249 66.4393 55.0928C66.6151 54.9326 66.8163 54.8096 67.0428 54.7236C67.2694 54.6377 67.4999 54.5811 67.7343 54.5537L69.4979 54.3369C69.6659 54.3174 69.7968 54.2529 69.8905 54.1436C69.9882 54.0303 70.037 53.8506 70.037 53.6045C70.037 53.2256 69.912 52.9541 69.662 52.79C69.4159 52.6221 69.0604 52.5381 68.5956 52.5381C68.119 52.5381 67.7635 52.6396 67.5292 52.8428C67.2948 53.042 67.162 53.3428 67.1307 53.7451H66.1229ZM70.0135 54.9463C69.9276 55.0088 69.8202 55.0615 69.6913 55.1045C69.5663 55.1436 69.4276 55.1768 69.2753 55.2041C69.1229 55.2314 68.9608 55.2568 68.7889 55.2803C68.6171 55.2998 68.4452 55.3213 68.2733 55.3447C68.078 55.3721 67.8983 55.4111 67.7343 55.4619C67.5702 55.5127 67.4276 55.5791 67.3065 55.6611C67.1854 55.7432 67.0917 55.8428 67.0253 55.96C66.9589 56.0732 66.9257 56.208 66.9257 56.3643C66.9257 56.5439 66.953 56.7021 67.0077 56.8389C67.0663 56.9756 67.1444 57.0908 67.2421 57.1846C67.3436 57.2783 67.4647 57.3486 67.6053 57.3955C67.746 57.4424 67.9003 57.4658 68.0682 57.4658C68.1737 57.4658 68.2948 57.4541 68.4315 57.4307C68.5682 57.4033 68.7089 57.3643 68.8534 57.3135C68.9979 57.2627 69.1385 57.1982 69.2753 57.1201C69.4159 57.0381 69.5409 56.9404 69.6503 56.8271C69.7596 56.7139 69.8475 56.585 69.9139 56.4404C69.9803 56.2959 70.0135 56.1338 70.0135 55.9541V54.9463ZM72.8143 51.8643H73.8925V54.3955H76.8221V51.8643H77.9061V58.1396H76.8221V55.333H73.8925V58.1396H72.8143V51.8643ZM84.7264 58.1396H79.8749V59.6748H78.8671V57.2021H79.6932C79.8651 56.7803 80.0018 56.3506 80.1034 55.9131C80.205 55.4717 80.2831 55.0283 80.3378 54.583C80.3925 54.1338 80.4276 53.6826 80.4432 53.2295C80.4589 52.7764 80.4667 52.3213 80.4667 51.8643H84.8495V57.2021H85.7343V59.6748H84.7264V58.1396ZM83.7714 57.2021V52.8018H81.4979C81.4706 53.1572 81.4413 53.5225 81.41 53.8975C81.3827 54.2725 81.3436 54.6494 81.2928 55.0283C81.246 55.4033 81.1815 55.7744 81.0995 56.1416C81.0214 56.5088 80.9178 56.8623 80.7889 57.2021H83.7714ZM86.7714 51.8643H87.8495V56.6748H87.8729L90.955 51.8643H92.1913V58.1396H91.1073V53.3291H91.0839L88.0077 58.1396H86.7714V51.8643ZM98.8827 58.1396H97.7987V55.6553H96.41C96.16 55.6553 95.9413 55.6611 95.7538 55.6729C95.5702 55.6807 95.4139 55.7158 95.285 55.7783C95.1561 55.8408 95.0546 55.9385 94.9803 56.0713C94.91 56.2041 94.8651 56.3936 94.8456 56.6396L94.7987 57.3135C94.7948 57.333 94.7909 57.3721 94.787 57.4307C94.7831 57.4893 94.7753 57.5596 94.7635 57.6416C94.7518 57.7197 94.7362 57.8037 94.7167 57.8936C94.6971 57.9834 94.6737 58.0654 94.6464 58.1396H93.4569C93.4843 58.1045 93.5096 58.0693 93.5331 58.0342C93.5604 57.9951 93.5858 57.9424 93.6093 57.876C93.6366 57.8096 93.66 57.7236 93.6796 57.6182C93.703 57.5127 93.7245 57.3779 93.744 57.2139L93.8143 56.4111C93.8378 56.2002 93.8651 56.0283 93.8964 55.8955C93.9315 55.7627 93.9784 55.6533 94.037 55.5674C94.0995 55.4775 94.1796 55.4053 94.2772 55.3506C94.3749 55.292 94.4979 55.2334 94.6464 55.1748C93.9745 54.9326 93.6385 54.4365 93.6385 53.6865C93.6385 53.499 93.662 53.3271 93.7089 53.1709C93.7557 53.0107 93.8163 52.8682 93.8905 52.7432C93.9686 52.6182 94.0546 52.5088 94.1483 52.415C94.246 52.3174 94.3436 52.2373 94.4413 52.1748C94.5624 52.0967 94.6952 52.0381 94.8397 51.999C94.9843 51.9561 95.1288 51.9248 95.2733 51.9053C95.4218 51.8857 95.5663 51.874 95.7069 51.8701C95.8475 51.8662 95.9764 51.8643 96.0936 51.8643H98.8827V58.1396ZM97.7987 52.8135H96.1581C96.0175 52.8135 95.8964 52.8154 95.7948 52.8193C95.6932 52.8193 95.6034 52.8232 95.5253 52.8311C95.451 52.8389 95.3827 52.8525 95.3202 52.8721C95.2577 52.8916 95.1932 52.9189 95.1268 52.9541C94.9901 53.0322 94.8846 53.1475 94.8104 53.2998C94.7401 53.4521 94.705 53.6143 94.705 53.7861C94.705 53.9541 94.7303 54.0967 94.7811 54.2139C94.8319 54.3271 94.8983 54.4209 94.9803 54.4951C95.0663 54.5693 95.16 54.6279 95.2616 54.6709C95.3671 54.71 95.4725 54.7393 95.578 54.7588C95.6874 54.7744 95.7928 54.7842 95.8944 54.7881C95.996 54.792 96.0839 54.7939 96.1581 54.7939H97.7987V52.8135Z" fill="#636363"/>
<path d="M71.4999 22.8896C71.4999 35.2107 62.1782 45.1396 50.7499 45.1396C39.3215 45.1396 29.9999 35.2107 29.9999 22.8896C29.9999 10.5686 39.3215 0.639648 50.7499 0.639648C62.1782 0.639648 71.4999 10.5686 71.4999 22.8896Z" stroke="#A58C75"/>
<path d="M43.4999 18.6396V41.8896" stroke="#575359"/>
<path d="M55.4999 25.6396L55.4999 42.1396" stroke="#575359"/>
<path d="M55.7499 30.6396L57.9999 28.3896" stroke="#575359"/>
<path d="M50.7663 15.4962C52.4829 14.7274 54.3851 14.4715 56.2437 14.7594C58.1024 15.0472 59.8381 15.8665 61.2417 17.1185C62.6453 18.3705 63.6568 20.0017 64.1543 21.8155C64.6518 23.6293 64.6141 25.5483 64.0457 27.3411C63.4772 29.134 62.4024 30.7242 60.9507 31.92C59.499 33.1159 57.7324 33.8663 55.8639 34.0809C53.9954 34.2954 52.1047 33.965 50.4197 33.1294C48.7347 32.2937 47.3274 30.9886 46.3674 29.3712" stroke="#575359"/>
<path d="M50.9999 17.8896C50.9999 21.3343 50.1502 24.4287 48.8027 26.6456C47.4498 28.8713 45.6486 30.1396 43.7499 30.1396C41.8512 30.1396 40.05 28.8713 38.6971 26.6456C37.3496 24.4287 36.4999 21.3343 36.4999 17.8896C36.4999 14.445 37.3496 11.3506 38.6971 9.13374C40.05 6.90795 41.8512 5.63965 43.7499 5.63965C45.6486 5.63965 47.4498 6.90795 48.8027 9.13374C50.1502 11.3506 50.9999 14.445 50.9999 17.8896Z" stroke="#575359"/>
</svg>
