<svg width="92" height="60" viewBox="0 0 92 60" fill="none" xmlns="http://www.w3.org/2000/svg">
<path d="M0.890869 49.5269H2.03931V53.0776H6.62134V49.5269H7.77563V58.1401H6.62134V54.0854H2.03931V58.1401H0.890869V49.5269ZM9.46313 51.8647H10.5413V56.6753H10.5647L13.6467 51.8647H14.8831V58.1401H13.7991V53.3296H13.7756L10.6995 58.1401H9.46313V51.8647ZM16.4709 51.8647H17.5491V54.8999L20.719 51.8647H22.1311L19.1838 54.6362L22.178 58.1401H20.7893L18.3401 55.2925L17.5491 55.9546V58.1401H16.4709V51.8647ZM27.428 54.9937C27.428 54.646 27.3889 54.3276 27.3108 54.0386C27.2327 53.7456 27.1155 53.4937 26.9592 53.2827C26.803 53.0718 26.6096 52.9077 26.3792 52.7905C26.1526 52.6694 25.8889 52.6089 25.5881 52.6089C25.2874 52.6089 25.0237 52.6694 24.7971 52.7905C24.5706 52.9077 24.3792 53.0718 24.2229 53.2827C24.0667 53.4937 23.9495 53.7456 23.8713 54.0386C23.7932 54.3276 23.7542 54.646 23.7542 54.9937C23.7542 55.3452 23.7932 55.6694 23.8713 55.9663C23.9495 56.2593 24.0667 56.5112 24.2229 56.7222C24.3792 56.9331 24.5706 57.0991 24.7971 57.2202C25.0237 57.3374 25.2874 57.396 25.5881 57.396C25.8889 57.396 26.1526 57.3374 26.3792 57.2202C26.6096 57.0991 26.803 56.9331 26.9592 56.7222C27.1155 56.5112 27.2327 56.2593 27.3108 55.9663C27.3889 55.6694 27.428 55.3452 27.428 54.9937ZM28.5061 54.9937C28.5061 55.5093 28.4397 55.9741 28.3069 56.3882C28.1741 56.7983 27.9827 57.1479 27.7327 57.437C27.4827 57.7261 27.176 57.9487 26.8127 58.105C26.4534 58.2573 26.0452 58.3335 25.5881 58.3335C25.1311 58.3335 24.7229 58.2573 24.3635 58.105C24.0042 57.9487 23.6995 57.7261 23.4495 57.437C23.1995 57.1479 23.0081 56.7983 22.8752 56.3882C22.7424 55.9741 22.676 55.5093 22.676 54.9937C22.676 54.4858 22.7424 54.0269 22.8752 53.6167C23.0081 53.2065 23.1995 52.8569 23.4495 52.5679C23.6995 52.2788 24.0042 52.0581 24.3635 51.9058C24.7229 51.7495 25.1311 51.6714 25.5881 51.6714C26.0452 51.6714 26.4534 51.7495 26.8127 51.9058C27.176 52.0581 27.4827 52.2788 27.7327 52.5679C27.9827 52.8569 28.1741 53.2065 28.3069 53.6167C28.4397 54.0269 28.5061 54.4858 28.5061 54.9937ZM33.9495 52.8022H31.5471L31.5002 54.3081C31.4768 55.0698 31.4182 55.7065 31.3245 56.2183C31.2307 56.7261 31.1018 57.1343 30.9377 57.4429C30.7776 57.7515 30.5823 57.9702 30.3518 58.0991C30.1213 58.228 29.8577 58.2925 29.5608 58.2925C29.4514 58.2925 29.3557 58.2749 29.2737 58.2397C29.1956 58.2085 29.135 58.1753 29.092 58.1401V57.1909C29.2444 57.2495 29.3792 57.2788 29.4963 57.2788C29.5784 57.2788 29.6565 57.2651 29.7307 57.2378C29.8088 57.2104 29.8811 57.1577 29.9475 57.0796C30.0178 57.0015 30.0823 56.8921 30.1409 56.7515C30.1995 56.6069 30.2502 56.4194 30.2932 56.189C30.3401 55.9585 30.3772 55.6792 30.4045 55.3511C30.4358 55.0229 30.4573 54.6323 30.469 54.1792L30.5217 51.8647H35.0276V58.1401H33.9495V52.8022ZM36.6155 51.8647H37.6936V54.2261H39.4338C39.7776 54.2261 40.0842 54.2729 40.3538 54.3667C40.6233 54.4565 40.8518 54.5874 41.0393 54.7593C41.2268 54.9272 41.3694 55.1323 41.467 55.3745C41.5686 55.6128 41.6194 55.8823 41.6194 56.1831C41.6194 56.4878 41.5686 56.7612 41.467 57.0034C41.3694 57.2417 41.2268 57.4468 41.0393 57.6187C40.8518 57.7866 40.6233 57.9155 40.3538 58.0054C40.0842 58.0952 39.7776 58.1401 39.4338 58.1401H36.6155V51.8647ZM37.6936 57.2788H39.2229C39.4104 57.2788 39.5842 57.2593 39.7444 57.2202C39.9084 57.1812 40.0491 57.1187 40.1663 57.0327C40.2834 56.9429 40.3752 56.8296 40.4417 56.6929C40.5081 56.5522 40.5413 56.3823 40.5413 56.1831C40.5413 55.9878 40.5061 55.8218 40.4358 55.6851C40.3694 55.5483 40.2737 55.437 40.1487 55.3511C40.0276 55.2612 39.8792 55.1968 39.7034 55.1577C39.5315 55.1147 39.3381 55.0933 39.1233 55.0933H37.6936V57.2788ZM47.5491 55.9312C47.5334 56.0835 47.5022 56.2495 47.4553 56.4292C47.4124 56.6089 47.3479 56.7886 47.262 56.9683C47.176 57.144 47.0647 57.314 46.928 57.478C46.7952 57.6421 46.6311 57.7886 46.4358 57.9175C46.2444 58.0425 46.0178 58.1421 45.7561 58.2163C45.4944 58.2944 45.1956 58.3335 44.8596 58.3335C44.676 58.3335 44.4827 58.3101 44.2795 58.2632C44.0764 58.2202 43.8772 58.146 43.6819 58.0405C43.4905 57.9351 43.3069 57.8003 43.1311 57.6362C42.9592 57.4683 42.8069 57.2612 42.6741 57.0151C42.5452 56.769 42.4417 56.4839 42.3635 56.1597C42.2854 55.8315 42.2463 55.4565 42.2463 55.0347C42.2463 54.5151 42.3206 54.0483 42.469 53.6343C42.6174 53.2163 42.8147 52.8628 43.0608 52.5737C43.3108 52.2847 43.5999 52.062 43.928 51.9058C44.26 51.7495 44.6077 51.6714 44.9709 51.6714C45.2991 51.6714 45.5881 51.7065 45.8381 51.7769C46.092 51.8472 46.3127 51.9409 46.5002 52.0581C46.6877 52.1753 46.8459 52.312 46.9749 52.4683C47.1038 52.6206 47.2073 52.7827 47.2854 52.9546C47.3674 53.1226 47.428 53.2944 47.467 53.4702C47.51 53.646 47.5374 53.814 47.5491 53.9741H46.5413C46.4866 53.5483 46.3381 53.2144 46.0959 52.9722C45.8577 52.73 45.5217 52.6089 45.0881 52.6089C44.7913 52.6089 44.5315 52.6694 44.3088 52.7905C44.0901 52.9116 43.9065 53.0815 43.7581 53.3003C43.6135 53.5151 43.5042 53.7769 43.4299 54.0854C43.3596 54.3901 43.3245 54.7261 43.3245 55.0933C43.3245 55.5073 43.3635 55.8647 43.4417 56.1655C43.5198 56.4624 43.6311 56.7085 43.7756 56.9038C43.9202 57.0952 44.0959 57.2378 44.303 57.3315C44.5139 57.4214 44.7522 57.4663 45.0178 57.4663C45.2053 57.4663 45.3831 57.4331 45.551 57.3667C45.719 57.2964 45.8694 57.1968 46.0022 57.0679C46.135 56.9351 46.2483 56.7729 46.342 56.5815C46.4358 56.3901 46.5022 56.1733 46.5413 55.9312H47.5491ZM48.6155 51.8647H49.6936V54.8999L52.8635 51.8647H54.2756L51.3284 54.6362L54.3225 58.1401H52.9338L50.4846 55.2925L49.6936 55.9546V58.1401H48.6155V51.8647ZM55.1897 51.8647H56.2678V56.6753H56.2913L59.3733 51.8647H60.6096V58.1401H59.5256V53.3296H59.5022L56.426 58.1401H55.1897V51.8647ZM63.8909 49.4272C63.9417 49.6772 64.0471 49.8765 64.2073 50.0249C64.3674 50.1694 64.6038 50.2417 64.9163 50.2417C65.2327 50.2417 65.4709 50.1714 65.6311 50.0308C65.7913 49.8862 65.8948 49.6851 65.9417 49.4272H66.9436C66.9397 49.6616 66.8889 49.8745 66.7913 50.0659C66.6936 50.2534 66.5549 50.4136 66.3752 50.5464C66.1995 50.6792 65.9866 50.7827 65.7366 50.8569C65.4905 50.9272 65.217 50.9624 64.9163 50.9624C64.6155 50.9624 64.342 50.9272 64.0959 50.8569C63.8499 50.7866 63.6389 50.6851 63.4631 50.5522C63.2874 50.4194 63.1487 50.2593 63.0471 50.0718C62.9495 49.8804 62.8987 49.6655 62.8948 49.4272H63.8909ZM62.1975 51.8647H63.2756V56.6753H63.2991L66.3811 51.8647H67.6174V58.1401H66.5334V53.3296H66.51L63.4338 58.1401H62.1975V51.8647ZM77.4788 55.9312C77.4631 56.0835 77.4319 56.2495 77.385 56.4292C77.342 56.6089 77.2776 56.7886 77.1917 56.9683C77.1057 57.144 76.9944 57.314 76.8577 57.478C76.7249 57.6421 76.5608 57.7886 76.3655 57.9175C76.1741 58.0425 75.9475 58.1421 75.6858 58.2163C75.4241 58.2944 75.1252 58.3335 74.7893 58.3335C74.6057 58.3335 74.4124 58.3101 74.2092 58.2632C74.0061 58.2202 73.8069 58.146 73.6116 58.0405C73.4202 57.9351 73.2366 57.8003 73.0608 57.6362C72.8889 57.4683 72.7366 57.2612 72.6038 57.0151C72.4749 56.769 72.3713 56.4839 72.2932 56.1597C72.2151 55.8315 72.176 55.4565 72.176 55.0347C72.176 54.5151 72.2502 54.0483 72.3987 53.6343C72.5471 53.2163 72.7444 52.8628 72.9905 52.5737C73.2405 52.2847 73.5295 52.062 73.8577 51.9058C74.1897 51.7495 74.5374 51.6714 74.9006 51.6714C75.2288 51.6714 75.5178 51.7065 75.7678 51.7769C76.0217 51.8472 76.2424 51.9409 76.4299 52.0581C76.6174 52.1753 76.7756 52.312 76.9045 52.4683C77.0334 52.6206 77.137 52.7827 77.2151 52.9546C77.2971 53.1226 77.3577 53.2944 77.3967 53.4702C77.4397 53.646 77.467 53.814 77.4788 53.9741H76.4709C76.4163 53.5483 76.2678 53.2144 76.0256 52.9722C75.7874 52.73 75.4514 52.6089 75.0178 52.6089C74.7209 52.6089 74.4612 52.6694 74.2385 52.7905C74.0198 52.9116 73.8362 53.0815 73.6877 53.3003C73.5432 53.5151 73.4338 53.7769 73.3596 54.0854C73.2893 54.3901 73.2542 54.7261 73.2542 55.0933C73.2542 55.5073 73.2932 55.8647 73.3713 56.1655C73.4495 56.4624 73.5608 56.7085 73.7053 56.9038C73.8499 57.0952 74.0256 57.2378 74.2327 57.3315C74.4436 57.4214 74.6819 57.4663 74.9475 57.4663C75.135 57.4663 75.3127 57.4331 75.4807 57.3667C75.6487 57.2964 75.7991 57.1968 75.9319 57.0679C76.0647 56.9351 76.178 56.7729 76.2717 56.5815C76.3655 56.3901 76.4319 56.1733 76.4709 55.9312H77.4788ZM78.5334 53.7456C78.5452 53.3628 78.6174 53.0405 78.7502 52.7788C78.8831 52.5132 79.0627 52.2983 79.2893 52.1343C79.5159 51.9702 79.7834 51.853 80.092 51.7827C80.4045 51.7085 80.7444 51.6714 81.1116 51.6714C81.4163 51.6714 81.7112 51.7026 81.9963 51.7651C82.2854 51.8276 82.5413 51.9292 82.7639 52.0698C82.9866 52.2065 83.1643 52.3862 83.2971 52.6089C83.4338 52.8276 83.5022 53.0952 83.5022 53.4116V57.062C83.5022 57.1636 83.5295 57.2515 83.5842 57.3257C83.6389 57.396 83.7268 57.4312 83.8479 57.4312C83.9026 57.4312 83.9592 57.4272 84.0178 57.4194C84.0764 57.4077 84.137 57.396 84.1995 57.3843V58.1284C84.1096 58.1519 84.0198 58.1733 83.9299 58.1929C83.844 58.2124 83.7405 58.2222 83.6194 58.2222C83.4319 58.2222 83.2698 58.2065 83.1331 58.1753C83.0002 58.144 82.887 58.0933 82.7932 58.0229C82.7034 57.9487 82.6331 57.855 82.5823 57.7417C82.5315 57.6245 82.4983 57.4819 82.4827 57.314C82.3499 57.4585 82.2092 57.5933 82.0608 57.7183C81.9124 57.8394 81.7463 57.9468 81.5627 58.0405C81.3792 58.1304 81.1741 58.2007 80.9475 58.2515C80.7209 58.3062 80.4651 58.3335 80.1799 58.3335C79.9377 58.3335 79.7014 58.2944 79.4709 58.2163C79.2444 58.1382 79.0393 58.0229 78.8557 57.8706C78.676 57.7183 78.5315 57.5308 78.4221 57.3081C78.3127 57.0815 78.2581 56.8198 78.2581 56.5229C78.2581 56.1987 78.3127 55.9194 78.4221 55.6851C78.5315 55.4468 78.6741 55.2495 78.8499 55.0933C79.0256 54.9331 79.2268 54.8101 79.4534 54.7241C79.6799 54.6382 79.9104 54.5815 80.1448 54.5542L81.9084 54.3374C82.0764 54.3179 82.2073 54.2534 82.301 54.144C82.3987 54.0308 82.4475 53.8511 82.4475 53.605C82.4475 53.2261 82.3225 52.9546 82.0725 52.7905C81.8264 52.6226 81.4709 52.5386 81.0061 52.5386C80.5295 52.5386 80.1741 52.6401 79.9397 52.8433C79.7053 53.0425 79.5725 53.3433 79.5413 53.7456H78.5334ZM82.4241 54.9468C82.3381 55.0093 82.2307 55.062 82.1018 55.105C81.9768 55.144 81.8381 55.1772 81.6858 55.2046C81.5334 55.2319 81.3713 55.2573 81.1995 55.2808C81.0276 55.3003 80.8557 55.3218 80.6838 55.3452C80.4885 55.3726 80.3088 55.4116 80.1448 55.4624C79.9807 55.5132 79.8381 55.5796 79.717 55.6616C79.5959 55.7437 79.5022 55.8433 79.4358 55.9604C79.3694 56.0737 79.3362 56.2085 79.3362 56.3647C79.3362 56.5444 79.3635 56.7026 79.4182 56.8394C79.4768 56.9761 79.5549 57.0913 79.6526 57.1851C79.7542 57.2788 79.8752 57.3491 80.0159 57.396C80.1565 57.4429 80.3108 57.4663 80.4788 57.4663C80.5842 57.4663 80.7053 57.4546 80.842 57.4312C80.9788 57.4038 81.1194 57.3647 81.2639 57.314C81.4084 57.2632 81.5491 57.1987 81.6858 57.1206C81.8264 57.0386 81.9514 56.9409 82.0608 56.8276C82.1702 56.7144 82.2581 56.5854 82.3245 56.4409C82.3909 56.2964 82.4241 56.1343 82.4241 55.9546V54.9468ZM90.4573 58.1401H85.6057V59.6753H84.5979V57.2026H85.4241C85.5959 56.7808 85.7327 56.3511 85.8342 55.9136C85.9358 55.4722 86.0139 55.0288 86.0686 54.5835C86.1233 54.1343 86.1584 53.6831 86.1741 53.23C86.1897 52.7769 86.1975 52.3218 86.1975 51.8647H90.5803V57.2026H91.4651V59.6753H90.4573V58.1401ZM89.5022 57.2026V52.8022H87.2288C87.2014 53.1577 87.1721 53.5229 87.1409 53.8979C87.1135 54.2729 87.0745 54.6499 87.0237 55.0288C86.9768 55.4038 86.9124 55.7749 86.8303 56.1421C86.7522 56.5093 86.6487 56.8628 86.5198 57.2026H89.5022Z" fill="#636363"/>
<path d="M68.5002 22.8901C68.5002 35.2111 59.1786 45.1401 47.7502 45.1401C36.3219 45.1401 27.0002 35.2111 27.0002 22.8901C27.0002 10.5691 36.3219 0.640137 47.7502 0.640137C59.1786 0.640137 68.5002 10.5691 68.5002 22.8901Z" stroke="#A58C75"/>
<path d="M40.5002 18.6401V41.8901" stroke="#575359"/>
<path d="M52.5002 25.6401L52.5002 42.1401" stroke="#575359"/>
<path d="M52.7502 30.6401L55.0002 28.3901" stroke="#575359"/>
<path d="M47.7667 15.4967C49.4832 14.7279 51.3855 14.472 53.2441 14.7599C55.1028 15.0477 56.8385 15.867 58.2421 17.119C59.6456 18.3709 60.6571 20.0021 61.1546 21.816C61.6522 23.6298 61.6144 25.5488 61.046 27.3416C60.4776 29.1345 59.4028 30.7247 57.9511 31.9205C56.4994 33.1163 54.7328 33.8668 52.8643 34.0814C50.9958 34.2959 49.1051 33.9655 47.4201 33.1299C45.7351 32.2942 44.3278 30.9891 43.3677 29.3717" stroke="#575359"/>
<path d="M48.0002 17.8901C48.0002 21.3348 47.1505 24.4292 45.8031 26.646C44.4501 28.8718 42.6489 30.1401 40.7502 30.1401C38.8516 30.1401 37.0504 28.8718 35.6974 26.646C34.3499 24.4292 33.5002 21.3348 33.5002 17.8901C33.5002 14.4455 34.3499 11.3511 35.6974 9.13423C37.0504 6.90843 38.8516 5.64014 40.7502 5.64014C42.6489 5.64014 44.4501 6.90843 45.8031 9.13423C47.1505 11.3511 48.0002 14.4455 48.0002 17.8901Z" stroke="#575359"/>
</svg>
