<svg width="90" height="53" viewBox="0 0 90 53" fill="none" xmlns="http://www.w3.org/2000/svg">
<path d="M76.7983 1.14014L88.9999 26.454V39.1109L77.9075 42.4613L70.1428 26.454L5.43691 52.1401L0.999939 43.5781V30.9212L76.7983 1.14014Z" fill="#B09A85"/>
<path d="M0.999939 30.9212L5.43691 40.9723M0.999939 30.9212L76.7983 1.14014L88.9999 26.454M0.999939 30.9212V43.5781L5.43691 52.1401M5.43691 40.9723L70.1428 14.9139L77.9075 30.9212M5.43691 40.9723V52.1401M77.9075 30.9212L88.9999 26.454M77.9075 30.9212V42.4613M88.9999 26.454V39.1109L77.9075 42.4613M5.43691 52.1401L70.1428 26.454L77.9075 42.4613" stroke="white"/>
</svg>
