<svg width="94" height="61" viewBox="0 0 94 61" fill="none" xmlns="http://www.w3.org/2000/svg">
<path d="M0.890778 49.5266H2.03922V53.3176H3.39273C3.4357 52.7161 3.55484 52.1692 3.75015 51.677C3.94937 51.1848 4.2189 50.7629 4.55875 50.4114C4.89859 50.0598 5.3107 49.7883 5.79507 49.5969C6.27945 49.4055 6.83023 49.3098 7.44742 49.3098C8.11148 49.3098 8.69742 49.4211 9.20523 49.6438C9.71304 49.8625 10.1388 50.1711 10.4826 50.5696C10.8302 50.968 11.0919 51.4446 11.2677 51.9993C11.4435 52.554 11.5314 53.1653 11.5314 53.8333C11.5314 54.2043 11.4962 54.5754 11.4259 54.9465C11.3595 55.3137 11.2541 55.6653 11.1095 56.0012C10.9689 56.3333 10.7873 56.6438 10.5646 56.9329C10.3459 57.218 10.0841 57.468 9.77945 57.6829C9.47867 57.8938 9.13297 58.0579 8.74234 58.175C8.35562 58.2961 7.92398 58.3567 7.44742 58.3567C7.00601 58.3567 6.60172 58.304 6.23453 58.1985C5.87125 58.0969 5.54312 57.9543 5.25015 57.7708C4.96109 57.5872 4.70718 57.3704 4.48843 57.1204C4.26968 56.8665 4.08218 56.5911 3.92593 56.2942C3.77359 55.9934 3.6525 55.677 3.56265 55.345C3.47672 55.0129 3.42007 54.6731 3.39273 54.3254H2.03922V58.1399H0.890778V49.5266ZM10.383 53.8333C10.383 53.3215 10.3146 52.8508 10.1779 52.4211C10.0451 51.9875 9.85172 51.6165 9.59781 51.3079C9.3439 50.9954 9.03531 50.7532 8.67203 50.5813C8.30875 50.4055 7.90054 50.3176 7.44742 50.3176C6.99429 50.3176 6.58609 50.4055 6.22281 50.5813C5.86343 50.7532 5.55679 50.9954 5.30289 51.3079C5.04898 51.6165 4.85367 51.9875 4.71695 52.4211C4.58414 52.8508 4.51773 53.3215 4.51773 53.8333C4.51773 54.3567 4.58804 54.8352 4.72867 55.2688C4.86929 55.6985 5.06656 56.0676 5.32047 56.3762C5.57828 56.6848 5.88687 56.925 6.24625 57.0969C6.60562 57.2649 7.00601 57.3489 7.44742 57.3489C7.96304 57.3489 8.40445 57.2649 8.77164 57.0969C9.14273 56.925 9.44742 56.6848 9.6857 56.3762C9.92398 56.0676 10.0998 55.6985 10.213 55.2688C10.3263 54.8352 10.383 54.3567 10.383 53.8333ZM17.7248 55.9309C17.7091 56.0833 17.6779 56.2493 17.631 56.429C17.588 56.6086 17.5236 56.7883 17.4377 56.968C17.3517 57.1438 17.2404 57.3137 17.1037 57.4778C16.9709 57.6418 16.8068 57.7883 16.6115 57.9172C16.4201 58.0422 16.1935 58.1418 15.9318 58.2161C15.6701 58.2942 15.3712 58.3333 15.0353 58.3333C14.8517 58.3333 14.6584 58.3098 14.4552 58.2629C14.2521 58.22 14.0529 58.1458 13.8576 58.0403C13.6662 57.9348 13.4826 57.8 13.3068 57.636C13.1349 57.468 12.9826 57.261 12.8498 57.0149C12.7209 56.7688 12.6173 56.4836 12.5392 56.1594C12.4611 55.8313 12.422 55.4563 12.422 55.0344C12.422 54.5149 12.4962 54.0481 12.6447 53.634C12.7931 53.2161 12.9904 52.8625 13.2365 52.5735C13.4865 52.2844 13.7755 52.0618 14.1037 51.9055C14.4357 51.7493 14.7834 51.6711 15.1466 51.6711C15.4748 51.6711 15.7638 51.7063 16.0138 51.7766C16.2677 51.8469 16.4884 51.9407 16.6759 52.0579C16.8634 52.175 17.0216 52.3118 17.1505 52.468C17.2794 52.6204 17.383 52.7825 17.4611 52.9543C17.5431 53.1223 17.6037 53.2942 17.6427 53.47C17.6857 53.6458 17.713 53.8137 17.7248 53.9739H16.7169C16.6623 53.5481 16.5138 53.2141 16.2716 52.9719C16.0334 52.7297 15.6974 52.6086 15.2638 52.6086C14.9669 52.6086 14.7072 52.6692 14.4845 52.7903C14.2658 52.9114 14.0822 53.0813 13.9337 53.3C13.7892 53.5149 13.6798 53.7766 13.6056 54.0852C13.5353 54.3899 13.5002 54.7258 13.5002 55.093C13.5002 55.5071 13.5392 55.8645 13.6173 56.1653C13.6955 56.4622 13.8068 56.7083 13.9513 56.9036C14.0959 57.095 14.2716 57.2375 14.4787 57.3313C14.6896 57.4211 14.9279 57.4661 15.1935 57.4661C15.381 57.4661 15.5587 57.4329 15.7267 57.3665C15.8947 57.2961 16.0451 57.1965 16.1779 57.0676C16.3107 56.9348 16.424 56.7727 16.5177 56.5813C16.6115 56.3899 16.6779 56.1731 16.7169 55.9309H17.7248ZM18.1349 51.8645H19.3185L20.9884 56.9739H21.0119L22.6818 51.8645H23.8654L21.4689 58.3918C21.3478 58.72 21.2365 59.0051 21.1349 59.2473C21.0334 59.4895 20.9337 59.6946 20.8361 59.8625C20.7384 60.0344 20.6388 60.1731 20.5373 60.2786C20.4396 60.384 20.3302 60.4661 20.2091 60.5247C20.0919 60.5872 19.9591 60.6282 19.8107 60.6477C19.6662 60.6711 19.4982 60.6829 19.3068 60.6829C19.1505 60.6829 19.0275 60.675 18.9377 60.6594C18.8517 60.6477 18.7755 60.6321 18.7091 60.6125V59.6399C18.7794 59.6633 18.8712 59.6868 18.9845 59.7102C19.0978 59.7336 19.2169 59.7454 19.3419 59.7454C19.5412 59.7454 19.7013 59.6965 19.8224 59.5989C19.9474 59.5051 20.0431 59.3704 20.1095 59.1946L20.4611 58.3098L18.1349 51.8645ZM28.799 52.802H25.8693V58.1399H24.7912V51.8645H29.883V58.1399H28.799V52.802ZM35.8537 54.9934C35.8537 54.6458 35.8146 54.3274 35.7365 54.0383C35.6584 53.7454 35.5412 53.4934 35.3849 53.2825C35.2287 53.0715 35.0353 52.9075 34.8048 52.7903C34.5783 52.6692 34.3146 52.6086 34.0138 52.6086C33.713 52.6086 33.4494 52.6692 33.2228 52.7903C32.9962 52.9075 32.8048 53.0715 32.6486 53.2825C32.4923 53.4934 32.3752 53.7454 32.297 54.0383C32.2189 54.3274 32.1798 54.6458 32.1798 54.9934C32.1798 55.345 32.2189 55.6692 32.297 55.9661C32.3752 56.259 32.4923 56.511 32.6486 56.7219C32.8048 56.9329 32.9962 57.0989 33.2228 57.22C33.4494 57.3372 33.713 57.3958 34.0138 57.3958C34.3146 57.3958 34.5783 57.3372 34.8048 57.22C35.0353 57.0989 35.2287 56.9329 35.3849 56.7219C35.5412 56.511 35.6584 56.259 35.7365 55.9661C35.8146 55.6692 35.8537 55.345 35.8537 54.9934ZM36.9318 54.9934C36.9318 55.509 36.8654 55.9739 36.7326 56.3879C36.5998 56.7981 36.4084 57.1477 36.1584 57.4368C35.9084 57.7258 35.6017 57.9485 35.2384 58.1047C34.8791 58.2571 34.4709 58.3333 34.0138 58.3333C33.5568 58.3333 33.1486 58.2571 32.7892 58.1047C32.4298 57.9485 32.1252 57.7258 31.8752 57.4368C31.6252 57.1477 31.4337 56.7981 31.3009 56.3879C31.1681 55.9739 31.1017 55.509 31.1017 54.9934C31.1017 54.4856 31.1681 54.0266 31.3009 53.6165C31.4337 53.2063 31.6252 52.8567 31.8752 52.5676C32.1252 52.2786 32.4298 52.0579 32.7892 51.9055C33.1486 51.7493 33.5568 51.6711 34.0138 51.6711C34.4709 51.6711 34.8791 51.7493 35.2384 51.9055C35.6017 52.0579 35.9084 52.2786 36.1584 52.5676C36.4084 52.8567 36.5998 53.2063 36.7326 53.6165C36.8654 54.0266 36.9318 54.4856 36.9318 54.9934ZM38.1505 51.8645H40.8224C41.588 51.8645 42.1603 52.0071 42.5392 52.2922C42.922 52.5774 43.1134 52.9915 43.1134 53.5344C43.1134 53.8235 43.0431 54.0676 42.9025 54.2668C42.7619 54.4661 42.5763 54.6418 42.3459 54.7942C42.6779 54.9192 42.9416 55.0989 43.1369 55.3333C43.3322 55.5676 43.4298 55.8704 43.4298 56.2415C43.4298 56.5344 43.381 56.7981 43.2834 57.0325C43.1857 57.2668 43.0373 57.4661 42.838 57.6301C42.6388 57.7942 42.3849 57.9211 42.0763 58.011C41.7716 58.0969 41.4103 58.1399 40.9923 58.1399H38.1505V51.8645ZM39.2287 57.2786H40.8693C41.1544 57.2786 41.3908 57.2571 41.5783 57.2141C41.7697 57.1672 41.922 57.1008 42.0353 57.0149C42.1486 56.929 42.2287 56.8254 42.2755 56.7043C42.3224 56.5833 42.3459 56.4465 42.3459 56.2942C42.3459 56.1418 42.3224 56.0051 42.2755 55.884C42.2287 55.759 42.1486 55.6555 42.0353 55.5735C41.922 55.4875 41.7697 55.4231 41.5783 55.3801C41.3908 55.3333 41.1544 55.3098 40.8693 55.3098H39.2287V57.2786ZM39.2287 54.5188H40.8576C41.2209 54.5188 41.508 54.4465 41.7189 54.302C41.9298 54.1575 42.0353 53.9329 42.0353 53.6282C42.0353 53.4563 42.006 53.3137 41.9474 53.2004C41.8888 53.0833 41.8107 52.9895 41.713 52.9192C41.6154 52.8489 41.5041 52.8 41.3791 52.7727C41.258 52.7415 41.133 52.7258 41.0041 52.7258H39.2287V54.5188ZM49.6584 55.9309C49.6427 56.0833 49.6115 56.2493 49.5646 56.429C49.5216 56.6086 49.4572 56.7883 49.3712 56.968C49.2853 57.1438 49.174 57.3137 49.0373 57.4778C48.9044 57.6418 48.7404 57.7883 48.5451 57.9172C48.3537 58.0422 48.1271 58.1418 47.8654 58.2161C47.6037 58.2942 47.3048 58.3333 46.9689 58.3333C46.7853 58.3333 46.5919 58.3098 46.3888 58.2629C46.1857 58.22 45.9865 58.1458 45.7912 58.0403C45.5998 57.9348 45.4162 57.8 45.2404 57.636C45.0685 57.468 44.9162 57.261 44.7834 57.0149C44.6544 56.7688 44.5509 56.4836 44.4728 56.1594C44.3947 55.8313 44.3556 55.4563 44.3556 55.0344C44.3556 54.5149 44.4298 54.0481 44.5783 53.634C44.7267 53.2161 44.924 52.8625 45.1701 52.5735C45.4201 52.2844 45.7091 52.0618 46.0373 51.9055C46.3693 51.7493 46.7169 51.6711 47.0802 51.6711C47.4084 51.6711 47.6974 51.7063 47.9474 51.7766C48.2013 51.8469 48.422 51.9407 48.6095 52.0579C48.797 52.175 48.9552 52.3118 49.0841 52.468C49.213 52.6204 49.3166 52.7825 49.3947 52.9543C49.4767 53.1223 49.5373 53.2942 49.5763 53.47C49.6193 53.6458 49.6466 53.8137 49.6584 53.9739H48.6505C48.5959 53.5481 48.4474 53.2141 48.2052 52.9719C47.9669 52.7297 47.631 52.6086 47.1974 52.6086C46.9005 52.6086 46.6408 52.6692 46.4181 52.7903C46.1994 52.9114 46.0158 53.0813 45.8673 53.3C45.7228 53.5149 45.6134 53.7766 45.5392 54.0852C45.4689 54.3899 45.4337 54.7258 45.4337 55.093C45.4337 55.5071 45.4728 55.8645 45.5509 56.1653C45.6291 56.4622 45.7404 56.7083 45.8849 56.9036C46.0294 57.095 46.2052 57.2375 46.4123 57.3313C46.6232 57.4211 46.8615 57.4661 47.1271 57.4661C47.3146 57.4661 47.4923 57.4329 47.6603 57.3665C47.8283 57.2961 47.9787 57.1965 48.1115 57.0676C48.2443 56.9348 48.3576 56.7727 48.4513 56.5813C48.5451 56.3899 48.6115 56.1731 48.6505 55.9309H49.6584ZM50.7248 51.8645H51.8029V54.8997L54.9728 51.8645H56.3849L53.4377 54.636L56.4318 58.1399H55.0431L52.5939 55.2922L51.8029 55.9543V58.1399H50.7248V51.8645ZM57.299 51.8645H58.3771V56.675H58.4005L61.4826 51.8645H62.7189V58.1399H61.6349V53.3293H61.6115L58.5353 58.1399H57.299V51.8645ZM66.0002 49.427C66.0509 49.677 66.1564 49.8762 66.3166 50.0247C66.4767 50.1692 66.713 50.2415 67.0255 50.2415C67.3419 50.2415 67.5802 50.1711 67.7404 50.0305C67.9005 49.886 68.0041 49.6848 68.0509 49.427H69.0529C69.049 49.6614 68.9982 49.8743 68.9005 50.0657C68.8029 50.2532 68.6642 50.4133 68.4845 50.5461C68.3087 50.679 68.0959 50.7825 67.8459 50.8567C67.5998 50.927 67.3263 50.9622 67.0255 50.9622C66.7248 50.9622 66.4513 50.927 66.2052 50.8567C65.9591 50.7864 65.7482 50.6848 65.5724 50.552C65.3966 50.4192 65.258 50.259 65.1564 50.0715C65.0587 49.8801 65.008 49.6653 65.0041 49.427H66.0002ZM64.3068 51.8645H65.3849V56.675H65.4084L68.4904 51.8645H69.7267V58.1399H68.6427V53.3293H68.6193L65.5431 58.1399H64.3068V51.8645ZM79.588 55.9309C79.5724 56.0833 79.5412 56.2493 79.4943 56.429C79.4513 56.6086 79.3869 56.7883 79.3009 56.968C79.215 57.1438 79.1037 57.3137 78.9669 57.4778C78.8341 57.6418 78.6701 57.7883 78.4748 57.9172C78.2834 58.0422 78.0568 58.1418 77.7951 58.2161C77.5334 58.2942 77.2345 58.3333 76.8986 58.3333C76.715 58.3333 76.5216 58.3098 76.3185 58.2629C76.1154 58.22 75.9162 58.1458 75.7209 58.0403C75.5294 57.9348 75.3459 57.8 75.1701 57.636C74.9982 57.468 74.8459 57.261 74.713 57.0149C74.5841 56.7688 74.4806 56.4836 74.4025 56.1594C74.3244 55.8313 74.2853 55.4563 74.2853 55.0344C74.2853 54.5149 74.3595 54.0481 74.508 53.634C74.6564 53.2161 74.8537 52.8625 75.0998 52.5735C75.3498 52.2844 75.6388 52.0618 75.9669 51.9055C76.299 51.7493 76.6466 51.6711 77.0099 51.6711C77.338 51.6711 77.6271 51.7063 77.8771 51.7766C78.131 51.8469 78.3517 51.9407 78.5392 52.0579C78.7267 52.175 78.8849 52.3118 79.0138 52.468C79.1427 52.6204 79.2462 52.7825 79.3244 52.9543C79.4064 53.1223 79.4669 53.2942 79.506 53.47C79.549 53.6458 79.5763 53.8137 79.588 53.9739H78.5802C78.5255 53.5481 78.3771 53.2141 78.1349 52.9719C77.8966 52.7297 77.5607 52.6086 77.1271 52.6086C76.8302 52.6086 76.5705 52.6692 76.3478 52.7903C76.1291 52.9114 75.9455 53.0813 75.797 53.3C75.6525 53.5149 75.5431 53.7766 75.4689 54.0852C75.3986 54.3899 75.3634 54.7258 75.3634 55.093C75.3634 55.5071 75.4025 55.8645 75.4806 56.1653C75.5587 56.4622 75.6701 56.7083 75.8146 56.9036C75.9591 57.095 76.1349 57.2375 76.3419 57.3313C76.5529 57.4211 76.7912 57.4661 77.0568 57.4661C77.2443 57.4661 77.422 57.4329 77.59 57.3665C77.758 57.2961 77.9084 57.1965 78.0412 57.0676C78.174 56.9348 78.2873 56.7727 78.381 56.5813C78.4748 56.3899 78.5412 56.1731 78.5802 55.9309H79.588ZM80.6427 53.7454C80.6544 53.3625 80.7267 53.0403 80.8595 52.7786C80.9923 52.5129 81.172 52.2981 81.3986 52.134C81.6252 51.97 81.8927 51.8528 82.2013 51.7825C82.5138 51.7083 82.8537 51.6711 83.2209 51.6711C83.5255 51.6711 83.8205 51.7024 84.1056 51.7649C84.3947 51.8274 84.6505 51.929 84.8732 52.0696C85.0959 52.2063 85.2736 52.386 85.4064 52.6086C85.5431 52.8274 85.6115 53.095 85.6115 53.4114V57.0618C85.6115 57.1633 85.6388 57.2512 85.6935 57.3254C85.7482 57.3958 85.8361 57.4309 85.9572 57.4309C86.0119 57.4309 86.0685 57.427 86.1271 57.4192C86.1857 57.4075 86.2462 57.3958 86.3087 57.384V58.1282C86.2189 58.1516 86.1291 58.1731 86.0392 58.1926C85.9533 58.2122 85.8498 58.2219 85.7287 58.2219C85.5412 58.2219 85.3791 58.2063 85.2423 58.175C85.1095 58.1438 84.9962 58.093 84.9025 58.0227C84.8127 57.9485 84.7423 57.8547 84.6916 57.7415C84.6408 57.6243 84.6076 57.4817 84.5919 57.3137C84.4591 57.4583 84.3185 57.593 84.1701 57.718C84.0216 57.8391 83.8556 57.9465 83.672 58.0403C83.4884 58.1301 83.2834 58.2004 83.0568 58.2512C82.8302 58.3059 82.5744 58.3333 82.2892 58.3333C82.047 58.3333 81.8107 58.2942 81.5802 58.2161C81.3537 58.1379 81.1486 58.0227 80.965 57.8704C80.7853 57.718 80.6408 57.5305 80.5314 57.3079C80.422 57.0813 80.3673 56.8196 80.3673 56.5227C80.3673 56.1985 80.422 55.9192 80.5314 55.6848C80.6408 55.4465 80.7834 55.2493 80.9591 55.093C81.1349 54.9329 81.3361 54.8098 81.5627 54.7239C81.7892 54.6379 82.0197 54.5813 82.2541 54.554L84.0177 54.3372C84.1857 54.3176 84.3166 54.2532 84.4103 54.1438C84.508 54.0305 84.5568 53.8508 84.5568 53.6047C84.5568 53.2258 84.4318 52.9543 84.1818 52.7903C83.9357 52.6223 83.5802 52.5383 83.1154 52.5383C82.6388 52.5383 82.2834 52.6399 82.049 52.843C81.8146 53.0422 81.6818 53.343 81.6505 53.7454H80.6427ZM84.5334 54.9465C84.4474 55.009 84.34 55.0618 84.2111 55.1047C84.0861 55.1438 83.9474 55.177 83.7951 55.2043C83.6427 55.2317 83.4806 55.2571 83.3087 55.2805C83.1369 55.3 82.965 55.3215 82.7931 55.345C82.5978 55.3723 82.4181 55.4114 82.2541 55.4622C82.09 55.5129 81.9474 55.5793 81.8263 55.6614C81.7052 55.7434 81.6115 55.843 81.5451 55.9602C81.4787 56.0735 81.4455 56.2083 81.4455 56.3645C81.4455 56.5442 81.4728 56.7024 81.5275 56.8391C81.5861 56.9758 81.6642 57.0911 81.7619 57.1848C81.8634 57.2786 81.9845 57.3489 82.1252 57.3958C82.2658 57.4426 82.4201 57.4661 82.588 57.4661C82.6935 57.4661 82.8146 57.4543 82.9513 57.4309C83.088 57.4036 83.2287 57.3645 83.3732 57.3137C83.5177 57.2629 83.6584 57.1985 83.7951 57.1204C83.9357 57.0383 84.0607 56.9407 84.1701 56.8274C84.2794 56.7141 84.3673 56.5852 84.4337 56.4407C84.5002 56.2961 84.5334 56.134 84.5334 55.9543V54.9465ZM92.5666 58.1399H87.715V59.675H86.7072V57.2024H87.5334C87.7052 56.7805 87.8419 56.3508 87.9435 55.9133C88.0451 55.4719 88.1232 55.0286 88.1779 54.5833C88.2326 54.134 88.2677 53.6829 88.2834 53.2297C88.299 52.7766 88.3068 52.3215 88.3068 51.8645H92.6896V57.2024H93.5744V59.675H92.5666V58.1399ZM91.6115 57.2024V52.802H89.338C89.3107 53.1575 89.2814 53.5227 89.2502 53.8977C89.2228 54.2727 89.1837 54.6497 89.133 55.0286C89.0861 55.4036 89.0216 55.7747 88.9396 56.1418C88.8615 56.509 88.758 56.8625 88.6291 57.2024H91.6115Z" fill="#636363"/>
<path d="M69.5002 22.8899C69.5002 35.2109 60.1785 45.1399 48.7502 45.1399C37.3218 45.1399 28.0002 35.2109 28.0002 22.8899C28.0002 10.5689 37.3218 0.639893 48.7502 0.639893C60.1785 0.639893 69.5002 10.5689 69.5002 22.8899Z" stroke="#A58C75"/>
<path d="M41.5002 18.6399V41.8899" stroke="#575359"/>
<path d="M53.5002 25.6399L53.5002 42.1399" stroke="#575359"/>
<path d="M53.7502 30.6399L56.0002 28.3899" stroke="#575359"/>
<path d="M48.7666 15.4964C50.4831 14.7277 52.3854 14.4718 54.244 14.7596C56.1027 15.0475 57.8384 15.8668 59.242 17.1187C60.6455 18.3707 61.657 20.0019 62.1546 21.8157C62.6521 23.6295 62.6143 25.5485 62.0459 27.3414C61.4775 29.1342 60.4027 30.7244 58.951 31.9203C57.4993 33.1161 55.7327 33.8665 53.8642 34.0811C51.9957 34.2957 50.105 33.9652 48.42 33.1296C46.735 32.294 45.3277 30.9888 44.3677 29.3715" stroke="#575359"/>
<path d="M49.0002 17.8899C49.0002 21.3345 48.1505 24.429 46.803 26.6458C45.45 28.8716 43.6488 30.1399 41.7502 30.1399C39.8515 30.1399 38.0503 28.8716 36.6973 26.6458C35.3499 24.429 34.5002 21.3345 34.5002 17.8899C34.5002 14.4453 35.3499 11.3508 36.6973 9.13399C38.0503 6.90819 39.8515 5.63989 41.7502 5.63989C43.6488 5.63989 45.45 6.90819 46.803 9.13399C48.1505 11.3508 49.0002 14.4453 49.0002 17.8899Z" stroke="#575359"/>
</svg>
