<svg width="211" height="50" viewBox="0 0 211 50" fill="none" xmlns="http://www.w3.org/2000/svg">
<rect width="211" height="50" rx="25" fill="#252120"/>
<rect width="211" height="50" rx="25" fill="url(#paint0_radial_87_252)"/>
<path d="M48.1474 31.27C47.3554 31.27 46.6414 31.174 46.0054 30.982C45.3694 30.778 44.8294 30.49 44.3854 30.118C43.9534 29.734 43.6174 29.272 43.3774 28.732C43.1494 28.18 43.0354 27.562 43.0354 26.878V26.77H44.2054C44.2054 27.958 44.5714 28.84 45.3034 29.416C46.0354 29.992 47.0134 30.28 48.2374 30.28C48.7774 30.28 49.2634 30.202 49.6954 30.046C50.1274 29.878 50.4874 29.656 50.7754 29.38C51.0754 29.104 51.3034 28.786 51.4594 28.426C51.6274 28.054 51.7114 27.664 51.7114 27.256C51.7114 26.884 51.6334 26.548 51.4774 26.248C51.3334 25.936 51.1294 25.672 50.8654 25.456C50.6014 25.24 50.2894 25.072 49.9294 24.952C49.5814 24.832 49.2034 24.772 48.7954 24.772H46.7434V23.728H48.7954C49.1314 23.728 49.4554 23.68 49.7674 23.584C50.0794 23.488 50.3554 23.35 50.5954 23.17C50.8354 22.978 51.0214 22.744 51.1534 22.468C51.2974 22.18 51.3694 21.85 51.3694 21.478C51.3694 21.034 51.2854 20.65 51.1174 20.326C50.9614 20.002 50.7454 19.738 50.4694 19.534C50.1934 19.318 49.8634 19.162 49.4794 19.066C49.0954 18.958 48.6874 18.904 48.2554 18.904C47.7514 18.904 47.2834 18.964 46.8514 19.084C46.4194 19.204 46.0414 19.39 45.7174 19.642C45.4054 19.882 45.1534 20.188 44.9614 20.56C44.7814 20.92 44.6734 21.34 44.6374 21.82H43.4494C43.4854 21.16 43.6234 20.584 43.8634 20.092C44.1154 19.6 44.4514 19.192 44.8714 18.868C45.2914 18.532 45.7834 18.286 46.3474 18.13C46.9234 17.962 47.5474 17.878 48.2194 17.878C48.8194 17.878 49.3834 17.95 49.9114 18.094C50.4514 18.226 50.9194 18.436 51.3154 18.724C51.7114 19.012 52.0234 19.378 52.2514 19.822C52.4794 20.254 52.5934 20.77 52.5934 21.37C52.5934 21.706 52.5394 22.024 52.4314 22.324C52.3234 22.612 52.1794 22.876 51.9994 23.116C51.8194 23.344 51.6154 23.542 51.3874 23.71C51.1594 23.878 50.9314 24.004 50.7034 24.088V24.142C51.3874 24.322 51.9274 24.67 52.3234 25.186C52.7314 25.69 52.9354 26.374 52.9354 27.238C52.9354 27.634 52.8514 28.066 52.6834 28.534C52.5274 29.002 52.2634 29.44 51.8914 29.848C51.5194 30.256 51.0274 30.598 50.4154 30.874C49.8034 31.138 49.0474 31.27 48.1474 31.27ZM57.2906 31.252C56.8586 31.252 56.4506 31.198 56.0666 31.09C55.6946 30.994 55.3646 30.838 55.0766 30.622C54.8006 30.394 54.5786 30.112 54.4106 29.776C54.2546 29.428 54.1766 29.02 54.1766 28.552C54.1766 27.904 54.3206 27.4 54.6086 27.04C54.8966 26.668 55.2746 26.386 55.7426 26.194C56.2226 26.002 56.7566 25.87 57.3446 25.798C57.9446 25.714 58.5506 25.636 59.1626 25.564C59.3906 25.54 59.5946 25.51 59.7746 25.474C59.9666 25.438 60.1226 25.378 60.2426 25.294C60.3626 25.198 60.4526 25.072 60.5126 24.916C60.5846 24.76 60.6206 24.556 60.6206 24.304C60.6206 23.92 60.5546 23.608 60.4226 23.368C60.3026 23.116 60.1286 22.918 59.9006 22.774C59.6846 22.63 59.4266 22.534 59.1266 22.486C58.8386 22.426 58.5266 22.396 58.1906 22.396C57.4706 22.396 56.8826 22.57 56.4266 22.918C55.9706 23.254 55.7306 23.8 55.7066 24.556H54.5726C54.6446 23.464 55.0166 22.672 55.6886 22.18C56.3726 21.688 57.2546 21.442 58.3346 21.442C58.7426 21.442 59.1506 21.484 59.5586 21.568C59.9666 21.64 60.3326 21.784 60.6566 22C60.9806 22.216 61.2446 22.522 61.4486 22.918C61.6526 23.302 61.7546 23.806 61.7546 24.43V29.362C61.7546 29.818 61.9766 30.046 62.4206 30.046C62.5646 30.046 62.6846 30.022 62.7806 29.974V30.928C62.6486 30.952 62.5286 30.97 62.4206 30.982C62.3246 30.994 62.1986 31 62.0426 31C61.7546 31 61.5206 30.964 61.3406 30.892C61.1726 30.808 61.0406 30.694 60.9446 30.55C60.8486 30.406 60.7826 30.238 60.7466 30.046C60.7226 29.842 60.7106 29.62 60.7106 29.38H60.6746C60.4706 29.68 60.2606 29.95 60.0446 30.19C59.8406 30.418 59.6066 30.61 59.3426 30.766C59.0906 30.922 58.7966 31.042 58.4606 31.126C58.1246 31.21 57.7346 31.252 57.2906 31.252ZM57.3806 30.316C57.8126 30.316 58.2266 30.25 58.6226 30.118C59.0186 29.986 59.3606 29.794 59.6486 29.542C59.9486 29.29 60.1826 28.984 60.3506 28.624C60.5306 28.264 60.6206 27.856 60.6206 27.4V25.924H60.5846C60.5126 26.056 60.3746 26.152 60.1706 26.212C59.9666 26.272 59.7866 26.314 59.6306 26.338C59.1506 26.422 58.6526 26.5 58.1366 26.572C57.6326 26.632 57.1706 26.728 56.7506 26.86C56.3306 26.992 55.9826 27.184 55.7066 27.436C55.4426 27.688 55.3106 28.036 55.3106 28.48C55.3106 28.768 55.3646 29.026 55.4726 29.254C55.5926 29.47 55.7486 29.662 55.9406 29.83C56.1326 29.986 56.3486 30.106 56.5886 30.19C56.8406 30.274 57.1046 30.316 57.3806 30.316ZM68.0286 31.252C67.1766 31.252 66.4746 31.096 65.9226 30.784C65.3706 30.472 64.9326 30.058 64.6086 29.542C64.2846 29.026 64.0566 28.432 63.9246 27.76C63.7926 27.088 63.7266 26.392 63.7266 25.672C63.7266 25.228 63.7446 24.766 63.7806 24.286C63.8166 23.794 63.8766 23.314 63.9606 22.846C64.0566 22.366 64.1766 21.91 64.3206 21.478C64.4646 21.046 64.6506 20.656 64.8786 20.308C65.2986 19.66 65.8026 19.198 66.3906 18.922C66.9786 18.646 67.7166 18.478 68.6046 18.418L69.4686 18.364C69.9486 18.34 70.2726 18.292 70.4406 18.22C70.6086 18.148 70.7286 18.034 70.8006 17.878H72.0606C71.9646 18.43 71.7186 18.808 71.3226 19.012C70.9386 19.204 70.3506 19.324 69.5586 19.372L68.1906 19.462C67.1346 19.534 66.3306 19.912 65.7786 20.596C65.2266 21.28 64.8486 22.342 64.6446 23.782H64.6986C65.0106 23.158 65.4726 22.66 66.0846 22.288C66.6966 21.904 67.3806 21.712 68.1366 21.712C68.7606 21.712 69.3246 21.82 69.8286 22.036C70.3446 22.252 70.7886 22.564 71.1606 22.972C71.5326 23.38 71.8206 23.878 72.0246 24.466C72.2286 25.054 72.3306 25.714 72.3306 26.446C72.3306 27.166 72.2286 27.826 72.0246 28.426C71.8206 29.014 71.5266 29.518 71.1426 29.938C70.7706 30.358 70.3206 30.682 69.7926 30.91C69.2646 31.138 68.6766 31.252 68.0286 31.252ZM68.0286 30.316C68.4846 30.316 68.9046 30.226 69.2886 30.046C69.6846 29.854 70.0206 29.59 70.2966 29.254C70.5846 28.906 70.8066 28.498 70.9626 28.03C71.1186 27.55 71.1966 27.022 71.1966 26.446C71.1966 25.882 71.1186 25.366 70.9626 24.898C70.8066 24.43 70.5846 24.034 70.2966 23.71C70.0206 23.374 69.6906 23.116 69.3066 22.936C68.9346 22.744 68.5266 22.648 68.0826 22.648C67.6026 22.648 67.1646 22.738 66.7686 22.918C66.3726 23.098 66.0306 23.356 65.7426 23.692C65.4666 24.016 65.2506 24.412 65.0946 24.88C64.9386 25.348 64.8606 25.87 64.8606 26.446C64.8606 27.022 64.9386 27.55 65.0946 28.03C65.2506 28.498 65.4666 28.906 65.7426 29.254C66.0306 29.59 66.3666 29.854 66.7506 30.046C67.1466 30.226 67.5726 30.316 68.0286 30.316ZM74.0165 21.712H75.0605V23.476H75.0965C75.3605 22.828 75.7865 22.33 76.3745 21.982C76.9745 21.622 77.6525 21.442 78.4085 21.442C79.1165 21.442 79.7285 21.574 80.2445 21.838C80.7725 22.102 81.2105 22.462 81.5585 22.918C81.9065 23.362 82.1645 23.884 82.3325 24.484C82.5005 25.072 82.5845 25.696 82.5845 26.356C82.5845 27.028 82.5005 27.658 82.3325 28.246C82.1645 28.834 81.9065 29.356 81.5585 29.812C81.2105 30.256 80.7725 30.61 80.2445 30.874C79.7285 31.126 79.1165 31.252 78.4085 31.252C78.0605 31.252 77.7185 31.21 77.3825 31.126C77.0585 31.042 76.7525 30.916 76.4645 30.748C76.1765 30.58 75.9185 30.37 75.6905 30.118C75.4745 29.866 75.3065 29.572 75.1865 29.236H75.1505V34.42H74.0165V21.712ZM78.4085 30.316C78.9485 30.316 79.4105 30.202 79.7945 29.974C80.1785 29.734 80.4905 29.428 80.7305 29.056C80.9825 28.684 81.1625 28.264 81.2705 27.796C81.3905 27.316 81.4505 26.836 81.4505 26.356C81.4505 25.876 81.3905 25.402 81.2705 24.934C81.1625 24.454 80.9825 24.028 80.7305 23.656C80.4905 23.284 80.1785 22.984 79.7945 22.756C79.4105 22.516 78.9485 22.396 78.4085 22.396C77.7725 22.396 77.2445 22.504 76.8245 22.72C76.4165 22.936 76.0865 23.224 75.8345 23.584C75.5825 23.944 75.4025 24.364 75.2945 24.844C75.1985 25.324 75.1505 25.828 75.1505 26.356C75.1505 26.836 75.2045 27.316 75.3125 27.796C75.4325 28.264 75.6185 28.684 75.8705 29.056C76.1345 29.428 76.4705 29.734 76.8785 29.974C77.2985 30.202 77.8085 30.316 78.4085 30.316ZM88.2765 31.252C87.5685 31.252 86.9385 31.126 86.3865 30.874C85.8465 30.61 85.3905 30.256 85.0185 29.812C84.6465 29.368 84.3645 28.852 84.1725 28.264C83.9805 27.664 83.8845 27.028 83.8845 26.356C83.8845 25.696 83.9805 25.066 84.1725 24.466C84.3645 23.866 84.6465 23.344 85.0185 22.9C85.3905 22.456 85.8465 22.102 86.3865 21.838C86.9385 21.574 87.5685 21.442 88.2765 21.442C88.9845 21.442 89.6085 21.574 90.1485 21.838C90.7005 22.102 91.1625 22.456 91.5345 22.9C91.9065 23.344 92.1885 23.866 92.3805 24.466C92.5725 25.066 92.6685 25.696 92.6685 26.356C92.6685 27.028 92.5725 27.664 92.3805 28.264C92.1885 28.852 91.9065 29.368 91.5345 29.812C91.1625 30.256 90.7005 30.61 90.1485 30.874C89.6085 31.126 88.9845 31.252 88.2765 31.252ZM88.2765 30.316C88.8165 30.316 89.2905 30.202 89.6985 29.974C90.1065 29.746 90.4425 29.446 90.7065 29.074C90.9825 28.702 91.1865 28.282 91.3185 27.814C91.4625 27.334 91.5345 26.848 91.5345 26.356C91.5345 25.864 91.4625 25.384 91.3185 24.916C91.1865 24.436 90.9825 24.01 90.7065 23.638C90.4425 23.266 90.1065 22.966 89.6985 22.738C89.2905 22.51 88.8165 22.396 88.2765 22.396C87.7365 22.396 87.2625 22.51 86.8545 22.738C86.4465 22.966 86.1045 23.266 85.8285 23.638C85.5645 24.01 85.3605 24.436 85.2165 24.916C85.0845 25.384 85.0185 25.864 85.0185 26.356C85.0185 26.848 85.0845 27.334 85.2165 27.814C85.3605 28.282 85.5645 28.702 85.8285 29.074C86.1045 29.446 86.4465 29.746 86.8545 29.974C87.2625 30.202 87.7365 30.316 88.2765 30.316ZM94.3364 21.712H95.4704V25.654H100.744V21.712H101.878V31H100.744V26.608H95.4704V31H94.3364V21.712ZM104.004 21.712H105.138V29.668L110.268 21.712H111.672V31H110.538V23.044L105.408 31H104.004V21.712ZM113.813 21.712H114.857V23.476H114.893C115.157 22.828 115.583 22.33 116.171 21.982C116.771 21.622 117.449 21.442 118.205 21.442C118.913 21.442 119.525 21.574 120.041 21.838C120.569 22.102 121.007 22.462 121.355 22.918C121.703 23.362 121.961 23.884 122.129 24.484C122.297 25.072 122.381 25.696 122.381 26.356C122.381 27.028 122.297 27.658 122.129 28.246C121.961 28.834 121.703 29.356 121.355 29.812C121.007 30.256 120.569 30.61 120.041 30.874C119.525 31.126 118.913 31.252 118.205 31.252C117.857 31.252 117.515 31.21 117.179 31.126C116.855 31.042 116.549 30.916 116.261 30.748C115.973 30.58 115.715 30.37 115.487 30.118C115.271 29.866 115.103 29.572 114.983 29.236H114.947V34.42H113.813V21.712ZM118.205 30.316C118.745 30.316 119.207 30.202 119.591 29.974C119.975 29.734 120.287 29.428 120.527 29.056C120.779 28.684 120.959 28.264 121.067 27.796C121.187 27.316 121.247 26.836 121.247 26.356C121.247 25.876 121.187 25.402 121.067 24.934C120.959 24.454 120.779 24.028 120.527 23.656C120.287 23.284 119.975 22.984 119.591 22.756C119.207 22.516 118.745 22.396 118.205 22.396C117.569 22.396 117.041 22.504 116.621 22.72C116.213 22.936 115.883 23.224 115.631 23.584C115.379 23.944 115.199 24.364 115.091 24.844C114.995 25.324 114.947 25.828 114.947 26.356C114.947 26.836 115.001 27.316 115.109 27.796C115.229 28.264 115.415 28.684 115.667 29.056C115.931 29.428 116.267 29.734 116.675 29.974C117.095 30.202 117.605 30.316 118.205 30.316ZM128.073 31.252C127.365 31.252 126.735 31.126 126.183 30.874C125.643 30.61 125.187 30.256 124.815 29.812C124.443 29.368 124.161 28.852 123.969 28.264C123.777 27.664 123.681 27.028 123.681 26.356C123.681 25.696 123.777 25.066 123.969 24.466C124.161 23.866 124.443 23.344 124.815 22.9C125.187 22.456 125.643 22.102 126.183 21.838C126.735 21.574 127.365 21.442 128.073 21.442C128.781 21.442 129.405 21.574 129.945 21.838C130.497 22.102 130.959 22.456 131.331 22.9C131.703 23.344 131.985 23.866 132.177 24.466C132.369 25.066 132.465 25.696 132.465 26.356C132.465 27.028 132.369 27.664 132.177 28.264C131.985 28.852 131.703 29.368 131.331 29.812C130.959 30.256 130.497 30.61 129.945 30.874C129.405 31.126 128.781 31.252 128.073 31.252ZM128.073 30.316C128.613 30.316 129.087 30.202 129.495 29.974C129.903 29.746 130.239 29.446 130.503 29.074C130.779 28.702 130.983 28.282 131.115 27.814C131.259 27.334 131.331 26.848 131.331 26.356C131.331 25.864 131.259 25.384 131.115 24.916C130.983 24.436 130.779 24.01 130.503 23.638C130.239 23.266 129.903 22.966 129.495 22.738C129.087 22.51 128.613 22.396 128.073 22.396C127.533 22.396 127.059 22.51 126.651 22.738C126.243 22.966 125.901 23.266 125.625 23.638C125.361 24.01 125.157 24.436 125.013 24.916C124.881 25.384 124.815 25.864 124.815 26.356C124.815 26.848 124.881 27.334 125.013 27.814C125.157 28.282 125.361 28.702 125.625 29.074C125.901 29.446 126.243 29.746 126.651 29.974C127.059 30.202 127.533 30.316 128.073 30.316ZM134.133 21.712H138.381C139.329 21.712 140.061 21.898 140.577 22.27C141.093 22.642 141.351 23.188 141.351 23.908C141.351 24.46 141.207 24.922 140.919 25.294C140.643 25.666 140.253 25.924 139.749 26.068V26.104C140.361 26.212 140.841 26.452 141.189 26.824C141.537 27.196 141.711 27.724 141.711 28.408C141.711 29.248 141.429 29.89 140.865 30.334C140.301 30.778 139.473 31 138.381 31H134.133V21.712ZM138.255 30.046C139.047 30.046 139.629 29.902 140.001 29.614C140.385 29.314 140.577 28.87 140.577 28.282C140.577 27.742 140.385 27.328 140.001 27.04C139.629 26.752 139.047 26.608 138.255 26.608H135.267V30.046H138.255ZM138.255 25.726C138.903 25.726 139.389 25.588 139.713 25.312C140.049 25.036 140.217 24.664 140.217 24.196C140.217 23.176 139.563 22.666 138.255 22.666H135.267V25.726H138.255ZM146.06 31.252C145.628 31.252 145.22 31.198 144.836 31.09C144.464 30.994 144.134 30.838 143.846 30.622C143.57 30.394 143.348 30.112 143.18 29.776C143.024 29.428 142.946 29.02 142.946 28.552C142.946 27.904 143.09 27.4 143.378 27.04C143.666 26.668 144.044 26.386 144.512 26.194C144.992 26.002 145.526 25.87 146.114 25.798C146.714 25.714 147.32 25.636 147.932 25.564C148.16 25.54 148.364 25.51 148.544 25.474C148.736 25.438 148.892 25.378 149.012 25.294C149.132 25.198 149.222 25.072 149.282 24.916C149.354 24.76 149.39 24.556 149.39 24.304C149.39 23.92 149.324 23.608 149.192 23.368C149.072 23.116 148.898 22.918 148.67 22.774C148.454 22.63 148.196 22.534 147.896 22.486C147.608 22.426 147.296 22.396 146.96 22.396C146.24 22.396 145.652 22.57 145.196 22.918C144.74 23.254 144.5 23.8 144.476 24.556H143.342C143.414 23.464 143.786 22.672 144.458 22.18C145.142 21.688 146.024 21.442 147.104 21.442C147.512 21.442 147.92 21.484 148.328 21.568C148.736 21.64 149.102 21.784 149.426 22C149.75 22.216 150.014 22.522 150.218 22.918C150.422 23.302 150.524 23.806 150.524 24.43V29.362C150.524 29.818 150.746 30.046 151.19 30.046C151.334 30.046 151.454 30.022 151.55 29.974V30.928C151.418 30.952 151.298 30.97 151.19 30.982C151.094 30.994 150.968 31 150.812 31C150.524 31 150.29 30.964 150.11 30.892C149.942 30.808 149.81 30.694 149.714 30.55C149.618 30.406 149.552 30.238 149.516 30.046C149.492 29.842 149.48 29.62 149.48 29.38H149.444C149.24 29.68 149.03 29.95 148.814 30.19C148.61 30.418 148.376 30.61 148.112 30.766C147.86 30.922 147.566 31.042 147.23 31.126C146.894 31.21 146.504 31.252 146.06 31.252ZM146.15 30.316C146.582 30.316 146.996 30.25 147.392 30.118C147.788 29.986 148.13 29.794 148.418 29.542C148.718 29.29 148.952 28.984 149.12 28.624C149.3 28.264 149.39 27.856 149.39 27.4V25.924H149.354C149.282 26.056 149.144 26.152 148.94 26.212C148.736 26.272 148.556 26.314 148.4 26.338C147.92 26.422 147.422 26.5 146.906 26.572C146.402 26.632 145.94 26.728 145.52 26.86C145.1 26.992 144.752 27.184 144.476 27.436C144.212 27.688 144.08 28.036 144.08 28.48C144.08 28.768 144.134 29.026 144.242 29.254C144.362 29.47 144.518 29.662 144.71 29.83C144.902 29.986 145.118 30.106 145.358 30.19C145.61 30.274 145.874 30.316 146.15 30.316ZM155.124 22.666H151.686V21.712H159.696V22.666H156.258V31H155.124V22.666ZM160.837 21.712H161.971V25.438H165.301C166.201 25.438 166.915 25.678 167.443 26.158C167.971 26.638 168.235 27.316 168.235 28.192C168.235 29.068 167.971 29.758 167.443 30.262C166.915 30.754 166.201 31 165.301 31H160.837V21.712ZM165.031 30.046C165.679 30.046 166.183 29.89 166.543 29.578C166.915 29.266 167.101 28.804 167.101 28.192C167.101 27.58 166.915 27.13 166.543 26.842C166.183 26.542 165.679 26.392 165.031 26.392H161.971V30.046H165.031Z" fill="white"/>
<defs>
<radialGradient id="paint0_radial_87_252" cx="0" cy="0" r="1" gradientUnits="userSpaceOnUse" gradientTransform="translate(41 30.5) rotate(-42.5104) scale(40.6971 29.6041)">
<stop stop-color="#E3BC98"/>
<stop offset="1" stop-color="#E3BC98" stop-opacity="0"/>
</radialGradient>
</defs>
</svg>
