<svg width="50" height="44" viewBox="0 0 50 44" fill="none" xmlns="http://www.w3.org/2000/svg">
<path d="M21.4375 13C21.4831 12.1569 21.6562 11.4232 21.957 10.7988C22.2624 10.1745 22.8548 9.6071 23.7344 9.09668L25.0469 8.33789C25.6348 7.99609 26.0472 7.70443 26.2842 7.46289C26.6579 7.08464 26.8447 6.65169 26.8447 6.16406C26.8447 5.5944 26.6738 5.14323 26.332 4.81055C25.9902 4.47331 25.5345 4.30469 24.9648 4.30469C24.1217 4.30469 23.5384 4.6237 23.2148 5.26172C23.0417 5.60352 22.946 6.07747 22.9277 6.68359H21.6768C21.6904 5.83138 21.8477 5.13639 22.1484 4.59863C22.6816 3.65072 23.6227 3.17676 24.9717 3.17676C26.0928 3.17676 26.9108 3.47982 27.4258 4.08594C27.9453 4.69206 28.2051 5.36654 28.2051 6.10938C28.2051 6.89323 27.9294 7.56315 27.3779 8.11914C27.0589 8.44271 26.487 8.83464 25.6621 9.29492L24.7256 9.81445C24.279 10.0605 23.9281 10.2952 23.6729 10.5186C23.2171 10.915 22.93 11.3548 22.8115 11.8379H28.1572V13H21.4375Z" fill="#E3BC98"/>
<path d="M5.21739 29H44.3478C46.8691 29 48.913 31.0439 48.913 33.5652V43.3478H0.652174V33.5652C0.652174 31.0439 2.69609 29 5.21739 29Z" stroke="#E3BC98" stroke-width="1.30435"/>
<path d="M5.21739 14.6522H44.3478C46.8691 14.6522 48.913 16.6961 48.913 19.2174V33.0495L24.7826 38.7646L0.652174 33.0495V19.2174C0.652174 16.6961 2.69609 14.6522 5.21739 14.6522Z" stroke="#E3BC98" stroke-width="1.30435"/>
<path d="M0.652176 39.4348H48.913" stroke="#E3BC98" stroke-width="1.30435"/>
<path d="M11.7391 22.4782H18.2609C19.3414 22.4782 20.2174 23.3542 20.2174 24.4347V29H9.78261V24.4347C9.78261 23.3542 10.6586 22.4782 11.7391 22.4782Z" stroke="#E3BC98" stroke-width="1.30435"/>
<path d="M31.3043 22.4782H37.8261C38.9066 22.4782 39.7826 23.3542 39.7826 24.4347V29H29.3478V24.4347C29.3478 23.3542 30.2238 22.4782 31.3043 22.4782Z" stroke="#E3BC98" stroke-width="1.30435"/>
</svg>
