<svg width="50" height="44" viewBox="0 0 50 44" fill="none" xmlns="http://www.w3.org/2000/svg">
<path d="M5.21738 29H44.3478C46.8691 29 48.913 31.0439 48.913 33.5652V43.3478H0.652161V33.5652C0.652161 31.0439 2.69608 29 5.21738 29Z" stroke="#E3BC98" stroke-width="1.30435"/>
<path d="M5.21738 14.6522H44.3478C46.8691 14.6522 48.913 16.6961 48.913 19.2174V33.0495L24.7826 38.7646L0.652161 33.0495V19.2174C0.652161 16.6961 2.69608 14.6522 5.21738 14.6522Z" stroke="#E3BC98" stroke-width="1.30435"/>
<path d="M0.652161 39.4348H48.913" stroke="#E3BC98" stroke-width="1.30435"/>
<path d="M11.7391 22.4782H18.2609C19.3414 22.4782 20.2174 23.3542 20.2174 24.4347V29H9.78259V24.4347C9.78259 23.3542 10.6586 22.4782 11.7391 22.4782Z" stroke="#E3BC98" stroke-width="1.30435"/>
<path d="M31.3043 22.4782H37.8261C38.9066 22.4782 39.7826 23.3542 39.7826 24.4347V29H29.3478V24.4347C29.3478 23.3542 30.2238 22.4782 31.3043 22.4782Z" stroke="#E3BC98" stroke-width="1.30435"/>
</svg>
