<svg width="57" height="66" viewBox="0 0 57 66" fill="none" xmlns="http://www.w3.org/2000/svg">
<path d="M13.3784 24.0811V65.554" stroke="#E3BC98"/>
<path d="M34.7838 36.5676L34.7838 66.0001" stroke="#E3BC98"/>
<path d="M35.2297 45.4865L39.2432 41.473" stroke="#E3BC98"/>
<path d="M26.3402 18.4738C29.4021 17.1025 32.7953 16.646 36.1107 17.1595C39.4261 17.673 42.5223 19.1344 45.0259 21.3676C47.5296 23.6009 49.3339 26.5106 50.2214 29.746C51.1088 32.9815 51.0415 36.4045 50.0276 39.6026C49.0137 42.8007 47.0964 45.6373 44.5069 47.7704C41.9174 49.9035 38.7662 51.2421 35.4332 51.6248C32.1001 52.0076 28.7275 51.4182 25.7219 49.9276C22.7162 48.437 20.2059 46.1089 18.4934 43.2239" stroke="#E3BC98"/>
<path d="M27.1486 22.7432C27.1486 28.9474 25.6191 34.5402 23.1723 38.5654C20.7202 42.5997 17.4004 44.9865 13.8243 44.9865C10.2483 44.9865 6.92848 42.5997 4.47631 38.5654C2.02959 34.5402 0.5 28.9474 0.5 22.7432C0.5 16.5391 2.02959 10.9463 4.47631 6.92105C6.92848 2.88683 10.2483 0.5 13.8243 0.5C17.4004 0.5 20.7202 2.88683 23.1723 6.92105C25.6191 10.9463 27.1486 16.5391 27.1486 22.7432Z" stroke="#E3BC98"/>
</svg>
