<svg width="46" height="5" viewBox="0 0 46 5" fill="none" xmlns="http://www.w3.org/2000/svg">
<path d="M45.5715 2.73508C45.5715 1.74322 44.7674 0.939159 43.7756 0.939159C42.7837 0.939159 41.9797 1.74322 41.9797 2.73508C41.9797 3.72694 42.7837 4.531 43.7756 4.531C44.7674 4.531 45.5715 3.72694 45.5715 2.73508ZM5.99623e-05 2.73508L3.36741 4.67922V0.790938L5.99623e-05 2.73508ZM43.0916 2.39834C42.9056 2.39834 42.7548 2.5491 42.7548 2.73508C42.7548 2.92105 42.9056 3.07181 43.0916 3.07181V2.39834ZM41.7236 3.07181C41.9096 3.07181 42.0603 2.92105 42.0603 2.73508C42.0603 2.5491 41.9096 2.39834 41.7236 2.39834V3.07181ZM40.3556 2.39834C40.1696 2.39834 40.0189 2.5491 40.0189 2.73508C40.0189 2.92105 40.1696 3.07181 40.3556 3.07181V2.39834ZM38.9876 3.07181C39.1736 3.07181 39.3244 2.92105 39.3244 2.73508C39.3244 2.5491 39.1736 2.39834 38.9876 2.39834V3.07181ZM37.6196 2.39834C37.4337 2.39834 37.2829 2.5491 37.2829 2.73508C37.2829 2.92105 37.4337 3.07181 37.6196 3.07181V2.39834ZM36.2517 3.07181C36.4376 3.07181 36.5884 2.92105 36.5884 2.73508C36.5884 2.5491 36.4376 2.39834 36.2517 2.39834V3.07181ZM34.8837 2.39834C34.6977 2.39834 34.5469 2.5491 34.5469 2.73508C34.5469 2.92105 34.6977 3.07181 34.8837 3.07181V2.39834ZM33.5157 3.07181C33.7017 3.07181 33.8524 2.92105 33.8524 2.73508C33.8524 2.5491 33.7017 2.39834 33.5157 2.39834V3.07181ZM32.1477 2.39834C31.9617 2.39834 31.811 2.5491 31.811 2.73508C31.811 2.92105 31.9617 3.07181 32.1477 3.07181V2.39834ZM30.7797 3.07181C30.9657 3.07181 31.1165 2.92105 31.1165 2.73508C31.1165 2.5491 30.9657 2.39834 30.7797 2.39834V3.07181ZM29.4117 2.39834C29.2258 2.39834 29.075 2.5491 29.075 2.73508C29.075 2.92105 29.2258 3.07181 29.4117 3.07181V2.39834ZM28.0437 3.07181C28.2297 3.07181 28.3805 2.92105 28.3805 2.73508C28.3805 2.5491 28.2297 2.39834 28.0437 2.39834V3.07181ZM26.6758 2.39834C26.4898 2.39834 26.339 2.5491 26.339 2.73508C26.339 2.92105 26.4898 3.07181 26.6758 3.07181V2.39834ZM25.3078 3.07181C25.4938 3.07181 25.6445 2.92105 25.6445 2.73508C25.6445 2.5491 25.4938 2.39834 25.3078 2.39834V3.07181ZM23.9398 2.39834C23.7538 2.39834 23.6031 2.5491 23.6031 2.73508C23.6031 2.92105 23.7538 3.07181 23.9398 3.07181V2.39834ZM22.5718 3.07181C22.7578 3.07181 22.9085 2.92105 22.9085 2.73508C22.9085 2.5491 22.7578 2.39834 22.5718 2.39834V3.07181ZM21.2038 2.39834C21.0179 2.39834 20.8671 2.5491 20.8671 2.73508C20.8671 2.92105 21.0179 3.07181 21.2038 3.07181V2.39834ZM19.8358 3.07181C20.0218 3.07181 20.1726 2.92105 20.1726 2.73508C20.1726 2.5491 20.0218 2.39834 19.8358 2.39834V3.07181ZM18.4679 2.39834C18.2819 2.39834 18.1311 2.5491 18.1311 2.73508C18.1311 2.92105 18.2819 3.07181 18.4679 3.07181V2.39834ZM17.0999 3.07181C17.2858 3.07181 17.4366 2.92105 17.4366 2.73508C17.4366 2.5491 17.2858 2.39834 17.0999 2.39834V3.07181ZM15.7319 2.39834C15.5459 2.39834 15.3952 2.5491 15.3952 2.73508C15.3952 2.92105 15.5459 3.07181 15.7319 3.07181V2.39834ZM14.3639 3.07181C14.5499 3.07181 14.7006 2.92105 14.7006 2.73508C14.7006 2.5491 14.5499 2.39834 14.3639 2.39834V3.07181ZM12.9959 2.39834C12.8099 2.39834 12.6592 2.5491 12.6592 2.73508C12.6592 2.92105 12.8099 3.07181 12.9959 3.07181V2.39834ZM11.6279 3.07181C11.8139 3.07181 11.9647 2.92105 11.9647 2.73508C11.9647 2.5491 11.8139 2.39834 11.6279 2.39834V3.07181ZM10.2599 2.39834C10.074 2.39834 9.92321 2.5491 9.92321 2.73508C9.92321 2.92105 10.074 3.07181 10.2599 3.07181V2.39834ZM8.89196 3.07181C9.07793 3.07181 9.22869 2.92105 9.22869 2.73508C9.22869 2.5491 9.07793 2.39834 8.89196 2.39834V3.07181ZM7.52397 2.39834C7.338 2.39834 7.18724 2.5491 7.18724 2.73508C7.18724 2.92105 7.338 3.07181 7.52397 3.07181V2.39834ZM6.15599 3.07181C6.34196 3.07181 6.49272 2.92105 6.49272 2.73508C6.49272 2.5491 6.34196 2.39834 6.15599 2.39834V3.07181ZM4.788 2.39834C4.60203 2.39834 4.45127 2.5491 4.45127 2.73508C4.45127 2.92105 4.60203 3.07181 4.788 3.07181V2.39834ZM3.42002 3.07181C3.60599 3.07181 3.75675 2.92105 3.75675 2.73508C3.75675 2.5491 3.60599 2.39834 3.42002 2.39834V3.07181ZM2.05203 2.39834C1.86606 2.39834 1.7153 2.5491 1.7153 2.73508C1.7153 2.92105 1.86606 3.07181 2.05203 3.07181V2.39834ZM0.68405 3.07181C0.870023 3.07181 1.02078 2.92105 1.02078 2.73508C1.02078 2.5491 0.870023 2.39834 0.68405 2.39834V3.07181ZM43.7756 2.39834H43.0916V3.07181H43.7756V2.39834ZM41.7236 2.39834H40.3556V3.07181H41.7236V2.39834ZM38.9876 2.39834H37.6196V3.07181H38.9876V2.39834ZM36.2517 2.39834H34.8837V3.07181H36.2517V2.39834ZM33.5157 2.39834H32.1477V3.07181H33.5157V2.39834ZM30.7797 2.39834H29.4117V3.07181H30.7797V2.39834ZM28.0437 2.39834H26.6758V3.07181H28.0437V2.39834ZM25.3078 2.39834H23.9398V3.07181H25.3078V2.39834ZM22.5718 2.39834H21.2038V3.07181H22.5718V2.39834ZM19.8358 2.39834H18.4679V3.07181H19.8358V2.39834ZM17.0999 2.39834H15.7319V3.07181H17.0999V2.39834ZM14.3639 2.39834H12.9959V3.07181H14.3639V2.39834ZM11.6279 2.39834H10.2599V3.07181H11.6279V2.39834ZM8.89196 2.39834H7.52397V3.07181H8.89196V2.39834ZM6.15599 2.39834H4.788V3.07181H6.15599V2.39834ZM3.42002 2.39834H2.05203V3.07181H3.42002V2.39834Z" fill="#E3BC98"/>
</svg>
