<svg width="80" height="39" viewBox="0 0 80 39" fill="none" xmlns="http://www.w3.org/2000/svg">
<path d="M0 2H15.5M24 2H54M0 6.5H9M4.5 11H9M0 16H9M4.5 19.5H9M0 24.5H9M13.5 38L15.5 32.5H13.5L17 24.5V19.5H18.5V1H20.5L22 3L20.5 5L22 19.5L21.9926 19.4286M25 38V35H27.5V32H28.5V24.5L25 22.5" stroke="#E3BC98"/>
<path d="M22 19.5C25 9.00371 34.5 20.4943 25 22.4925" stroke="#E3BC98"/>
<path d="M39.1172 16.2285C38.125 16.2285 37.4043 15.957 36.9551 15.4141C36.5098 14.8672 36.2871 14.2031 36.2871 13.4219H37.3887C37.4355 13.9648 37.5371 14.3594 37.6934 14.6055C37.9668 15.0469 38.4609 15.2676 39.1758 15.2676C39.7305 15.2676 40.1758 15.1191 40.5117 14.8223C40.8477 14.5254 41.0156 14.1426 41.0156 13.6738C41.0156 13.0957 40.8379 12.6914 40.4824 12.4609C40.1309 12.2305 39.6406 12.1152 39.0117 12.1152C38.9414 12.1152 38.8691 12.1172 38.7949 12.1211C38.7246 12.1211 38.6523 12.123 38.5781 12.127V11.1953C38.6875 11.207 38.7793 11.2148 38.8535 11.2188C38.9277 11.2227 39.0078 11.2246 39.0938 11.2246C39.4883 11.2246 39.8125 11.1621 40.0664 11.0371C40.5117 10.8184 40.7344 10.4277 40.7344 9.86523C40.7344 9.44727 40.5859 9.125 40.2891 8.89844C39.9922 8.67188 39.6465 8.55859 39.252 8.55859C38.5488 8.55859 38.0625 8.79297 37.793 9.26172C37.6445 9.51953 37.5605 9.88672 37.541 10.3633H36.498C36.498 9.73828 36.623 9.20703 36.873 8.76953C37.3027 7.98828 38.0586 7.59766 39.1406 7.59766C39.9961 7.59766 40.6582 7.78906 41.127 8.17188C41.5957 8.55078 41.8301 9.10156 41.8301 9.82422C41.8301 10.3398 41.6914 10.7578 41.4141 11.0781C41.2422 11.2773 41.0195 11.4336 40.7461 11.5469C41.1875 11.668 41.5312 11.9023 41.7773 12.25C42.0273 12.5938 42.1523 13.0156 42.1523 13.5156C42.1523 14.3164 41.8887 14.9688 41.3613 15.4727C40.834 15.9766 40.0859 16.2285 39.1172 16.2285ZM46.8105 9.72461H48.3809L50.0391 14.8691H50.0625L51.7441 9.72461H53.2207V16H52.2129V10.9492H52.1895L50.5312 16H49.5L47.8418 10.9492H47.8184V16H46.8105V9.72461ZM60.1465 13.9961C60.1035 14.2695 60.0098 14.5371 59.8652 14.7988C59.7207 15.0605 59.5312 15.2949 59.2969 15.502C59.0625 15.709 58.7852 15.875 58.4648 16C58.1484 16.1289 57.7969 16.1934 57.4102 16.1934C56.9883 16.1934 56.5977 16.125 56.2383 15.9883C55.8828 15.8477 55.5742 15.6387 55.3125 15.3613C55.0547 15.0801 54.8516 14.7285 54.7031 14.3066C54.5547 13.8848 54.4805 13.3887 54.4805 12.8184C54.4805 12.4355 54.5215 12.0898 54.6035 11.7812C54.6895 11.4688 54.8027 11.1914 54.9434 10.9492C55.0879 10.7031 55.2539 10.4922 55.4414 10.3164C55.6289 10.1367 55.8262 9.99023 56.0332 9.87695C56.2441 9.75977 56.459 9.67383 56.6777 9.61914C56.8965 9.56055 57.1074 9.53125 57.3105 9.53125C57.7402 9.53125 58.1328 9.5957 58.4883 9.72461C58.8438 9.85352 59.1484 10.0508 59.4023 10.3164C59.6602 10.5781 59.8594 10.9082 60 11.3066C60.1445 11.7012 60.2168 12.166 60.2168 12.7012V13.2402H55.6289C55.6328 13.5449 55.6758 13.8223 55.7578 14.0723C55.8398 14.3184 55.957 14.5293 56.1094 14.7051C56.2617 14.8809 56.4453 15.0176 56.6602 15.1152C56.8789 15.209 57.125 15.2559 57.3984 15.2559C57.6758 15.2559 57.9102 15.2168 58.1016 15.1387C58.293 15.0605 58.4531 14.9609 58.582 14.8398C58.7109 14.7188 58.8145 14.584 58.8926 14.4355C58.9746 14.2871 59.043 14.1406 59.0977 13.9961H60.1465ZM59.1328 12.3789C59.125 12.0742 59.0781 11.8027 58.9922 11.5645C58.9102 11.3262 58.793 11.127 58.6406 10.9668C58.4922 10.8027 58.3125 10.6797 58.1016 10.5977C57.8906 10.5117 57.6562 10.4688 57.3984 10.4688C57.1523 10.4688 56.9258 10.5176 56.7188 10.6152C56.5117 10.709 56.3301 10.8418 56.1738 11.0137C56.0176 11.1816 55.8926 11.3828 55.7988 11.6172C55.7051 11.8477 55.6484 12.1016 55.6289 12.3789H59.1328ZM63.1523 10.6621H60.9902V9.72461H66.3926V10.6621H64.2305V16H63.1523V10.6621ZM67.4238 9.72461H68.502V10.5859H68.5254C68.5957 10.4414 68.6836 10.3047 68.7891 10.1758C68.8984 10.0469 69.0273 9.93555 69.1758 9.8418C69.3281 9.74414 69.502 9.66797 69.6973 9.61328C69.8965 9.55859 70.123 9.53125 70.377 9.53125C70.7129 9.53125 71.0352 9.5957 71.3438 9.72461C71.6523 9.85352 71.9258 10.0469 72.1641 10.3047C72.4023 10.5625 72.5918 10.8867 72.7324 11.2773C72.873 11.6641 72.9434 12.1152 72.9434 12.6309C72.9434 13.2754 72.877 13.8242 72.7441 14.2773C72.6152 14.7266 72.4297 15.0938 72.1875 15.3789C71.9492 15.6641 71.6602 15.8711 71.3203 16C70.9805 16.1289 70.6016 16.1934 70.1836 16.1934C69.9766 16.1934 69.7832 16.166 69.6035 16.1113C69.4238 16.0566 69.2617 15.9863 69.1172 15.9004C68.9766 15.8105 68.8555 15.7129 68.7539 15.6074C68.6523 15.498 68.5762 15.3926 68.5254 15.291H68.502V18.4727H67.4238V9.72461ZM68.4785 12.8945C68.4785 13.2344 68.5117 13.5488 68.5781 13.8379C68.6445 14.123 68.7461 14.3711 68.8828 14.582C69.0234 14.793 69.1973 14.959 69.4043 15.0801C69.6152 15.1973 69.8633 15.2559 70.1484 15.2559C70.4453 15.2559 70.7012 15.1973 70.916 15.0801C71.1348 14.959 71.3145 14.793 71.4551 14.582C71.5957 14.3711 71.6992 14.123 71.7656 13.8379C71.832 13.5488 71.8652 13.2344 71.8652 12.8945C71.8652 12.5391 71.832 12.2129 71.7656 11.916C71.6992 11.6191 71.5957 11.3633 71.4551 11.1484C71.3145 10.9336 71.1348 10.7676 70.916 10.6504C70.7012 10.5293 70.4453 10.4688 70.1484 10.4688C69.8633 10.4688 69.6152 10.5293 69.4043 10.6504C69.1973 10.7676 69.0234 10.9336 68.8828 11.1484C68.7461 11.3633 68.6445 11.6191 68.5781 11.916C68.5117 12.2129 68.4785 12.5391 68.4785 12.8945ZM74.1504 11.6055C74.1621 11.2227 74.2344 10.9004 74.3672 10.6387C74.5 10.373 74.6797 10.1582 74.9062 9.99414C75.1328 9.83008 75.4004 9.71289 75.709 9.64258C76.0215 9.56836 76.3613 9.53125 76.7285 9.53125C77.0332 9.53125 77.3281 9.5625 77.6133 9.625C77.9023 9.6875 78.1582 9.78906 78.3809 9.92969C78.6035 10.0664 78.7812 10.2461 78.9141 10.4688C79.0508 10.6875 79.1191 10.9551 79.1191 11.2715V14.9219C79.1191 15.0234 79.1465 15.1113 79.2012 15.1855C79.2559 15.2559 79.3438 15.291 79.4648 15.291C79.5195 15.291 79.5762 15.2871 79.6348 15.2793C79.6934 15.2676 79.7539 15.2559 79.8164 15.2441V15.9883C79.7266 16.0117 79.6367 16.0332 79.5469 16.0527C79.4609 16.0723 79.3574 16.082 79.2363 16.082C79.0488 16.082 78.8867 16.0664 78.75 16.0352C78.6172 16.0039 78.5039 15.9531 78.4102 15.8828C78.3203 15.8086 78.25 15.7148 78.1992 15.6016C78.1484 15.4844 78.1152 15.3418 78.0996 15.1738C77.9668 15.3184 77.8262 15.4531 77.6777 15.5781C77.5293 15.6992 77.3633 15.8066 77.1797 15.9004C76.9961 15.9902 76.791 16.0605 76.5645 16.1113C76.3379 16.166 76.082 16.1934 75.7969 16.1934C75.5547 16.1934 75.3184 16.1543 75.0879 16.0762C74.8613 15.998 74.6562 15.8828 74.4727 15.7305C74.293 15.5781 74.1484 15.3906 74.0391 15.168C73.9297 14.9414 73.875 14.6797 73.875 14.3828C73.875 14.0586 73.9297 13.7793 74.0391 13.5449C74.1484 13.3066 74.291 13.1094 74.4668 12.9531C74.6426 12.793 74.8438 12.6699 75.0703 12.584C75.2969 12.498 75.5273 12.4414 75.7617 12.4141L77.5254 12.1973C77.6934 12.1777 77.8242 12.1133 77.918 12.0039C78.0156 11.8906 78.0645 11.7109 78.0645 11.4648C78.0645 11.0859 77.9395 10.8145 77.6895 10.6504C77.4434 10.4824 77.0879 10.3984 76.623 10.3984C76.1465 10.3984 75.791 10.5 75.5566 10.7031C75.3223 10.9023 75.1895 11.2031 75.1582 11.6055H74.1504ZM78.041 12.8066C77.9551 12.8691 77.8477 12.9219 77.7188 12.9648C77.5938 13.0039 77.4551 13.0371 77.3027 13.0645C77.1504 13.0918 76.9883 13.1172 76.8164 13.1406C76.6445 13.1602 76.4727 13.1816 76.3008 13.2051C76.1055 13.2324 75.9258 13.2715 75.7617 13.3223C75.5977 13.373 75.4551 13.4395 75.334 13.5215C75.2129 13.6035 75.1191 13.7031 75.0527 13.8203C74.9863 13.9336 74.9531 14.0684 74.9531 14.2246C74.9531 14.4043 74.9805 14.5625 75.0352 14.6992C75.0938 14.8359 75.1719 14.9512 75.2695 15.0449C75.3711 15.1387 75.4922 15.209 75.6328 15.2559C75.7734 15.3027 75.9277 15.3262 76.0957 15.3262C76.2012 15.3262 76.3223 15.3145 76.459 15.291C76.5957 15.2637 76.7363 15.2246 76.8809 15.1738C77.0254 15.123 77.166 15.0586 77.3027 14.9805C77.4434 14.8984 77.5684 14.8008 77.6777 14.6875C77.7871 14.5742 77.875 14.4453 77.9414 14.3008C78.0078 14.1562 78.041 13.9941 78.041 13.8145V12.8066Z" fill="#E3BC98"/>
</svg>
