<svg width="24" height="24" viewBox="0 0 24 24" fill="none" xmlns="http://www.w3.org/2000/svg">
<path d="M12 2V9L14 7" stroke="white" stroke-linecap="round" stroke-linejoin="round"/>
<path d="M12 9L10 7" stroke="white" stroke-linecap="round" stroke-linejoin="round"/>
<path d="M1.98 13H6.39C6.77 13 7.11 13.21 7.28 13.55L8.45 15.89C8.79 16.57 9.48 17 10.24 17H13.77C14.53 17 15.22 16.57 15.56 15.89L16.73 13.55C16.9 13.21 17.25 13 17.62 13H21.98" stroke="white" stroke-linecap="round" stroke-linejoin="round"/>
<path d="M7 4.13C3.46 4.65 2 6.73 2 11V15C2 20 4 22 9 22H15C20 22 22 20 22 15V11C22 6.73 20.54 4.65 17 4.13" stroke="white" stroke-linecap="round" stroke-linejoin="round"/>
</svg>
