<svg width="99" height="50" viewBox="0 0 99 50" fill="none" xmlns="http://www.w3.org/2000/svg">
<rect width="99" height="50" fill="white"/>
<rect x="0.5" y="0.5" width="98" height="49" rx="24.5" stroke="#252120"/>
<path d="M50.4079 31V18.04H55.1419C55.9819 18.04 56.6719 18.136 57.2119 18.328C57.7639 18.52 58.1959 18.784 58.5079 19.12C58.8319 19.456 59.0539 19.846 59.1739 20.29C59.3059 20.722 59.3719 21.178 59.3719 21.658C59.3719 22.378 59.2219 22.972 58.9219 23.44C58.6339 23.908 58.2559 24.28 57.7879 24.556C57.3199 24.82 56.7859 25.006 56.1859 25.114C55.5979 25.222 55.0039 25.276 54.4039 25.276H51.6319V31H50.4079ZM54.4399 24.232C55.0159 24.232 55.5319 24.196 55.9879 24.124C56.4439 24.052 56.8279 23.92 57.1399 23.728C57.4639 23.524 57.7099 23.254 57.8779 22.918C58.0579 22.57 58.1479 22.12 58.1479 21.568C58.1479 20.752 57.8779 20.134 57.3379 19.714C56.8099 19.294 55.9639 19.084 54.7999 19.084H51.6319V24.232H54.4399ZM61.4658 31V18.04H65.8938C66.2538 18.04 66.6078 18.052 66.9558 18.076C67.3038 18.088 67.6458 18.13 67.9818 18.202C68.3178 18.262 68.6418 18.358 68.9538 18.49C69.2778 18.622 69.5898 18.796 69.8898 19.012C70.3218 19.324 70.6758 19.708 70.9518 20.164C71.2278 20.608 71.4438 21.082 71.5998 21.586C71.7678 22.078 71.8818 22.582 71.9418 23.098C72.0138 23.602 72.0498 24.07 72.0498 24.502C72.0498 24.934 72.0198 25.372 71.9598 25.816C71.9118 26.26 71.8278 26.698 71.7078 27.13C71.5878 27.55 71.4258 27.958 71.2218 28.354C71.0298 28.738 70.7838 29.092 70.4838 29.416C70.1838 29.752 69.8538 30.022 69.4938 30.226C69.1458 30.43 68.7738 30.592 68.3778 30.712C67.9938 30.82 67.5918 30.898 67.1718 30.946C66.7518 30.982 66.3258 31 65.8938 31H61.4658ZM62.6898 29.956H65.6238C66.1758 29.956 66.6918 29.926 67.1718 29.866C67.6638 29.794 68.1618 29.626 68.6658 29.362C69.0978 29.146 69.4518 28.852 69.7278 28.48C70.0038 28.108 70.2198 27.706 70.3758 27.274C70.5438 26.83 70.6578 26.368 70.7178 25.888C70.7898 25.408 70.8258 24.946 70.8258 24.502C70.8258 24.034 70.7958 23.56 70.7358 23.08C70.6758 22.588 70.5618 22.126 70.3938 21.694C70.2258 21.25 69.9978 20.848 69.7098 20.488C69.4218 20.116 69.0498 19.81 68.5938 19.57C68.2098 19.366 67.7538 19.234 67.2258 19.174C66.6978 19.114 66.1638 19.084 65.6238 19.084H62.6898V29.956ZM74.33 31V18.04H82.682V19.084H75.554V23.764H82.034V24.808H75.554V31H74.33Z" fill="#252120"/>
<g clip-path="url(#clip0_0_1)">
<path d="M21 31H20C17.2386 31 15 28.7614 15 26C15 23.35 17.0616 21.1814 19.6685 21.0108C20.7898 18.64 23.2033 17 26 17C29.5267 17 32.4442 19.608 32.9292 23.0006C32.9528 23.0002 32.9764 23 33 23C35.2091 23 37 24.7909 37 27C37 29.2091 35.2091 31 33 31H31" stroke="#242328" stroke-width="2" stroke-linecap="round" stroke-linejoin="round"/>
<path d="M23 27L26 30M26 30L29 27M26 30L26 22" stroke="#242328" stroke-width="2" stroke-linecap="round" stroke-linejoin="round"/>
</g>
<defs>
<clipPath id="clip0_0_1">
<rect width="24" height="24" fill="white" transform="translate(14 12)"/>
</clipPath>
</defs>
</svg>
